SplineFontDB: 3.0
FontName: Nosifer-Regular
FullName: Nosifer
FamilyName: Nosifer
Weight: Regular
Copyright: Copyright (c) 2011, Typomondo, with Reserved Font Name "Nosifer"
Version: 001.002
ItalicAngle: 0
UnderlinePosition: -103
UnderlineWidth: 102
Ascent: 1638
Descent: 410
sfntRevision: 0x00010000
LayerCount: 2
Layer: 0 1 "Back"  1
Layer: 1 1 "Fore"  0
NeedsXUIDChange: 1
XUID: [1021 14 500265001 5086544]
FSType: 0
OS2Version: 3
OS2_WeightWidthSlopeOnly: 0
OS2_UseTypoMetrics: 1
CreationTime: 1318863780
ModificationTime: 1319462444
PfmFamily: 17
TTFWeight: 400
TTFWidth: 5
LineGap: 0
VLineGap: 0
Panose: 2 0 0 0 0 0 0 0 0 0
OS2TypoAscent: 2236
OS2TypoAOffset: 0
OS2TypoDescent: -1328
OS2TypoDOffset: 0
OS2TypoLinegap: 0
OS2WinAscent: 2236
OS2WinAOffset: 0
OS2WinDescent: 1328
OS2WinDOffset: 0
HheadAscent: 2236
HheadAOffset: 0
HheadDescent: -1328
HheadDOffset: 0
OS2SubXSize: 1331
OS2SubYSize: 1228
OS2SubXOff: 0
OS2SubYOff: 153
OS2SupXSize: 1331
OS2SupYSize: 1228
OS2SupXOff: 0
OS2SupYOff: 716
OS2StrikeYSize: 102
OS2StrikeYPos: 1047
OS2Vendor: 'newt'
OS2CodePages: 20000081.00000000
OS2UnicodeRanges: 00000003.00000000.00000000.00000000
Lookup: 4 0 1 "'liga' Standard Ligatures in Latin lookup 0"  {"'liga'"  } ['liga' ('DFLT' <'dflt' > 'latn' <'dflt' > ) ]
Lookup: 258 0 0 "'kern' Horizontal Kerning in Latin lookup 0"  {"'kern'" [367,0,2] } ['kern' ('DFLT' <'dflt' > 'latn' <'dflt' > ) ]
MarkAttachClasses: 1
DEI: 91125
KernClass2: 3 6 "'kern'" 
 3 T t
 3 A a
 11 C G O c g o
 3 Q q
 7 V W v w
 3 T t
 3 A a
 0 {} 0 {} 0 {} 0 {} 0 {} 0 {} 0 {} -52 {} 0 {} 0 {} 0 {} -205 {} 0 {} 0 {} 0 {} -191 {} -183 {} 0 {}
TtTable: prep
PUSHW_1
 511
SCANCTRL
PUSHB_1
 4
SCANTYPE
EndTTInstrs
LangName: 1033 "" "" "" "" "" "" "" "" "" "" "" "" "" "This Font Software is licensed under the SIL Open Font License, Version 1.1. This license is available with a FAQ at: http://scripts.sil.org/OFL" "http://scripts.sil.org/OFL" 
GaspTable: 1 65535 15
Encoding: UnicodeBmp
Compacted: 1
UnicodeInterp: none

StartChar: acute
Encoding: 180 180 3
Width: 880
VWidth: 1658
Flags: HW
LayerCount: 2
Fore
SplineSet
723 1207 m 2,0,-1
 262 1095 l 2,1,2
 210.076923077 1081.53846154 210.076923077 1081.53846154 194.538461538 1073.76923077 c 128,-1,3
 179 1066 179 1066 178 1066 c 0,4,5
 164 1112 164 1112 144 1150.5 c 128,-1,6
 124 1189 124 1189 111.5 1207.5 c 128,-1,7
 99 1226 99 1226 93 1232.5 c 128,-1,8
 87 1239 87 1239 87 1240.5 c 128,-1,9
 87 1242 87 1242 94.5 1243.5 c 0,10,11
 126.5 1249.9 126.5 1249.9 170 1276 c 2,12,-1
 599 1526 l 2,13,14
 644.6 1552.6 644.6 1552.6 658.8 1566.8 c 128,-1,15
 673 1581 673 1581 674 1581 c 128,-1,16
 675 1581 675 1581 676 1573 c 0,17,18
 680.868852459 1534.04918033 680.868852459 1534.04918033 698 1492 c 2,19,-1
 773 1300 l 1,20,21
 803 1226 803 1226 803 1222.5 c 128,-1,22
 803 1219 803 1219 796 1217.5 c 128,-1,23
 789 1216 789 1216 767 1214.5 c 128,-1,24
 745 1213 745 1213 723 1207 c 2,0,-1
EndSplineSet
EndChar

StartChar: circumflex
Encoding: 710 710 5
Width: 1121
VWidth: 1658
Flags: HW
LayerCount: 2
Fore
SplineSet
657 1520 m 2,0,1
 718.307692308 1520 718.307692308 1520 742 1564 c 1,2,-1
 773 1548 l 1,3,4
 759 1519 759 1519 762 1500 c 128,-1,5
 765 1481 765 1481 783 1453 c 2,6,-1
 954 1193 l 2,7,8
 988 1141 988 1141 1039 1114 c 1,9,-1
 1029 1098 l 1,10,11
 980 1125 980 1125 917 1125 c 2,12,-1
 738 1125 l 2,13,14
 677 1125 677 1125 648 1082 c 1,15,-1
 621 1101 l 1,16,17
 649 1145 649 1145 628 1201 c 1,18,-1
 591 1294 l 1,19,20
 570 1350 570 1350 570 1410 c 1,21,-1
 555 1410 l 1,22,23
 555 1350 555 1350 534 1294 c 1,24,-1
 497 1201 l 1,25,26
 476 1145 476 1145 504 1101 c 1,27,-1
 476 1082 l 1,28,29
 447 1125 447 1125 387 1125 c 2,30,-1
 208 1125 l 2,31,32
 145 1125 145 1125 96 1098 c 1,33,-1
 86 1114 l 1,34,35
 137 1141 137 1141 171 1193 c 2,36,-1
 342 1453 l 2,37,38
 360 1481 360 1481 363 1500 c 128,-1,39
 366 1519 366 1519 352 1548 c 1,40,-1
 383 1564 l 1,41,42
 406.692307692 1520 406.692307692 1520 468 1520 c 2,43,-1
 657 1520 l 2,0,1
EndSplineSet
EndChar

StartChar: dieresis
Encoding: 168 168 7
Width: 1297
VWidth: 1658
Flags: HW
LayerCount: 2
Fore
SplineSet
365 1069 m 2,0,-1
 255 1069 l 2,1,2
 167 1069 167 1069 149.5 1076 c 128,-1,3
 132 1083 132 1083 132 1127 c 2,4,-1
 132 1320 l 2,5,6
 132 1364 132 1364 149.5 1371 c 128,-1,7
 167 1378 167 1378 255 1378 c 2,8,-1
 365 1378 l 2,9,10
 453 1378 453 1378 470.5 1371 c 128,-1,11
 488 1364 488 1364 488 1320 c 2,12,-1
 488 1127 l 2,13,14
 488 1083 488 1083 470.5 1076 c 128,-1,15
 453 1069 453 1069 365 1069 c 2,0,-1
1053 1069 m 2,16,-1
 941 1069 l 2,17,18
 853 1069 853 1069 836 1076 c 128,-1,19
 819 1083 819 1083 819 1127 c 2,20,-1
 819 1320 l 2,21,22
 819 1364 819 1364 836 1371 c 128,-1,23
 853 1378 853 1378 941 1378 c 2,24,-1
 1053 1378 l 2,25,26
 1141 1378 1141 1378 1158 1371 c 128,-1,27
 1175 1364 1175 1364 1175 1320 c 2,28,-1
 1175 1127 l 2,29,30
 1175 1083 1175 1083 1158 1076 c 128,-1,31
 1141 1069 1141 1069 1053 1069 c 2,16,-1
EndSplineSet
EndChar

StartChar: grave
Encoding: 96 96 9
Width: 858
VWidth: 1658
Flags: HW
LayerCount: 2
Fore
SplineSet
677 965 m 1,0,-1
 682 1067 l 2,1,2
 682 1079 682 1079 613 1097 c 128,-1,3
 544 1115 544 1115 330.5 1164 c 128,-1,4
 117 1213 117 1213 93 1215.5 c 128,-1,5
 69 1218 69 1218 61.5 1218 c 128,-1,6
 54 1218 54 1218 54 1219.5 c 128,-1,7
 54 1221 54 1221 60 1228.5 c 0,8,9
 78.8 1252 78.8 1252 98 1300 c 2,10,-1
 173 1492 l 2,11,12
 190.05 1535.4 190.05 1535.4 193.025 1559.2 c 128,-1,13
 196 1583 196 1583 197 1583 c 128,-1,14
 198 1583 198 1583 204.5 1576 c 0,15,16
 228.101190476 1550.58333333 228.101190476 1550.58333333 272 1526 c 2,17,-1
 702 1276 l 2,18,19
 773 1234 773 1234 773 1231 c 128,-1,20
 773 1228 773 1228 764.5 1222 c 128,-1,21
 756 1216 756 1216 746 1206 c 0,22,23
 719 1179 719 1179 719 1104 c 1,24,-1
 730 968 l 1,25,26
 730 952 730 952 721.5 942.5 c 128,-1,27
 713 933 713 933 702 933 c 0,28,29
 677 933 677 933 677 965 c 1,0,-1
EndSplineSet
EndChar

StartChar: B
Encoding: 66 66 10
Width: 1979
VWidth: 1658
Flags: HW
LayerCount: 2
Fore
SplineSet
305 0 m 1,0,-1
 327 -183 l 1,1,2
 327 -244 327 -244 284.5 -244 c 128,-1,3
 242 -244 242 -244 242 -184 c 0,4,5
 242 -156 242 -156 254 -101 c 128,-1,6
 266 -46 266 -46 266 -4 c 128,-1,7
 266 38 266 38 242 38 c 0,8,9
 223 38 223 38 214 8.5 c 128,-1,10
 205 -21 205 -21 205 -63.5 c 128,-1,11
 205 -106 205 -106 219.5 -226.5 c 128,-1,12
 234 -347 234 -347 234 -406.5 c 128,-1,13
 234 -466 234 -466 189 -466 c 128,-1,14
 144 -466 144 -466 144 -408.5 c 128,-1,15
 144 -351 144 -351 160 -249.5 c 128,-1,16
 176 -148 176 -148 176 -97 c 2,17,-1
 177 1251 l 2,18,19
 177 1313 177 1313 138 1351 c 1,20,-1
 158 1372 l 1,21,22
 200 1332 200 1332 258 1332 c 2,23,-1
 1104 1332 l 2,24,25
 1119 1332 1119 1332 1157 1333 c 128,-1,26
 1195 1334 1195 1334 1247 1332 c 128,-1,27
 1299 1330 1299 1330 1353.5 1328.5 c 128,-1,28
 1408 1327 1408 1327 1462.5 1318 c 128,-1,29
 1517 1309 1517 1309 1567 1296.5 c 128,-1,30
 1617 1284 1617 1284 1660 1260 c 128,-1,31
 1703 1236 1703 1236 1735 1205.5 c 0,32,33
 1804 1139.734375 1804 1139.734375 1804 1037.8671875 c 128,-1,34
 1804 936 1804 936 1757 860.5 c 128,-1,35
 1710 785 1710 785 1625 778 c 1,36,-1
 1627 758 l 1,37,38
 1686 763 1686 763 1737 730.5 c 128,-1,39
 1788 698 1788 698 1819.5 644.5 c 0,40,41
 1887 529.857142857 1887 529.857142857 1887 431.928571429 c 128,-1,42
 1887 334 1887 334 1858.5 267 c 128,-1,43
 1830 200 1830 200 1779 156 c 128,-1,44
 1728 112 1728 112 1666 80 c 128,-1,45
 1604 48 1604 48 1528 31.5 c 0,46,47
 1382.90909091 1.7763568394e-14 1382.90909091 1.7763568394e-14 1240 0 c 2,48,-1
 305 0 l 1,0,-1
652 519 m 1,49,50
 691 480 691 480 691 418 c 128,-1,51
 691 356 691 356 652 317 c 1,52,-1
 672 296 l 1,53,54
 712 336 712 336 772 336 c 2,55,-1
 1165 336 l 2,56,57
 1172 336 1172 336 1195 335.5 c 128,-1,58
 1218 335 1218 335 1227.5 335.5 c 128,-1,59
 1237 336 1237 336 1256.5 338 c 128,-1,60
 1276 340 1276 340 1285.5 345.5 c 128,-1,61
 1295 351 1295 351 1306.5 359.5 c 0,62,63
 1327 374.652173913 1327 374.652173913 1327 417.826086957 c 128,-1,64
 1327 461 1327 461 1292 482 c 128,-1,65
 1257 503 1257 503 1212 503 c 2,66,-1
 772 500 l 2,67,68
 711 500 711 500 672 539 c 1,69,-1
 652 519 l 1,49,50
849 844 m 1,70,-1
 1083 834 l 1,71,72
 1203.23809524 834 1203.23809524 834 1236 877 c 0,73,74
 1252 898 1252 898 1252 925.5 c 128,-1,75
 1252 953 1252 953 1229.5 969 c 0,76,77
 1192.9375 995 1192.9375 995 1133 995 c 2,78,-1
 772 994 l 2,79,80
 717 994 717 994 677 1032 c 1,81,-1
 658 1012 l 1,82,83
 697 973 697 973 697 917 c 128,-1,84
 697 861 697 861 658 820 c 1,85,-1
 677 801 l 1,86,87
 721 844 721 844 849 844 c 1,70,-1
357 -740.5 m 128,-1,89
 362 -769 362 -769 362 -806.5 c 128,-1,90
 362 -844 362 -844 328 -844 c 128,-1,91
 294 -844 294 -844 294 -795 c 0,92,93
 294 -745.25 294 -745.25 309.5 -687.125 c 128,-1,94
 325 -629 325 -629 328 -616 c 1,95,96
 331 -631 331 -631 341.5 -671.5 c 128,-1,88
 352 -712 352 -712 357 -740.5 c 128,-1,89
EndSplineSet
EndChar

StartChar: C
Encoding: 67 67 11
Width: 1951
VWidth: 1658
Flags: HW
LayerCount: 2
Fore
SplineSet
693 -499 m 2,0,-1
 712 -24 l 1,1,2
 407 19 407 19 242.5 196 c 128,-1,3
 78 373 78 373 78 679 c 0,4,5
 78 1004.95555556 78 1004.95555556 291.5 1180.5 c 0,6,7
 528.054054054 1375 528.054054054 1375 993 1375 c 0,8,9
 1738 1375 1738 1375 1826 947 c 0,10,11
 1838 885 1838 885 1879 852 c 1,12,-1
 1862 830 l 1,13,14
 1814 866 1814 866 1758 861 c 1,15,-1
 1373 837 l 2,16,17
 1306 832 1306 832 1286 788 c 1,18,-1
 1253 804 l 1,19,20
 1263 826 1263 826 1263 842 c 0,21,22
 1263 894 1263 894 1228.5 932.5 c 128,-1,23
 1194 971 1194 971 1141 990 c 0,24,25
 1037.78947368 1027 1037.78947368 1027 941 1027 c 0,26,27
 793 1027 793 1027 710.5 926.5 c 128,-1,28
 628 826 628 826 628 665.5 c 128,-1,29
 628 505 628 505 721.5 403.5 c 128,-1,30
 815 302 815 302 984 302 c 0,31,32
 1038 302 1038 302 1104.5 328.5 c 128,-1,33
 1171 355 1171 355 1222.5 405 c 128,-1,34
 1274 455 1274 455 1274 511 c 0,35,36
 1274 527 1274 527 1263 551 c 1,37,-1
 1296 568 l 1,38,39
 1320 523 1320 523 1373.5 519 c 128,-1,40
 1427 515 1427 515 1512 507.5 c 0,41,42
 1699 491 1699 491 1772 491 c 128,-1,43
 1845 491 1845 491 1887 522 c 1,44,-1
 1903 501 l 1,45,46
 1866 473 1866 473 1847.5 397.5 c 128,-1,47
 1829 322 1829 322 1776 252.5 c 128,-1,48
 1723 183 1723 183 1656.5 137.5 c 128,-1,49
 1590 92 1590 92 1502.5 57.5 c 0,50,51
 1351.24135281 -2.13912375096 1351.24135281 -2.13912375096 1171 -27 c 1,52,53
 1171 -119 1171 -119 1195 -300 c 128,-1,54
 1219 -481 1219 -481 1219 -541 c 128,-1,55
 1219 -601 1219 -601 1204.5 -625 c 128,-1,56
 1190 -649 1190 -649 1162 -649 c 128,-1,57
 1134 -649 1134 -649 1119 -625 c 128,-1,58
 1104 -601 1104 -601 1104 -548.5 c 128,-1,59
 1104 -496 1104 -496 1120.5 -345 c 128,-1,60
 1137 -194 1137 -194 1137 -143 c 128,-1,61
 1137 -92 1137 -92 1132 -74 c 128,-1,62
 1127 -56 1127 -56 1120 -46.5 c 128,-1,63
 1113 -37 1113 -37 1096 -32.5 c 0,64,65
 1056.78509532 -22.1195840555 1056.78509532 -22.1195840555 1002.39254766 -26.5597920277 c 0,66,67
 892 -35.5714285714 892 -35.5714285714 892 -64 c 1,68,-1
 916 -336 l 1,69,70
 916 -401 916 -401 878 -401 c 128,-1,71
 840 -401 840 -401 840 -346 c 128,-1,72
 840 -291 840 -291 853.5 -200 c 128,-1,73
 867 -109 867 -109 867 -69.5 c 128,-1,74
 867 -30 867 -30 841 -30 c 0,75,76
 789.571428571 -30 789.571428571 -30 772.285714286 -41 c 128,-1,77
 755 -52 755 -52 755 -61 c 2,78,-1
 766 -494 l 2,79,80
 766 -511 766 -511 755 -524.5 c 128,-1,81
 744 -538 744 -538 728 -538 c 128,-1,82
 712 -538 712 -538 702.5 -526.5 c 128,-1,83
 693 -515 693 -515 693 -499 c 2,0,-1
EndSplineSet
EndChar

StartChar: A
Encoding: 65 65 12
Width: 1768
VWidth: 1658
Flags: HW
HStem: -42 21G<524.5 562 1746 1775> 152 277<651.548 1055.45>
VStem: -9 90<-319.777 -3.71939> 1149 81<-461.987 -226.234> 1174 36<-341.656 -46.6784> 1407 55<-366.99 -165.683 -63.921 -0.514896>
LayerCount: 2
Fore
SplineSet
81 -64 m 2,0,-1
 84 -223 l 2,1,2
 84 -271 84 -271 69 -295.5 c 128,-1,3
 54 -320 54 -320 33 -320 c 0,4,5
 -9 -320 -9 -320 -9 -239 c 128,-1,6
 -9 -158 -9 -158 11 -59.5 c 128,-1,7
 31 39 31 39 46 76 c 2,8,-1
 526 1257 l 2,9,10
 536 1283 536 1283 536 1308 c 128,-1,11
 536 1333 536 1333 519 1357 c 1,12,-1
 547 1375 l 1,13,14
 576 1332 576 1332 637 1332 c 2,15,-1
 1097 1332 l 2,16,17
 1157 1332 1157 1332 1186 1375 c 1,18,-1
 1215 1357 l 1,19,20
 1198 1333 1198 1333 1198 1311 c 128,-1,21
 1198 1289 1198 1289 1210 1258 c 2,22,-1
 1704 75 l 2,23,24
 1727 19 1727 19 1775 -13 c 1,25,-1
 1763 -32 l 1,26,27
 1714 0 1714 0 1654 0 c 2,28,-1
 1458 0 l 1,29,30
 1460 -22 1460 -22 1460 -31 c 0,31,32
 1460 -64 1460 -64 1433 -64 c 0,33,34
 1421 -64 1421 -64 1411.5 -54.5 c 128,-1,35
 1402 -45 1402 -45 1402 -27.5 c 128,-1,36
 1402 -10 1402 -10 1404 0 c 1,37,-1
 1283 0 l 2,38,39
 1239.09090909 0 1239.09090909 0 1226 -48 c 0,40,41
 1210 -106.666666667 1210 -106.666666667 1210 -183.333333333 c 128,-1,42
 1210 -260 1210 -260 1220 -323 c 128,-1,43
 1230 -386 1230 -386 1230 -409.5 c 128,-1,44
 1230 -433 1230 -433 1218.5 -447.5 c 128,-1,45
 1207 -462 1207 -462 1190 -462 c 128,-1,46
 1173 -462 1173 -462 1161 -448 c 128,-1,47
 1149 -434 1149 -434 1149 -409 c 128,-1,48
 1149 -384 1149 -384 1161.5 -312 c 128,-1,49
 1174 -240 1174 -240 1174 -204 c 2,50,-1
 1174 77 l 1,51,52
 1164 104 1164 104 1164 127 c 128,-1,53
 1164 150 1164 150 1182 176 c 1,54,-1
 1156 195 l 1,55,56
 1126 152 1126 152 1066 152 c 2,57,-1
 655 152 l 2,58,59
 595 152 595 152 565 194 c 1,60,-1
 539 176 l 1,61,62
 558 149 558 149 558 126 c 128,-1,63
 558 103 558 103 551 77 c 1,64,-1
 551 76 l 1,65,66
 542 42 542 42 542 24 c 128,-1,67
 542 6 542 6 562 -23 c 1,68,-1
 536 -42 l 1,69,70
 506 0 506 0 446 0 c 2,71,-1
 84 0 l 1,72,73
 81 -19 81 -19 81 -64 c 2,0,-1
758 429 m 2,74,-1
 949 429 l 2,75,76
 1009 429 1009 429 1057 397 c 1,77,-1
 1070 416 l 1,78,79
 1023 448 1023 448 1002 505 c 1,80,-1
 875 830 l 2,81,82
 853 887 853 887 852 946 c 1,83,-1
 839 946 l 1,84,85
 837 880 837 880 819 830 c 2,86,-1
 704 506 l 2,87,88
 683 448 683 448 637 416 c 1,89,-1
 650 396 l 1,90,91
 697 429 697 429 758 429 c 2,74,-1
1407 -331 m 0,92,93
 1407 -262 1407 -262 1433 -158 c 1,94,95
 1462 -278 1462 -278 1462 -314 c 0,96,97
 1462 -367 1462 -367 1434.5 -367 c 128,-1,98
 1407 -367 1407 -367 1407 -331 c 0,92,93
EndSplineSet
EndChar

StartChar: Ccedilla
Encoding: 199 199 13
Width: 1951
VWidth: 1658
Flags: HW
LayerCount: 2
Back
SplineSet
78 679 m 0,0,1
 78 793 78 793 104.5 888.5 c 0
 131 984 131 984 177.5 1054.5 c 0
 224 1125 224 1125 291.5 1180.5 c 0
 359 1236 359 1236 437 1272 c 0
 515 1308 515 1308 608 1331.5 c 0
 701 1355 701 1355 795 1365 c 0
 889 1375 889 1375 993 1375 c 0,2,3
 1738 1375 1738 1375 1826 947 c 0,4,5
 1838 885 1838 885 1879 852 c 1,6,-1
 1862 830 l 1,7,8
 1819.10664181 861.455129336 1819.10664181 861.455129336 1769.28406778 861.455129336 c 0,9,10
 1763.61326182 861.455129336 1763.61326182 861.455129336 1758 861 c 2,11,-1
 1373 837 l 2,12,13
 1306 832 1306 832 1286 788 c 1,14,-1
 1253 804 l 1,15,16
 1263 826 1263 826 1263 842 c 0,17,18
 1263 894 1263 894 1228.5 932.5 c 0
 1194 971 1194 971 1141 990 c 0
 1088 1009 1088 1009 1037.5 1018 c 0
 987 1027 987 1027 941 1027 c 0,19,20
 793 1027 793 1027 710.5 926.5 c 0
 628 826 628 826 628 676 c 0,21,22
 628 505 628 505 721.5 403.5 c 0
 815 302 815 302 984 302 c 0,23,24
 1038 302 1038 302 1104.5 328.5 c 0
 1171 355 1171 355 1222.5 405 c 0
 1274 455 1274 455 1274 511 c 0,25,26
 1274 527 1274 527 1263 551 c 1,27,-1
 1296 568 l 1,28,29
 1320 523 1320 523 1383 518 c 0,30,31
 1427 515 1427 515 1512 507.5 c 0
 1597 500 1597 500 1666 495.5 c 0
 1735 491 1735 491 1795 491 c 0,32,33
 1845 491 1845 491 1887 522 c 1,34,-1
 1903 501 l 1,35,36
 1866 473 1866 473 1849 407 c 1,37,38
 1794.90398634 179.796742627 1794.90398634 179.796742627 1518.73863324 55.7762091048 c 0
 1289.11853059 -47.3417501805 1289.11853059 -47.3417501805 985.668248266 -52.4888205128 c 0
 971.883567053 -52.7060971972 971.883567053 -52.7060971972 959.170011632 -52.7142630486 c 0,39,40
 799.250496798 -52.7142630486 799.250496798 -52.7142630486 664.328632969 -24.5774906662 c 0
 529.40676914 3.55928171622 529.40676914 3.55928171622 420.536378386 61.9947020514 c 0
 311.665987633 120.430122387 311.665987633 120.430122387 235.755850947 206.511097773 c 0
 159.845714262 292.592073159 159.845714262 292.592073159 118.922857131 412.343269533 c 0
 78 532.094465907 78 532.094465907 78 679 c 0,0,1
864.899414062 -177 m 1,41,-1
 864.899414062 -27 l 1,42,-1
 1048.89941406 -27 l 1,43,-1
 1022.89941406 -93 l 1,44,45
 1287.89941406 -133.895061728 1287.89941406 -133.895061728 1287.89941406 -312 c 0,46,47
 1287.89941406 -342.736245174 1287.89941406 -342.736245174 1282.53304778 -369.273292066 c 0
 1277.1666815 -395.810338958 1277.1666815 -395.810338958 1267.02163972 -416.556786059 c 0
 1256.87659794 -437.30323316 1256.87659794 -437.30323316 1242.96664153 -454.324073316 c 0
 1229.05668512 -471.344913472 1229.05668512 -471.344913472 1211.22476472 -483.666161059 c 0
 1193.39284431 -495.987408646 1193.39284431 -495.987408646 1173.44711028 -505.015479566 c 0
 1153.50137624 -514.043550486 1153.50137624 -514.043550486 1130.49038972 -519.463036059 c 0
 1107.47940319 -524.882521632 1107.47940319 -524.882521632 1084.00570403 -527.441260816 c 0
 1060.53200487 -530 1060.53200487 -530 1034.89941406 -530 c 0,48,49
 921.490323153 -530 921.490323153 -530 792.899414062 -489 c 1,50,-1
 813.899414062 -358 l 1,51,52
 906.011178768 -391 906.011178768 -391 962.899414062 -391 c 0,53,54
 1061.16303259 -391 1061.16303259 -391 1075.06565144 -313.872927163 c 0
 1076.89941406 -303.699826381 1076.89941406 -303.699826381 1076.89941406 -293 c 0,55,56
 1076.89941406 -281.505287356 1076.89941406 -281.505287356 1073.36427923 -268.37616092 c 0
 1069.8291444 -255.247034483 1069.8291444 -255.247034483 1058.37854889 -238.15983908 c 0
 1046.92795339 -221.072643678 1046.92795339 -221.072643678 1028.98027923 -207.80016092 c 0
 1011.03260507 -194.527678161 1011.03260507 -194.527678161 978.474548892 -185.26383908 c 0
 945.916492713 -176 945.916492713 -176 903.899414062 -176 c 0,57,58
 878.899414062 -176 878.899414062 -176 864.899414062 -177 c 1,41,-1
EndSplineSet
Fore
SplineSet
133.66549249 372.434653883 m 128,-1,1
 78 506.872533199 78 506.872533199 78 649.9362666 c 132,-1,2
 78 793 78 793 104.5 888.5 c 128,-1,3
 131 984 131 984 177.5 1054.5 c 128,-1,4
 224 1125 224 1125 291.5 1180.5 c 128,-1,5
 359 1236 359 1236 437 1272 c 128,-1,6
 515 1308 515 1308 608 1331.5 c 0,7,8
 780.14893617 1375 780.14893617 1375 993 1375 c 0,9,10
 1738 1375 1738 1375 1826 947 c 0,11,12
 1838 885 1838 885 1879 852 c 1,13,-1
 1862 830 l 1,14,15
 1819.10664181 861.455129336 1819.10664181 861.455129336 1769.28406778 861.455129336 c 0,16,17
 1763.61326182 861.455129336 1763.61326182 861.455129336 1758 861 c 2,18,-1
 1373 837 l 2,19,20
 1306 832 1306 832 1286 788 c 1,21,-1
 1253 804 l 1,22,23
 1263 826 1263 826 1263 842 c 0,24,25
 1263 894 1263 894 1228.5 932.5 c 128,-1,26
 1194 971 1194 971 1141 990 c 0,27,28
 1037.78947368 1027 1037.78947368 1027 941 1027 c 0,29,30
 793 1027 793 1027 710.5 926.5 c 128,-1,31
 628 826 628 826 628 665.5 c 128,-1,32
 628 505 628 505 721.5 403.5 c 128,-1,33
 815 302 815 302 984 302 c 0,34,35
 1038 302 1038 302 1104.5 328.5 c 128,-1,36
 1171 355 1171 355 1222.5 405 c 128,-1,37
 1274 455 1274 455 1274 511 c 0,38,39
 1274 527 1274 527 1263 551 c 1,40,-1
 1296 568 l 1,41,42
 1320 523 1320 523 1373.5 519 c 128,-1,43
 1427 515 1427 515 1512 507.5 c 0,44,45
 1699 491 1699 491 1772 491 c 128,-1,46
 1845 491 1845 491 1887 522 c 1,47,-1
 1903 501 l 1,48,49
 1866 473 1866 473 1849.73651447 407.393360758 c 128,-1,50
 1833.47302893 341.786721516 1833.47302893 341.786721516 1798.54656599 284.415097353 c 128,-1,51
 1763.62010305 227.043473191 1763.62010305 227.043473191 1715.67111098 182.696533605 c 128,-1,52
 1667.72211892 138.34959402 1667.72211892 138.34959402 1606.32983313 101.419487217 c 128,-1,53
 1544.93754734 64.4893804141 1544.93754734 64.4893804141 1477.760542 38.3424568251 c 128,-1,54
 1410.58353667 12.1955332361 1410.58353667 12.1955332361 1335.833995 -6.83826712084 c 0,55,56
 1194.66191958 -42.7855256523 1194.66191958 -42.7855256523 1039.57876022 -50.6601213039 c 1,57,-1
 1022.89941406 -93 l 1,58,59
 1287.89941406 -133.895061728 1287.89941406 -133.895061728 1287.89941406 -312 c 0,60,61
 1287.89941406 -453.210742088 1287.89941406 -453.210742088 1173.44711028 -505.015479566 c 0,62,63
 1118.24876237 -530 1118.24876237 -530 1019.86954276 -530 c 128,-1,64
 921.490323153 -530 921.490323153 -530 792.899414062 -489 c 1,65,-1
 813.899414062 -358 l 1,66,67
 906.011178768 -391 906.011178768 -391 962.899414062 -391 c 0,68,69
 1061.16303259 -391 1061.16303259 -391 1075.06565144 -313.872927163 c 0,70,71
 1076.89941406 -303.699826381 1076.89941406 -303.699826381 1076.89941406 -292.602556868 c 128,-1,72
 1076.89941406 -281.505287356 1076.89941406 -281.505287356 1073.36427923 -268.37616092 c 128,-1,73
 1069.8291444 -255.247034483 1069.8291444 -255.247034483 1058.37854889 -238.15983908 c 128,-1,74
 1046.92795339 -221.072643678 1046.92795339 -221.072643678 1028.98027923 -207.80016092 c 0,75,76
 985.978609029 -176 985.978609029 -176 903.899414062 -176 c 0,77,78
 878.899414062 -176 878.899414062 -176 864.899414062 -177 c 1,79,-1
 864.899414062 -50.1165471947 l 1,80,81
 501.624075831 -29.6311320232 501.624075831 -29.6311320232 293.220424756 148.965943919 c 0,82,0
 189.330984981 237.996774567 189.330984981 237.996774567 133.66549249 372.434653883 c 128,-1,1
EndSplineSet
EndChar

StartChar: cedilla
Encoding: 184 184 14
Width: 644
VWidth: 1658
Flags: HW
LayerCount: 2
Fore
SplineSet
159 -150 m 1,0,-1
 159 0 l 1,1,-1
 343 0 l 1,2,-1
 317 -66 l 1,3,4
 582 -107 582 -107 582 -285 c 0,5,6
 582 -401 582 -401 511.5 -452 c 128,-1,7
 441 -503 441 -503 328.5 -503 c 128,-1,8
 216 -503 216 -503 87 -462 c 1,9,-1
 108 -331 l 1,10,11
 200 -364 200 -364 246 -364 c 128,-1,12
 292 -364 292 -364 316 -354 c 128,-1,13
 340 -344 340 -344 351 -328 c 0,14,15
 371 -298.909090909 371 -298.909090909 371 -274.954545455 c 128,-1,16
 371 -251 371 -251 364 -234 c 128,-1,17
 357 -217 357 -217 340.5 -196.5 c 0,18,19
 302.268292683 -149 302.268292683 -149 198 -149 c 0,20,21
 173 -149 173 -149 159 -150 c 1,0,-1
EndSplineSet
EndChar

StartChar: D
Encoding: 68 68 15
Width: 1968
VWidth: 1658
Flags: HW
LayerCount: 2
Fore
SplineSet
688 -247 m 1,0,-1
 709 -105 l 1,1,2
 709 42 709 42 395 42 c 0,3,4
 341 42 341 42 320 17 c 128,-1,5
 299 -8 299 -8 299 -68 c 128,-1,6
 299 -128 299 -128 317 -234.5 c 128,-1,7
 335 -341 335 -341 335 -397.5 c 128,-1,8
 335 -454 335 -454 290 -454 c 128,-1,9
 245 -454 245 -454 245 -394.5 c 128,-1,10
 245 -335 245 -335 259 -215 c 128,-1,11
 273 -95 273 -95 273 -52.5 c 0,12,13
 273 50 273 50 236 50 c 0,14,15
 212 50 212 50 212 -7 c 1,16,-1
 236 -173 l 1,17,18
 236 -232 236 -232 193.5 -232 c 128,-1,19
 151 -232 151 -232 151 -172 c 1,20,-1
 174 12 l 1,21,-1
 173 178 l 1,22,-1
 173 1251 l 2,23,24
 173 1313 173 1313 134 1351 c 1,25,-1
 154 1372 l 1,26,27
 195 1332 195 1332 254 1332 c 2,28,-1
 1080 1332 l 2,29,30
 1678.27727273 1332 1678.27727273 1332 1821.5 943 c 0,31,32
 1862 833 1862 833 1862 708.5 c 128,-1,33
 1862 584 1862 584 1846.5 494.5 c 128,-1,34
 1831 405 1831 405 1807 337.5 c 128,-1,35
 1783 270 1783 270 1739.5 218 c 128,-1,36
 1696 166 1696 166 1652.5 130.5 c 128,-1,37
 1609 95 1609 95 1542 70 c 128,-1,38
 1475 45 1475 45 1418 31.5 c 128,-1,39
 1361 18 1361 18 1275 11 c 0,40,41
 1139.85714286 2.22044604925e-15 1139.85714286 2.22044604925e-15 958 0 c 2,42,-1
 813 0 l 2,43,44
 729 0 729 0 729 -120 c 1,45,-1
 745 -248 l 1,46,47
 745 -286 745 -286 719 -286 c 0,48,49
 688 -286 688 -286 688 -247 c 1,0,-1
1309 544.5 m 128,-1,51
 1326 608 1326 608 1326 697.5 c 128,-1,52
 1326 787 1326 787 1296 847 c 128,-1,53
 1266 907 1266 907 1216 935 c 128,-1,54
 1166 963 1166 963 1105 976.5 c 128,-1,55
 1044 990 1044 990 977 991.5 c 128,-1,56
 910 993 910 993 851.5 994 c 0,57,58
 709.573913043 996.426086957 709.573913043 996.426086957 670 1036 c 1,59,-1
 650 1016 l 1,60,61
 688 979 688 979 688 916 c 2,62,-1
 688 686 l 2,63,64
 688 456 688 456 690 342 c 1,65,-1
 917 342 l 2,66,67
 1087.81818182 342 1087.81818182 342 1159.40909091 372 c 128,-1,68
 1231 402 1231 402 1261.5 441.5 c 128,-1,50
 1292 481 1292 481 1309 544.5 c 128,-1,51
718.5 -647 m 128,-1,70
 685 -647 685 -647 685 -609.5 c 128,-1,71
 685 -572 685 -572 689.5 -544 c 128,-1,72
 694 -516 694 -516 705 -472.5 c 128,-1,73
 716 -429 716 -429 718 -418 c 1,74,75
 721 -431 721 -431 729 -461.5 c 128,-1,76
 737 -492 737 -492 741 -509 c 0,77,78
 752 -555.75 752 -555.75 752 -601.375 c 128,-1,69
 752 -647 752 -647 718.5 -647 c 128,-1,70
EndSplineSet
EndChar

StartChar: E
Encoding: 69 69 16
Width: 1792
VWidth: 1658
Flags: HW
HStem: 2 130<668.004 720.996> 60 277<1401.03 1572.62> 486 360<671.917 1279.44> 508 315<875.562 1465.42> 985 345<672.346 1388.22> 1008 322<906.781 1606.26>
VStem: 104 158<-798.518 -426.245> 165 1442<1037.71 1327.68> 165 522<169.875 514.296 816.273 1014.77> 170 46<-424.307 -70.4373> 1314 98<-550.598 -175.893> 1332 39<-306.611 -40.4629> 1589 89<-416.981 -120.293> 1605 36<-174.104 -11.801>
LayerCount: 2
Fore
SplineSet
721 166 m 1,0,-1
 705 290 l 1,1,-1
 705 301 l 1,2,3
 726 338 726 338 762 338 c 2,4,-1
 1578 337 l 2,5,6
 1639 337 1639 337 1677 376 c 1,7,-1
 1697 356 l 1,8,9
 1641 253 1641 253 1641 -17 c 0,10,11
 1641 -59 1641 -59 1659.5 -179.5 c 128,-1,12
 1678 -300 1678 -300 1678 -339.5 c 128,-1,13
 1678 -379 1678 -379 1665 -398 c 128,-1,14
 1652 -417 1652 -417 1634 -417 c 128,-1,15
 1616 -417 1616 -417 1602.5 -396 c 128,-1,16
 1589 -375 1589 -375 1589 -338 c 1,17,-1
 1605 -117 l 1,18,19
 1605 -29 1605 -29 1574 15.5 c 128,-1,20
 1543 60 1543 60 1490 60 c 0,21,22
 1371 60 1371 60 1371 -119 c 0,23,24
 1371 -188 1371 -188 1391.5 -319 c 128,-1,25
 1412 -450 1412 -450 1412 -483 c 128,-1,26
 1412 -516 1412 -516 1397 -533.5 c 128,-1,27
 1382 -551 1382 -551 1362.5 -551 c 128,-1,28
 1343 -551 1343 -551 1328.5 -534.5 c 128,-1,29
 1314 -518 1314 -518 1314 -490 c 1,30,-1
 1332 -171 l 1,31,32
 1332 4 1332 4 1257 4 c 1,33,-1
 1181 2 l 1,34,-1
 395 2 l 2,35,36
 305.5 2 305.5 2 264.5 -32 c 0,37,38
 216 -72.2195121951 216 -72.2195121951 216 -258 c 0,39,40
 216 -333 216 -333 239 -479.5 c 128,-1,41
 262 -626 262 -626 262 -700 c 0,42,43
 262 -807 262 -807 186 -807 c 0,44,45
 104 -807 104 -807 104 -697 c 0,46,47
 104 -622 104 -622 137 -475 c 128,-1,48
 170 -328 170 -328 170 -252 c 1,49,-1
 165 83 l 1,50,-1
 165 1249 l 2,51,52
 165 1311 165 1311 127 1348 c 1,53,-1
 147 1369 l 1,54,55
 188 1330 188 1330 247 1330 c 2,56,-1
 1531 1330 l 2,57,58
 1592 1330 1592 1330 1631 1369 c 1,59,-1
 1651 1348 l 1,60,61
 1607 1304 1607 1304 1607 1175.5 c 2,62,-1
 1607 1131 l 2,63,64
 1607 1018 1607 1018 1651 976 c 1,65,-1
 1631 957 l 1,66,67
 1581 1008 1581 1008 1396 1008 c 1,68,-1
 899 985 l 1,69,70
 715 985 715 985 665 1036 c 1,71,-1
 644 1016 l 1,72,73
 683 978 683 978 683 915.5 c 128,-1,74
 683 853 683 853 644 815 c 1,75,-1
 665 796 l 1,76,77
 713 846 713 846 867 846 c 1,78,-1
 1286 823 l 1,79,80
 1441 823 1441 823 1491 873 c 1,81,-1
 1512 853 l 1,82,83
 1468 809 1468 809 1468 669 c 2,84,-1
 1468 630.5 l 2,85,86
 1468 523 1468 523 1512 479 c 1,87,-1
 1491 458 l 1,88,89
 1443 508 1443 508 1288 508 c 1,90,-1
 869 486 l 1,91,92
 715 486 715 486 665 536 c 1,93,-1
 645 516 l 1,94,95
 687 473 687 473 687 366 c 1,96,-1
 685 288 l 1,97,-1
 668 168 l 1,98,99
 668 132 668 132 694.5 132 c 128,-1,100
 721 132 721 132 721 166 c 1,0,-1
EndSplineSet
EndChar

StartChar: F
Encoding: 70 70 21
Width: 1765
VWidth: 1658
Flags: HW
LayerCount: 2
Fore
SplineSet
699 413 m 1,0,-1
 691 209 l 1,1,2
 691 154 691 154 717.5 46.5 c 128,-1,3
 744 -61 744 -61 744 -112.5 c 128,-1,4
 744 -164 744 -164 761 -257 c 128,-1,5
 778 -350 778 -350 778 -406.5 c 128,-1,6
 778 -463 778 -463 729.5 -463 c 128,-1,7
 681 -463 681 -463 681 -407.5 c 128,-1,8
 681 -352 681 -352 698.5 -259.5 c 128,-1,9
 716 -167 716 -167 716 -121 c 128,-1,10
 716 -75 716 -75 684 -37.5 c 128,-1,11
 652 0 652 0 608 0 c 0,12,13
 508 0 508 0 508 -243 c 0,14,15
 508 -300 508 -300 523 -414 c 128,-1,16
 538 -528 538 -528 538 -570 c 0,17,18
 538 -652 538 -652 489 -652 c 0,19,20
 464 -652 464 -652 450.5 -630.5 c 128,-1,21
 437 -609 437 -609 437 -569 c 128,-1,22
 437 -529 437 -529 454.5 -423 c 128,-1,23
 472 -317 472 -317 472 -269 c 128,-1,24
 472 -221 472 -221 466.5 -178.5 c 128,-1,25
 461 -136 461 -136 446.5 -87.5 c 128,-1,26
 432 -39 432 -39 400.5 -9 c 128,-1,27
 369 21 369 21 319.5 21 c 128,-1,28
 270 21 270 21 230.5 -22 c 128,-1,29
 191 -65 191 -65 191 -103.5 c 128,-1,30
 191 -142 191 -142 205 -184 c 128,-1,31
 219 -226 219 -226 219 -249 c 0,32,33
 219 -293 219 -293 186.5 -293 c 128,-1,34
 154 -293 154 -293 154 -249 c 1,35,-1
 178 -89 l 1,36,-1
 177 1184 l 2,37,38
 177 1302 177 1302 105 1381 c 1,39,-1
 125 1401 l 1,40,41
 205 1330 205 1330 322 1330 c 2,42,-1
 1476 1330 l 2,43,44
 1593 1330 1593 1330 1673 1401 c 1,45,-1
 1693 1381 l 1,46,47
 1622 1301 1622 1301 1622 1201 c 128,-1,48
 1622 1101 1622 1101 1635 1046 c 128,-1,49
 1648 991 1648 991 1693 940 c 1,50,-1
 1673 920 l 1,51,52
 1619.75 991 1619.75 991 1541 991 c 2,53,-1
 782 991 l 2,54,55
 726 991 726 991 686 1029 c 1,56,-1
 667 1010 l 1,57,58
 705 970 705 970 705 913 c 128,-1,59
 705 856 705 856 667 816 c 1,60,-1
 686 797 l 1,61,62
 719 829 719 829 765.5 838 c 128,-1,63
 812 847 812 847 876 847 c 1,64,-1
 1256 826 l 1,65,66
 1349 826 1349 826 1420.5 842 c 128,-1,67
 1492 858 1492 858 1543 907 c 1,68,-1
 1563 887 l 1,69,70
 1488 805 1488 805 1488 660 c 128,-1,71
 1488 515 1488 515 1557 443 c 1,72,-1
 1536 423 l 1,73,74
 1445 504 1445 504 1242 504 c 1,75,-1
 868 483 l 1,76,77
 731 483 731 483 681 533 c 1,78,-1
 662 513 l 1,79,80
 699 475 699 475 699 413 c 1,0,-1
EndSplineSet
EndChar

StartChar: G
Encoding: 71 71 22
Width: 1991
VWidth: 1658
Flags: HW
LayerCount: 2
Fore
SplineSet
1350 310 m 1,0,1
 1312 339.739130435 1312 339.739130435 1312 380 c 2,2,-1
 1312 388 l 2,3,4
 1312 428 1312 428 1348 464 c 1,5,-1
 1334 477 l 1,6,7
 1298 441 1298 441 1259 441 c 2,8,-1
 1162 441 l 2,9,10
 1101 441 1101 441 1062 402 c 1,11,-1
 1041 423 l 1,12,13
 1081 463 1081 463 1081 522 c 2,14,-1
 1081 670 l 2,15,16
 1081 730 1081 730 1041 770 c 1,17,-1
 1062 790 l 1,18,19
 1100 752 1100 752 1162 752 c 2,20,-1
 1776 752 l 2,21,22
 1838 752 1838 752 1876 790 c 1,23,-1
 1895 770 l 1,24,25
 1857 732 1857 732 1857 670 c 2,26,-1
 1857 251 l 2,27,28
 1857 220 1857 220 1865.5 201.5 c 128,-1,29
 1874 183 1874 183 1900 169 c 1,30,-1
 1884 140 l 1,31,32
 1866 149 1866 149 1843.5 149 c 128,-1,33
 1821 149 1821 149 1792 130 c 0,34,35
 1560 -25 1560 -25 1132 -44 c 1,36,-1
 1132 -140 l 1,37,-1
 1148 -251 l 1,38,39
 1148 -275 1148 -275 1138 -288 c 128,-1,40
 1128 -301 1128 -301 1115.5 -301 c 128,-1,41
 1103 -301 1103 -301 1093 -289 c 128,-1,42
 1083 -277 1083 -277 1083 -265.5 c 128,-1,43
 1083 -254 1083 -254 1087 -233.5 c 0,44,45
 1099 -172 1099 -172 1099 -108 c 128,-1,46
 1099 -44 1099 -44 1090 -44 c 0,47,48
 894 -44 894 -44 678 -17 c 1,49,50
 669 -14 669 -14 669 -124 c 128,-1,51
 669 -234 669 -234 687.5 -351 c 128,-1,52
 706 -468 706 -468 706 -513.5 c 0,53,54
 706 -607 706 -607 649 -607 c 0,55,56
 622 -607 622 -607 602.5 -586 c 128,-1,57
 583 -565 583 -565 583 -518.5 c 128,-1,58
 583 -472 583 -472 616 -352.5 c 128,-1,59
 649 -233 649 -233 649 -166 c 2,60,-1
 649 -10 l 1,61,62
 78 118.425605536 78 118.425605536 78 679 c 0,63,64
 78 1106.41935484 78 1106.41935484 429.5 1276.5 c 0,65,66
 633.066666667 1375 633.066666667 1375 926 1375 c 0,67,68
 1398.9266055 1375 1398.9266055 1375 1652.5 1189.5 c 0,69,70
 1788.62424764 1089.91917455 1788.62424764 1089.91917455 1827 962 c 0,71,72
 1845 902 1845 902 1891 870 c 1,73,-1
 1876 850 l 1,74,75
 1835 880 1835 880 1768 880 c 1,76,-1
 1346 866 l 1,77,78
 1283.09375 862.1875 1283.09375 862.1875 1261 818 c 1,79,-1
 1228 834 l 1,80,81
 1236 851 1236 851 1236 873 c 128,-1,82
 1236 895 1236 895 1202 940.5 c 128,-1,83
 1168 986 1168 986 1108.5 1009.5 c 128,-1,84
 1049 1033 1049 1033 951.5 1033 c 128,-1,85
 854 1033 854 1033 793 1005 c 128,-1,86
 732 977 732 977 696.5 927.5 c 0,87,88
 626 829.197183099 626 829.197183099 626 666.098591549 c 128,-1,89
 626 503 626 503 730.5 397.5 c 128,-1,90
 835 292 835 292 1004 292 c 128,-1,91
 1173 292 1173 292 1261 314 c 0,92,93
 1277 318 1277 318 1292 318 c 128,-1,94
 1307 318 1307 318 1338 294 c 1,95,-1
 1350 310 l 1,0,1
EndSplineSet
EndChar

StartChar: H
Encoding: 72 72 23
Width: 1960
VWidth: 1658
Flags: HW
HStem: -39 21G<1226 1260 1785 1819> 39 1293<224.658 517.433> 498 341<671.317 1278.68>
VStem: 103 123<-518.274 -222.941> 168 529<824.425 1197.52> 168 514<974.429 1330.76> 168 19<-171.313 -43.8092> 586 112<-788.15 -253.115> 626 26<-354.143 -111.542> 1257 523<0.215393 514.684 824.521 1198.62> 1273 507<977.429 1331.06>
LayerCount: 2
Fore
SplineSet
1257 974 m 1,0,-1
 1273 1202 l 1,1,2
 1273 1304 1273 1304 1226 1351 c 1,3,-1
 1246 1372 l 1,4,5
 1287 1332 1287 1332 1346 1332 c 2,6,-1
 1699 1332 l 2,7,8
 1759 1332 1759 1332 1799 1372 c 1,9,-1
 1819 1351 l 1,10,11
 1780 1312 1780 1312 1780 1251 c 2,12,-1
 1780 81 l 2,13,14
 1780 21 1780 21 1819 -19 c 1,15,-1
 1799 -39 l 1,16,17
 1760 0 1760 0 1699 0 c 2,18,-1
 1346 0 l 2,19,20
 1285 0 1285 0 1246 -39 c 1,21,-1
 1226 -19 l 1,22,23
 1264 19 1264 19 1264 81 c 2,24,-1
 1262 417 l 2,25,26
 1262 477 1262 477 1300 516 c 1,27,-1
 1280 536 l 1,28,29
 1242 498 1242 498 1180 498 c 2,30,-1
 770 498 l 2,31,32
 709 498 709 498 670 536 c 1,33,-1
 650 516 l 1,34,35
 652 493 652 493 652 274 c 2,36,-1
 652 -177 l 2,37,38
 652 -268 652 -268 675 -435 c 128,-1,39
 698 -602 698 -602 698 -671 c 128,-1,40
 698 -740 698 -740 681.5 -765 c 128,-1,41
 665 -790 665 -790 642 -790 c 128,-1,42
 619 -790 619 -790 602.5 -765.5 c 128,-1,43
 586 -741 586 -741 586 -715.5 c 128,-1,44
 586 -690 586 -690 596 -597.5 c 0,45,46
 626 -320 626 -320 626 -180 c 0,47,48
 626 -111 626 -111 583.5 -59.5 c 0,49,50
 502.213592233 39 502.213592233 39 359 39 c 0,51,52
 286 39 286 39 236.5 5 c 128,-1,53
 187 -29 187 -29 187 -89.5 c 128,-1,54
 187 -150 187 -150 206.5 -267 c 128,-1,55
 226 -384 226 -384 226 -429 c 0,56,57
 226 -522 226 -522 168 -522 c 0,58,59
 141 -522 141 -522 122 -501.5 c 128,-1,60
 103 -481 103 -481 103 -434.5 c 128,-1,61
 103 -388 103 -388 135.5 -268 c 128,-1,62
 168 -148 168 -148 168 -81 c 2,63,-1
 168 1251 l 2,64,65
 168 1314 168 1314 130 1351 c 1,66,-1
 149 1372 l 1,67,68
 190 1332 190 1332 249 1332 c 2,69,-1
 608 1332 l 2,70,71
 667 1332 667 1332 707 1372 c 1,72,-1
 728 1351 l 1,73,74
 682 1305 682 1305 682 1201 c 1,75,-1
 697 971 l 1,76,77
 697 868 697 868 650 821 c 1,78,-1
 670 800 l 1,79,80
 709 839 709 839 770 839 c 2,81,-1
 1184 839 l 2,82,83
 1245 839 1245 839 1283 800 c 1,84,-1
 1304 821 l 1,85,86
 1257 869 1257 869 1257 974 c 1,0,-1
EndSplineSet
EndChar

StartChar: I
Encoding: 73 73 24
Width: 882
VWidth: 1658
Flags: HW
HStem: 50 1282<302.797 576.477>
VStem: 139 102<-496.565 -201.606> 170 41<-331.441 -93.5184> 177 524<51.7026 1330.64> 638 81<-634.295 -298.988> 649 34<-295 -85.0665>
LayerCount: 2
Fore
SplineSet
638 -539 m 1,0,-1
 649 -273 l 1,1,2
 649 -144.083333333 649 -144.083333333 639.5 -110.041666667 c 128,-1,3
 630 -76 630 -76 620 -50 c 128,-1,4
 610 -24 610 -24 594 -8 c 128,-1,5
 578 8 578 8 556 22.5 c 0,6,7
 514.275862069 50 514.275862069 50 424.137931034 50 c 128,-1,8
 334 50 334 50 272.5 -23 c 128,-1,9
 211 -96 211 -96 211 -198 c 0,10,11
 211 -236 211 -236 226 -311.5 c 128,-1,12
 241 -387 241 -387 241 -425 c 0,13,14
 241 -497 241 -497 190 -497 c 128,-1,15
 139 -497 139 -497 139 -427 c 0,16,17
 139 -388 139 -388 154.5 -310 c 128,-1,18
 170 -232 170 -232 170 -192 c 1,19,-1
 177 76 l 1,20,-1
 177 1251 l 2,21,22
 177 1313 177 1313 138 1351 c 1,23,-1
 158 1372 l 1,24,25
 200 1332 200 1332 258 1332 c 2,26,-1
 620 1332 l 2,27,28
 680 1332 680 1332 720 1372 c 1,29,-1
 740 1351 l 1,30,31
 701 1312 701 1312 701 1251 c 2,32,-1
 701 81 l 2,33,34
 701 29 701 29 690 -98.5 c 128,-1,35
 679 -226 679 -226 683 -295 c 1,36,-1
 682 -295 l 1,37,38
 719 -461 719 -461 719 -548 c 128,-1,39
 719 -635 719 -635 686 -635 c 0,40,41
 638 -635 638 -635 638 -539 c 1,0,-1
EndSplineSet
EndChar

StartChar: J
Encoding: 74 74 29
Width: 1650
VWidth: 1658
Flags: HW
LayerCount: 2
Fore
SplineSet
690 -130 m 1,0,-1
 710 -288 l 1,1,2
 710 -312 710 -312 701.5 -338 c 128,-1,3
 693 -364 693 -364 674 -364 c 0,4,5
 644 -364 644 -364 644 -290 c 0,6,7
 644 -259 644 -259 658 -198.5 c 128,-1,8
 672 -138 672 -138 672 -105.5 c 0,9,10
 672 -43.5294117647 672 -43.5294117647 608 -36 c 1,11,12
 354.42208027 1.64047245993 354.42208027 1.64047245993 233.5 91.5 c 0,13,14
 119.583393156 176.153625269 119.583393156 176.153625269 92 278 c 0,15,16
 64.0870032223 381.063372718 64.0870032223 381.063372718 62.5435016112 442.031686359 c 0,17,18
 59.7280163599 553.243353783 59.7280163599 553.243353783 22 587 c 1,19,-1
 31 597 l 1,20,21
 60 570 60 570 83 570 c 0,22,23
 171.448275862 570 171.448275862 570 302.724137931 593.5 c 128,-1,24
 434 617 434 617 483.5 622.5 c 128,-1,25
 533 628 533 628 569 673 c 1,26,-1
 591 656 l 1,27,28
 559 616 559 616 559 565 c 128,-1,29
 559 514 559 514 569.5 468.5 c 128,-1,30
 580 423 580 423 602.5 383.5 c 0,31,32
 651.772151899 297 651.772151899 297 760.386075949 297 c 128,-1,33
 869 297 869 297 926 360 c 128,-1,34
 983 423 983 423 983 532 c 2,35,-1
 984 1251 l 2,36,37
 984 1314 984 1314 946 1351 c 1,38,-1
 966 1372 l 1,39,40
 1006 1332 1006 1332 1066 1332 c 2,41,-1
 1414 1332 l 2,42,43
 1475 1332 1475 1332 1514 1372 c 1,44,-1
 1534 1351 l 1,45,46
 1495 1313 1495 1313 1495 1251 c 2,47,-1
 1495 473 l 2,48,49
 1495 146 1495 146 1196 22 c 1,50,-1
 1195 22 l 1,51,-1
 1195 -195 l 2,52,53
 1195 -230 1195 -230 1211.5 -298 c 128,-1,54
 1228 -366 1228 -366 1228 -400 c 0,55,56
 1228 -454 1228 -454 1185 -454 c 0,57,58
 1148 -454 1148 -454 1148 -412.5 c 128,-1,59
 1148 -371 1148 -371 1161 -309 c 128,-1,60
 1174 -247 1174 -247 1174 -203 c 128,-1,61
 1174 -159 1174 -159 1132 -114.5 c 0,62,63
 1051.30337079 -29 1051.30337079 -29 922 -29 c 0,64,65
 887 -29 887 -29 868.5 -54.5 c 128,-1,66
 850 -80 850 -80 850 -122 c 128,-1,67
 850 -164 850 -164 868 -254.5 c 128,-1,68
 886 -345 886 -345 886 -379.5 c 0,69,70
 886 -457 886 -457 846 -457 c 0,71,72
 824 -457 824 -457 814 -433.5 c 128,-1,73
 804 -410 804 -410 804 -385 c 1,74,-1
 828 -95 l 1,75,76
 828 -62 828 -62 798 -41.5 c 128,-1,77
 768 -21 768 -21 734 -21 c 0,78,79
 690 -21 690 -21 690 -130 c 1,0,-1
1192 -814 m 128,-1,81
 1167 -814 1167 -814 1167 -778 c 0,82,83
 1167 -694 1167 -694 1192 -587 c 1,84,85
 1217 -692 1217 -692 1217 -777 c 0,86,80
 1217 -814 1217 -814 1192 -814 c 128,-1,81
EndSplineSet
EndChar

StartChar: K
Encoding: 75 75 30
Width: 1978
VWidth: 1658
Flags: HW
LayerCount: 2
Fore
SplineSet
651 376 m 1,0,1
 696 353.5 696 353.5 696 294 c 2,2,-1
 696 81 l 2,3,4
 696 20 696 20 735 -19 c 1,5,-1
 715 -39 l 1,6,7
 676 0 676 0 615 0 c 2,8,-1
 268 0 l 2,9,10
 207 0 207 0 168 -39 c 1,11,-1
 148 -19 l 1,12,13
 187 20 187 20 187 81 c 2,14,-1
 187 1251 l 2,15,16
 187 1312 187 1312 148 1351 c 1,17,-1
 168 1372 l 1,18,19
 208 1332 208 1332 268 1332 c 2,20,-1
 615 1332 l 2,21,22
 675 1332 675 1332 715 1372 c 1,23,-1
 735 1351 l 1,24,25
 696 1312 696 1312 696 1251 c 2,26,-1
 696 940 l 2,27,28
 696 880 696 880 672 825 c 1,29,-1
 687 819 l 1,30,31
 710 873 710 873 754 915 c 2,32,-1
 1131 1276 l 2,33,34
 1154 1298 1154 1298 1159.5 1316 c 128,-1,35
 1165 1334 1165 1334 1156 1364 c 1,36,-1
 1191 1377 l 1,37,38
 1210.03846154 1332 1210.03846154 1332 1270 1332 c 2,39,-1
 1772 1332 l 2,40,41
 1828 1332 1828 1332 1888 1354 c 1,42,-1
 1893 1340 l 1,43,44
 1837 1319 1837 1319 1792 1279 c 2,45,-1
 1386 926 l 1,46,47
 1342 886 1342 886 1287 893 c 1,48,-1
 1283 862 l 1,49,50
 1337 857 1337 857 1371 806 c 1,51,-1
 1889 67 l 2,52,53
 1923 17 1923 17 1975 -11 c 1,54,-1
 1966 -27 l 1,55,56
 1915 0 1915 0 1854 0 c 2,57,-1
 1371 0 l 2,58,59
 1311.23076923 0 1311.23076923 0 1287 -45 c 1,60,-1
 1255 -28 l 1,61,62
 1269 1 1269 1 1266 20.5 c 128,-1,63
 1263 40 1263 40 1245 68 c 2,64,-1
 959 490 l 1,65,66
 926 541 926 541 933 596 c 1,67,-1
 906 599 l 1,68,69
 899 545 899 545 851 506 c 1,70,-1
 759 427 l 1,71,72
 733 406 733 406 714.5 402 c 128,-1,73
 696 398 696 398 667 409 c 1,74,-1
 651 376 l 1,0,1
EndSplineSet
EndChar

StartChar: L
Encoding: 76 76 31
Width: 1672
VWidth: 1658
Flags: HW
HStem: -39 21G<1578.5 1613> 0 357<680.822 1147 1201 1363.13> 0 333<902.87 1147 1201 1567.85>
VStem: 118 123<-694.577 -305.04> 172 519<328.316 1330.76> 172 21<-310.531 -124.094> 1140 68<-484.98 -265.541 -92.9825 0>
LayerCount: 2
Fore
SplineSet
1573 264 m 1,0,-1
 1569 134 l 1,1,2
 1569 25 1569 25 1613 -19 c 1,3,-1
 1592 -39 l 1,4,5
 1554 0 1554 0 1492 0 c 2,6,-1
 1201 0 l 1,7,8
 1202 -14 1202 -14 1202 -37 c 0,9,10
 1202 -93 1202 -93 1174 -93 c 128,-1,11
 1146 -93 1146 -93 1146 -30 c 0,12,13
 1146 -11 1146 -11 1147 0 c 1,14,-1
 252 0 l 2,15,16
 228 0 228 0 210.5 -86.5 c 128,-1,17
 193 -173 193 -173 193 -225 c 128,-1,18
 193 -277 193 -277 217 -411.5 c 128,-1,19
 241 -546 241 -546 241 -621.5 c 128,-1,20
 241 -697 241 -697 182 -697 c 0,21,22
 118 -697 118 -697 118 -619 c 128,-1,23
 118 -541 118 -541 145 -402.5 c 128,-1,24
 172 -264 172 -264 172 -194 c 2,25,-1
 171 1251 l 2,26,27
 171 1312 171 1312 131 1351 c 1,28,-1
 152 1372 l 1,29,30
 193 1332 193 1332 252 1332 c 2,31,-1
 610 1332 l 2,32,33
 671 1332 671 1332 710 1372 c 1,34,-1
 731 1351 l 1,35,36
 691 1312 691 1312 691 1251 c 2,37,-1
 691 426 l 2,38,39
 691 366 691 366 652 327 c 1,40,-1
 673 306 l 1,41,42
 724 357 724 357 896 357 c 1,43,-1
 1370 333 l 1,44,45
 1541 333 1541 333 1592 384 c 1,46,-1
 1613 364 l 1,47,48
 1573 325 1573 325 1573 264 c 1,0,-1
1174 -485 m 128,-1,50
 1140 -485 1140 -485 1140 -436 c 0,51,52
 1140 -392.666666667 1140 -392.666666667 1156.5 -330.333333333 c 128,-1,53
 1173 -268 1173 -268 1174 -263 c 1,54,55
 1176 -273 1176 -273 1184 -304 c 128,-1,56
 1192 -335 1192 -335 1196 -352 c 0,57,58
 1208 -403 1208 -403 1208 -444 c 128,-1,49
 1208 -485 1208 -485 1174 -485 c 128,-1,50
EndSplineSet
EndChar

StartChar: M
Encoding: 77 77 32
Width: 2417
VWidth: 1658
Flags: HW
LayerCount: 2
Fore
SplineSet
1730 -194 m 1,0,-1
 1744 -83 l 1,1,-1
 1742 81 l 1,2,-1
 1742 856 l 2,3,4
 1742 918 1742 918 1786 977 c 1,5,-1
 1731 977 l 1,6,7
 1702.13216058 834.465042851 1702.13216058 834.465042851 1551 469 c 0,8,9
 1408 123.2 1408 123.2 1408 29 c 2,10,-1
 1410 -191 l 2,11,12
 1410 -227 1410 -227 1426.5 -298.5 c 128,-1,13
 1443 -370 1443 -370 1443 -407 c 0,14,15
 1443 -464 1443 -464 1399 -464 c 128,-1,16
 1355 -464 1355 -464 1355 -406 c 0,17,18
 1355 -368 1355 -368 1373 -293.5 c 128,-1,19
 1391 -219 1391 -219 1391 -181 c 0,20,21
 1391 -61 1391 -61 1331.5 -2.5 c 128,-1,22
 1272 56 1272 56 1199.5 56 c 128,-1,23
 1127 56 1127 56 1080 25 c 128,-1,24
 1033 -6 1033 -6 1033 -52 c 1,25,-1
 1045 -161 l 1,26,27
 1045 -198 1045 -198 1018 -198 c 128,-1,28
 991 -198 991 -198 991 -158 c 1,29,-1
 1009 29 l 1,30,31
 1009 124.827272727 1009 124.827272727 865 466.5 c 0,32,33
 714.575263663 823.416874401 714.575263663 823.416874401 687 976 c 1,34,-1
 632 976 l 1,35,36
 674 920 674 920 674 856 c 2,37,-1
 674 -132 l 1,38,-1
 694 -300 l 1,39,40
 694 -353 694 -353 658 -353 c 128,-1,41
 622 -353 622 -353 622 -302 c 1,42,-1
 644 -138 l 1,43,44
 644 -100 644 -100 629 -83 c 0,45,46
 596.352941176 -46 596.352941176 -46 404.176470588 -46 c 128,-1,47
 212 -46 212 -46 212 -48 c 2,48,-1
 217 -180 l 2,49,50
 217 -203 217 -203 194 -203 c 128,-1,51
 171 -203 171 -203 171 -182 c 2,52,-1
 177 -43 l 1,53,-1
 177 1186 l 2,54,55
 177 1304 177 1304 105 1383 c 1,56,-1
 126 1404 l 1,57,58
 208 1332 208 1332 323 1332 c 2,59,-1
 834 1332 l 2,60,61
 965 1332 965 1332 1022 1408 c 1,62,-1
 1048 1389 l 1,63,64
 997 1315 997 1315 997 1252.5 c 128,-1,65
 997 1190 997 1190 1029 1114.5 c 128,-1,66
 1061 1039 1061 1039 1099 971 c 0,67,68
 1202 786.684210526 1202 786.684210526 1202 670 c 1,69,-1
 1216 670 l 1,70,71
 1216 791.157894737 1216 791.157894737 1318 971 c 0,72,73
 1419 1149.07894737 1419 1149.07894737 1419 1232.53947368 c 128,-1,74
 1419 1316 1419 1316 1369 1389 c 1,75,-1
 1395 1408 l 1,76,77
 1452 1332 1452 1332 1583 1332 c 2,78,-1
 2095 1332 l 2,79,80
 2211 1332 2211 1332 2292 1404 c 1,81,-1
 2312 1383 l 1,82,83
 2241 1303 2241 1303 2241 1186 c 2,84,-1
 2241 81 l 2,85,86
 2241 35 2241 35 2239 -19 c 1,87,-1
 2219 -39 l 1,88,89
 2199 0 2199 0 2160 0 c 2,90,-1
 1823 0 l 2,91,92
 1801 0 1801 0 1783 -27 c 128,-1,93
 1765 -54 1765 -54 1765 -77 c 1,94,-1
 1782 -201 l 1,95,96
 1782 -237 1782 -237 1756 -237 c 128,-1,97
 1730 -237 1730 -237 1730 -194 c 1,0,-1
EndSplineSet
EndChar

StartChar: N
Encoding: 78 78 33
Width: 2009
VWidth: 1658
Flags: HW
LayerCount: 2
Fore
SplineSet
537 -310 m 1,0,-1
 561 -39 l 1,1,2
 561 -7 561 -7 525 13.5 c 0,3,4
 466.170731707 47 466.170731707 47 381 47 c 0,5,6
 266.666666667 47 266.666666667 47 223.5 1.5 c 0,7,8
 205 -18 205 -18 205 -56.5 c 128,-1,9
 205 -95 205 -95 228 -191 c 128,-1,10
 251 -287 251 -287 251 -326.5 c 128,-1,11
 251 -366 251 -366 236.5 -389.5 c 128,-1,12
 222 -413 222 -413 194 -413 c 128,-1,13
 166 -413 166 -413 151 -389.5 c 128,-1,14
 136 -366 136 -366 136 -326 c 128,-1,15
 136 -286 136 -286 160.5 -188 c 128,-1,16
 185 -90 185 -90 185 -40 c 2,17,-1
 184 1186 l 2,18,19
 184 1304 184 1304 112 1383 c 1,20,-1
 133 1404 l 1,21,22
 214 1332 214 1332 330 1332 c 2,23,-1
 629 1332 l 2,24,25
 693 1332 693 1332 737.5 1347.5 c 128,-1,26
 782 1363 782 1363 809 1409 c 1,27,-1
 842 1393 l 1,28,29
 816 1331 816 1331 816 1276 c 0,30,31
 816 1231.33333333 816 1231.33333333 973.5 1050.5 c 0,32,33
 1179.81818182 813.616161616 1179.81818182 813.616161616 1238.90909091 732.808080808 c 128,-1,34
 1298 652 1298 652 1316 602 c 1,35,-1
 1376 602 l 1,36,37
 1327 674 1327 674 1327 805 c 0,38,39
 1327 866 1327 866 1342 987.5 c 128,-1,40
 1357 1109 1357 1109 1357 1170 c 0,41,42
 1357 1334 1357 1334 1253 1383 c 1,43,-1
 1274 1404 l 1,44,45
 1355 1332 1355 1332 1471 1332 c 2,46,-1
 1676 1332 l 2,47,48
 1792 1332 1792 1332 1873 1404 c 1,49,-1
 1893 1383 l 1,50,51
 1822 1303 1822 1303 1822 1186 c 2,52,-1
 1820 -35 l 2,53,54
 1820 -78 1820 -78 1840 -163.5 c 128,-1,55
 1860 -249 1860 -249 1860 -292 c 0,56,57
 1860 -356 1860 -356 1811 -356 c 128,-1,58
 1762 -356 1762 -356 1762 -292 c 0,59,60
 1762 -250 1762 -250 1781 -168.5 c 128,-1,61
 1800 -87 1800 -87 1800 -56.5 c 128,-1,62
 1800 -26 1800 -26 1780 -13 c 128,-1,63
 1760 0 1760 0 1741 0 c 2,64,-1
 1346 0 l 2,65,66
 1262 0 1262 0 1262 -153 c 0,67,68
 1262 -216 1262 -216 1285.5 -335.5 c 128,-1,69
 1309 -455 1309 -455 1309 -516 c 0,70,71
 1309 -603 1309 -603 1244 -603 c 128,-1,72
 1179 -603 1179 -603 1179 -515 c 0,73,74
 1179 -459 1179 -459 1204.5 -352 c 128,-1,75
 1230 -245 1230 -245 1231 -191 c 2,76,-1
 1233 -58 l 1,77,78
 1236 35 1236 35 1214 63 c 2,79,-1
 735 670 l 2,80,81
 716 695 716 695 693 774 c 1,82,-1
 632 772 l 1,83,84
 684 718 684 718 684 652 c 2,85,-1
 684 81 l 1,86,-1
 703 -425 l 2,87,88
 703 -441 703 -441 693.5 -452.5 c 128,-1,89
 684 -464 684 -464 667.5 -464 c 128,-1,90
 651 -464 651 -464 640 -450.5 c 128,-1,91
 629 -437 629 -437 629 -420 c 2,92,-1
 641 -36 l 2,93,94
 641 -24 641 -24 632 -14 c 128,-1,95
 623 -4 623 -4 611 -4 c 0,96,97
 585 -4 585 -4 585 -44 c 128,-1,98
 585 -84 585 -84 598.5 -175 c 128,-1,99
 612 -266 612 -266 612 -300.5 c 0,100,101
 612 -376 612 -376 574.5 -376 c 128,-1,102
 537 -376 537 -376 537 -310 c 1,0,-1
EndSplineSet
EndChar

StartChar: tilde
Encoding: 732 732 35
Width: 1355
VWidth: 1658
Flags: HW
LayerCount: 2
Fore
SplineSet
518 1195 m 0,0,1
 474 1195 474 1195 474 1094 c 1,2,-1
 127 1097 l 1,3,4
 124 1126 124 1126 124 1206 c 128,-1,5
 124 1286 124 1286 147.5 1361 c 128,-1,6
 171 1436 171 1436 215 1477 c 0,7,8
 297.634146341 1554 297.634146341 1554 434 1554 c 0,9,10
 562.636363636 1554 562.636363636 1554 690.5 1496 c 128,-1,11
 818.363636364 1438 818.363636364 1438 858 1438 c 0,12,13
 912 1438 912 1438 912 1528 c 1,14,-1
 1259 1526 l 1,15,16
 1261 1476 1261 1476 1261 1411 c 128,-1,17
 1261 1346 1261 1346 1240.5 1269.5 c 128,-1,18
 1220 1193 1220 1193 1181.5 1151 c 0,19,20
 1110 1073 1110 1073 985 1073 c 0,21,22
 814.434782609 1073 814.434782609 1073 680.5 1134 c 128,-1,23
 546.565217391 1195 546.565217391 1195 518 1195 c 0,0,1
EndSplineSet
EndChar

StartChar: O
Encoding: 79 79 36
Width: 1986
VWidth: 1658
Flags: HW
LayerCount: 2
Fore
SplineSet
1011 -162 m 1,0,-1
 1018 -66 l 1,1,2
 1018 -41 1018 -41 994 -27.5 c 128,-1,3
 970 -14 970 -14 942 -14 c 128,-1,4
 914 -14 914 -14 892 -29 c 128,-1,5
 870 -44 870 -44 870 -72 c 2,6,-1
 870 -302 l 2,7,8
 870 -352 870 -352 891 -449 c 128,-1,9
 912 -546 912 -546 912 -587.5 c 128,-1,10
 912 -629 912 -629 894 -656 c 128,-1,11
 876 -683 876 -683 844.5 -683 c 128,-1,12
 813 -683 813 -683 797 -655 c 128,-1,13
 781 -627 781 -627 781 -582 c 128,-1,14
 781 -537 781 -537 804 -426 c 128,-1,15
 827 -315 827 -315 827 -254 c 0,16,17
 827 -7 827 -7 735 -7 c 0,18,19
 611 -7 611 -7 611 3 c 2,20,-1
 611 1 l 2,21,22
 611 -68 611 -68 641.5 -201.5 c 128,-1,23
 672 -335 672 -335 672 -393 c 128,-1,24
 672 -451 672 -451 651 -488.5 c 128,-1,25
 630 -526 630 -526 586.5 -526 c 128,-1,26
 543 -526 543 -526 518.5 -490 c 128,-1,27
 494 -454 494 -454 494 -396.5 c 128,-1,28
 494 -339 494 -339 523 -199.5 c 128,-1,29
 552 -60 552 -60 552 12 c 1,30,31
 315 87 315 87 195.5 257 c 128,-1,32
 76 427 76 427 76 677 c 0,33,34
 76 1194.82608696 76 1194.82608696 598 1331 c 0,35,36
 766.666666667 1375 766.666666667 1375 947.333333333 1375 c 128,-1,37
 1128 1375 1128 1375 1254.5 1355 c 128,-1,38
 1381 1335 1381 1335 1499.5 1284.5 c 128,-1,39
 1618 1234 1618 1234 1701.5 1156.5 c 128,-1,40
 1785 1079 1785 1079 1835 956.5 c 128,-1,41
 1885 834 1885 834 1885 677 c 0,42,43
 1885 357 1885 357 1705 181.5 c 128,-1,44
 1525 6 1525 6 1199 -34 c 1,45,46
 1195 -41 1195 -41 1195 -56 c 1,47,-1
 1200 -111 l 1,48,49
 1200 -162 1200 -162 1172 -162 c 128,-1,50
 1144 -162 1144 -162 1144 -113 c 1,51,-1
 1147 -57 l 1,52,53
 1147 -27 1147 -27 1104 -27 c 1,54,55
 1100 -36 1100 -36 1100 -61 c 1,56,-1
 1105 -158 l 1,57,58
 1105 -188 1105 -188 1094 -216 c 128,-1,59
 1083 -244 1083 -244 1057 -244 c 0,60,61
 1011 -244 1011 -244 1011 -162 c 1,0,-1
633 676 m 0,62,63
 633 310 633 310 981 310 c 128,-1,64
 1329 310 1329 310 1329 676 c 0,65,66
 1329 844 1329 844 1239 933 c 128,-1,67
 1149 1022 1149 1022 981 1022 c 128,-1,68
 813 1022 813 1022 723 933 c 128,-1,69
 633 844 633 844 633 676 c 0,62,63
EndSplineSet
EndChar

StartChar: OE
Encoding: 338 338 37
Width: 2748
VWidth: 1658
Flags: HW
LayerCount: 2
Fore
SplineSet
100.5 499.5 m 0,0,1
 82 582 82 582 82 700 c 128,-1,2
 82 818 82 818 126.5 929 c 128,-1,3
 171 1040 171 1040 250 1115.5 c 128,-1,4
 329 1191 329 1191 443 1240.5 c 0,5,6
 656.03030303 1333 656.03030303 1333 986 1333 c 2,7,-1
 2482 1332 l 2,8,9
 2542 1332 2542 1332 2581 1371 c 1,10,-1
 2602 1350 l 1,11,12
 2563 1311 2563 1311 2563 1251 c 2,13,-1
 2563 1076 l 2,14,15
 2563 1015 2563 1015 2602 976 c 1,16,-1
 2581 957 l 1,17,18
 2543 995 2543 995 2482 995 c 2,19,-1
 1835 995 l 2,20,21
 1775 995 1775 995 1736 1034 c 1,22,-1
 1715 1014 l 1,23,24
 1754 975 1754 975 1754 916 c 2,25,-1
 1754 914 l 2,26,27
 1754 854 1754 854 1715 815 c 1,28,-1
 1736 796 l 1,29,30
 1774 834 1774 834 1835 834 c 2,31,-1
 2343 834 l 2,32,33
 2404 834 2404 834 2443 873 c 1,34,-1
 2462 853 l 1,35,36
 2424 815 2424 815 2424 753 c 2,37,-1
 2424 579 l 2,38,39
 2424 517 2424 517 2462 479 c 1,40,-1
 2443 458 l 1,41,42
 2403 498 2403 498 2343 498 c 2,43,-1
 1833 498 l 2,44,45
 1774 498 1774 498 1736 536 c 1,46,-1
 1716 516 l 1,47,48
 1754 478 1754 478 1754 418.5 c 128,-1,49
 1754 359 1754 359 1715 320 c 1,50,-1
 1736 301 l 1,51,52
 1773 338 1773 338 1833 338 c 2,53,-1
 2528 337 l 2,54,55
 2589 337 2589 337 2628 376 c 1,56,-1
 2648 356 l 1,57,58
 2609 317 2609 317 2609 256 c 2,59,-1
 2609 83 l 2,60,61
 2609 22 2609 22 2648 -17 c 1,62,-1
 2628 -37 l 1,63,64
 2589 2 2589 2 2528 2 c 2,65,-1
 986 -1 l 1,66,67
 212.733333333 -1 212.733333333 -1 100.5 499.5 c 0,0,1
986 310 m 1,68,-1
 1155 311 l 1,69,70
 1216 313 1216 313 1255 274 c 1,71,-1
 1276 294 l 1,72,73
 1237 333 1237 333 1237 393 c 2,74,-1
 1237 940 l 2,75,76
 1237 1001 1237 1001 1276 1040 c 1,77,-1
 1255 1060 l 1,78,79
 1217 1022 1217 1022 1155 1022 c 0,80,81
 1070.5 1022 1070.5 1022 986 1022 c 0,82,83
 823 1022 823 1022 730.5 936 c 128,-1,84
 638 850 638 850 638 676 c 0,85,86
 638 310 638 310 986 310 c 1,68,-1
EndSplineSet
EndChar

StartChar: P
Encoding: 80 80 43
Width: 1901
VWidth: 1658
Flags: HW
LayerCount: 2
Fore
SplineSet
178 -122 m 2,0,-1
 176 81 l 1,1,-1
 176 1255 l 2,2,3
 176 1316 176 1316 138 1354 c 1,4,-1
 158 1374 l 1,5,6
 196 1336 196 1336 257 1336 c 2,7,-1
 1120 1336 l 2,8,9
 1326.57142857 1336 1326.57142857 1336 1400.28571429 1324 c 128,-1,10
 1474 1312 1474 1312 1529 1297.5 c 128,-1,11
 1584 1283 1584 1283 1621 1263 c 128,-1,12
 1658 1243 1658 1243 1697 1212 c 128,-1,13
 1736 1181 1736 1181 1759 1142 c 0,14,15
 1812 1052.13043478 1812 1052.13043478 1812 940.565217391 c 128,-1,16
 1812 829 1812 829 1787.5 750.5 c 128,-1,17
 1763 672 1763 672 1709 609.5 c 0,18,19
 1597.112 480 1597.112 480 1328 480 c 2,20,-1
 777 480 l 2,21,22
 715 480 715 480 677 518 c 1,23,-1
 656 499 l 1,24,25
 696 459 696 459 696 399 c 2,26,-1
 696 81 l 2,27,28
 696 4 696 4 694 -108 c 1,29,-1
 649 -112 l 1,30,31
 636 0 636 0 615 0 c 2,32,-1
 257 0 l 2,33,34
 245.242857143 0 245.242857143 0 237.621428571 -48.5 c 128,-1,35
 230 -97 230 -97 230 -141.5 c 128,-1,36
 230 -186 230 -186 249 -293 c 128,-1,37
 268 -400 268 -400 268 -443 c 0,38,39
 268 -535 268 -535 201 -535 c 128,-1,40
 134 -535 134 -535 134 -441 c 0,41,42
 134 -396 134 -396 156 -282 c 128,-1,43
 178 -168 178 -168 178 -122 c 2,0,-1
696 921 m 2,44,-1
 696 862 l 2,45,46
 696 803 696 803 656 763 c 1,47,-1
 677 742 l 1,48,49
 716 781 716 781 777 781 c 2,50,-1
 1101 781 l 2,51,52
 1202.13333333 781 1202.13333333 781 1222.06666667 792.5 c 128,-1,53
 1242 804 1242 804 1255.5 816 c 0,54,55
 1280 837.777777778 1280 837.777777778 1280 878.888888889 c 128,-1,56
 1280 920 1280 920 1271.5 939.5 c 128,-1,57
 1263 959 1263 959 1247 970 c 128,-1,58
 1231 981 1231 981 1215 988 c 128,-1,59
 1199 995 1199 995 1175.5 998 c 0,60,61
 1144.16666667 1002 1144.16666667 1002 1105 1002 c 2,62,-1
 777 1002 l 2,63,64
 715 1002 715 1002 677 1040 c 1,65,-1
 656 1021 l 1,66,67
 696 981 696 981 696 921 c 2,44,-1
456 -68 m 1,68,-1
 482 -305 l 1,69,70
 482 -366 482 -366 437.5 -366 c 128,-1,71
 393 -366 393 -366 393 -304 c 0,72,73
 393 -268 393 -268 411.5 -178.5 c 128,-1,74
 430 -89 430 -89 430 -61.5 c 128,-1,75
 430 -34 430 -34 429.5 9 c 128,-1,76
 429 52 429 52 429 81 c 1,77,-1
 474 28 l 1,78,79
 467.063829787 28 467.063829787 28 461.531914894 -4.5 c 128,-1,80
 456 -37 456 -37 456 -68 c 1,68,-1
EndSplineSet
EndChar

StartChar: Q
Encoding: 81 81 44
Width: 2032
VWidth: 1658
Flags: HW
LayerCount: 2
Fore
SplineSet
113.5 471 m 128,-1,1
 83 575 83 575 83 712.5 c 128,-1,2
 83 850 83 850 127.5 968.5 c 128,-1,3
 172 1087 172 1087 251 1167 c 128,-1,4
 330 1247 330 1247 444 1300 c 128,-1,5
 558 1353 558 1353 692.5 1376.5 c 128,-1,6
 827 1400 827 1400 987 1400 c 128,-1,7
 1147 1400 1147 1400 1281.5 1376.5 c 128,-1,8
 1416 1353 1416 1353 1530.5 1300 c 128,-1,9
 1645 1247 1645 1247 1724 1167 c 0,10,11
 1892 996.873417722 1892 996.873417722 1892 711.436708861 c 128,-1,12
 1892 426 1892 426 1748 270 c 0,13,14
 1705 224 1705 224 1652 219 c 1,15,-1
 1655 193 l 1,16,17
 1711 199 1711 199 1760 166 c 2,18,-1
 1887 80 l 1,19,20
 1940 46 1940 46 1994 50 c 1,21,-1
 1996 25 l 1,22,23
 1938 21 1938 21 1894 -19 c 1,24,-1
 1710 -177 l 1,25,26
 1664 -218 1664 -218 1668 -270 c 1,27,-1
 1636 -272 l 1,28,29
 1631 -219 1631 -219 1581 -187 c 2,30,-1
 1327 -22 l 2,31,32
 1299 -4 1299 -4 1289 13 c 128,-1,33
 1279 30 1279 30 1285 58 c 1,34,-1
 1248 67 l 1,35,36
 1242 39 1242 39 1225.5 27.5 c 128,-1,37
 1209 16 1209 16 1141 6 c 128,-1,38
 1073 -4 1073 -4 985 -4 c 128,-1,39
 897 -4 897 -4 816 3 c 128,-1,40
 735 10 735 10 641.5 30 c 128,-1,41
 548 50 548 50 470.5 82 c 128,-1,42
 393 114 393 114 319 169 c 128,-1,43
 245 224 245 224 194.5 295.5 c 128,-1,0
 144 367 144 367 113.5 471 c 128,-1,1
636 706 m 0,44,45
 636 342 636 342 988.5 342 c 128,-1,46
 1341 342 1341 342 1341 706 c 0,47,48
 1341 880 1341 880 1246.5 966.5 c 128,-1,49
 1152 1053 1152 1053 989 1053 c 128,-1,50
 826 1053 826 1053 731 966.5 c 128,-1,51
 636 880 636 880 636 706 c 0,44,45
EndSplineSet
EndChar

StartChar: R
Encoding: 82 82 45
Width: 2066
VWidth: 1658
Flags: HW
LayerCount: 2
Fore
SplineSet
1768 -328 m 1,0,-1
 1790 -121 l 1,1,2
 1790 5.36452762928 1790 5.36452762928 1687.29518291 71.554362938 c 128,-1,3
 1584.59036581 137.744198247 1584.59036581 137.744198247 1471.98174903 130.155239256 c 128,-1,4
 1359.37313225 122.566280265 1359.37313225 122.566280265 1313.70530167 54.4316748532 c 0,5,6
 1291 20.5562586072 1291 20.5562586072 1291 -24 c 2,7,-1
 1286 -292 l 1,8,9
 1286 -347 1286 -347 1303 -455.5 c 128,-1,10
 1320 -564 1320 -564 1320 -619 c 0,11,12
 1320 -716 1320 -716 1265 -716 c 128,-1,13
 1210 -716 1210 -716 1210 -622 c 0,14,15
 1210 -560 1210 -560 1228 -444 c 128,-1,16
 1246 -328 1246 -328 1248.5 -268 c 128,-1,17
 1251 -208 1251 -208 1251 -12 c 0,18,19
 1251 40 1251 40 1219 108 c 128,-1,20
 1187 176 1187 176 1118 295 c 128,-1,21
 1049 414 1049 414 1005 505 c 1,22,-1
 975 522 l 1,23,24
 951 478 951 478 890 478 c 1,25,-1
 806 475 l 1,26,27
 720 475 720 475 677 517 c 1,28,-1
 656 497 l 1,29,30
 659 460 659 460 659 339 c 2,31,-1
 658 94 l 2,32,33
 658 -16 658 -16 662 -68 c 1,34,-1
 681 -215 l 1,35,36
 681 -256 681 -256 653 -256 c 128,-1,37
 625 -256 625 -256 625 -218 c 1,38,-1
 641 -94 l 1,39,40
 641 -49 641 -49 614.5 -22.5 c 128,-1,41
 588 4 588 4 545.5 4 c 128,-1,42
 503 4 503 4 470.5 -33.5 c 128,-1,43
 438 -71 438 -71 438 -131 c 128,-1,44
 438 -191 438 -191 460 -293.5 c 128,-1,45
 482 -396 482 -396 482 -441 c 0,46,47
 482 -535 482 -535 415 -535 c 128,-1,48
 348 -535 348 -535 348 -443 c 0,49,50
 348 -400 348 -400 367.5 -293 c 128,-1,51
 387 -186 387 -186 387 -123 c 128,-1,52
 387 -60 387 -60 358 -19.5 c 128,-1,53
 329 21 329 21 292 21 c 128,-1,54
 255 21 255 21 229 -4.5 c 128,-1,55
 203 -30 203 -30 203 -68 c 1,56,-1
 230 -305 l 1,57,58
 230 -366 230 -366 185 -366 c 128,-1,59
 140 -366 140 -366 140 -304 c 0,60,61
 140 -268 140 -268 159 -178.5 c 128,-1,62
 178 -89 178 -89 177 -39 c 128,-1,63
 176 11 176 11 176 1255 c 0,64,65
 176 1317 176 1317 138 1354 c 1,66,-1
 158 1374 l 1,67,68
 197 1336 197 1336 257 1336 c 2,69,-1
 1153 1336 l 2,70,71
 1363 1336 1363 1336 1435.5 1323.5 c 128,-1,72
 1508 1311 1508 1311 1562.5 1297 c 128,-1,73
 1617 1283 1617 1283 1654.5 1262.5 c 128,-1,74
 1692 1242 1692 1242 1730.5 1211.5 c 128,-1,75
 1769 1181 1769 1181 1792.5 1141.5 c 0,76,77
 1845 1053.25531915 1845 1053.25531915 1845 953.127659574 c 128,-1,78
 1845 853 1845 853 1829.5 789.5 c 128,-1,79
 1814 726 1814 726 1777.5 669.5 c 0,80,81
 1699.65486726 549 1699.65486726 549 1504 549 c 1,82,-1
 1496 526 l 1,83,84
 1559.17647059 500.729411765 1559.17647059 500.729411765 1580 457 c 0,85,86
 1667.99123768 264.519167579 1667.99123768 264.519167579 1709.99561884 213.25958379 c 128,-1,87
 1752 162 1752 162 1788 131 c 128,-1,88
 1824 100 1824 100 1891 68 c 128,-1,89
 1958 36 1958 36 1972 26.5 c 128,-1,90
 1986 17 1986 17 1986 11 c 0,91,92
 1986 -89 1986 -89 2013 -246 c 128,-1,93
 2040 -403 2040 -403 2040 -448 c 128,-1,94
 2040 -493 2040 -493 2036.5 -513 c 128,-1,95
 2033 -533 2033 -533 2021 -552.5 c 128,-1,96
 2009 -572 2009 -572 1986 -572 c 128,-1,97
 1963 -572 1963 -572 1951.5 -539 c 128,-1,98
 1940 -506 1940 -506 1940 -458 c 128,-1,99
 1940 -410 1940 -410 1953 -286.5 c 128,-1,100
 1966 -163 1966 -163 1966 -100 c 0,101,102
 1966 25 1966 25 1885 25 c 0,103,104
 1845 25 1845 25 1825.5 11 c 128,-1,105
 1806 -3 1806 -3 1806 -46.5 c 128,-1,106
 1806 -90 1806 -90 1824 -185 c 128,-1,107
 1842 -280 1842 -280 1842 -328.5 c 128,-1,108
 1842 -377 1842 -377 1805 -377 c 128,-1,109
 1768 -377 1768 -377 1768 -328 c 1,0,-1
1102 1004 m 1,110,-1
 866 997 l 1,111,112
 721 997 721 997 677 1040 c 1,113,-1
 656 1021 l 1,114,115
 696 982 696 982 696 921 c 2,116,-1
 696 854 l 2,117,118
 696 794 696 794 656 754 c 1,119,-1
 677 734 l 1,120,121
 720 778 720 778 855 778 c 1,122,-1
 1108 769 l 1,123,124
 1209 769 1209 769 1264.5 795.5 c 128,-1,125
 1320 822 1320 822 1320 893 c 0,126,127
 1320 938 1320 938 1289 963.5 c 128,-1,128
 1258 989 1258 989 1214 996.5 c 128,-1,129
 1170 1004 1170 1004 1102 1004 c 1,110,-1
EndSplineSet
EndChar

StartChar: S
Encoding: 83 83 46
Width: 1887
VWidth: 1658
Flags: HW
LayerCount: 2
Fore
SplineSet
762 -292 m 1,0,-1
 772 -191 l 1,1,-1
 772 -4 l 1,2,3
 502.6 10.1789473684 502.6 10.1789473684 370 69.5 c 128,-1,4
 237.262259353 128.882673447 237.262259353 128.882673447 173.5 219 c 0,5,6
 136 272 136 272 115.5 337.5 c 128,-1,7
 95 403 95 403 48 436 c 1,8,-1
 63 457 l 1,9,10
 108 427 108 427 160.5 427 c 128,-1,11
 213 427 213 427 295 431 c 128,-1,12
 377 435 377 435 480 440.5 c 128,-1,13
 583 446 583 446 627 448 c 128,-1,14
 671 450 671 450 692 460.5 c 128,-1,15
 713 471 713 471 722 499 c 1,16,-1
 767 484 l 1,17,18
 764 476 764 476 764 463 c 0,19,20
 764 430 764 430 819 388 c 128,-1,21
 874 346 874 346 1018 346 c 0,22,23
 1114.8 346 1114.8 346 1155.5 379 c 0,24,25
 1174 394 1174 394 1174 415 c 0,26,27
 1174 464 1174 464 1120 480 c 128,-1,28
 1066 496 1066 496 989.5 507.5 c 128,-1,29
 913 519 913 519 836.5 526 c 128,-1,30
 760 533 760 533 671 546 c 128,-1,31
 582 559 582 559 503 574.5 c 128,-1,32
 424 590 424 590 349.5 620 c 128,-1,33
 275 650 275 650 222 690.5 c 128,-1,34
 169 731 169 731 136.5 794.5 c 128,-1,35
 104 858 104 858 104 939 c 128,-1,36
 104 1020 104 1020 129.5 1087 c 128,-1,37
 155 1154 155 1154 199 1202 c 128,-1,38
 243 1250 243 1250 305.5 1287 c 128,-1,39
 368 1324 368 1324 436.5 1347 c 128,-1,40
 505 1370 505 1370 585.5 1384.5 c 0,41,42
 727.068965517 1410 727.068965517 1410 852.034482759 1410 c 128,-1,43
 977 1410 977 1410 1042.5 1406.5 c 128,-1,44
 1108 1403 1108 1403 1196.5 1393.5 c 128,-1,45
 1285 1384 1285 1384 1356.5 1362.5 c 128,-1,46
 1428 1341 1428 1341 1498.5 1308 c 0,47,48
 1643.75339367 1240.00904977 1643.75339367 1240.00904977 1703 1097 c 1,49,50
 1727 1046 1727 1046 1769 1002 c 1,51,-1
 1756 979 l 1,52,53
 1714 1008 1714 1008 1659 1008 c 2,54,-1
 1646 1008 l 1,55,56
 1566 1005 1566 1005 1417.5 996.5 c 128,-1,57
 1269 988 1269 988 1226.5 986 c 128,-1,58
 1184 984 1184 984 1165.5 974 c 128,-1,59
 1147 964 1147 964 1139 936 c 1,60,-1
 1095 948 l 1,61,62
 1098 957 1098 957 1098 967 c 0,63,64
 1098 1009 1098 1009 1030 1039.5 c 128,-1,65
 962 1070 962 1070 876 1070 c 0,66,67
 708 1070 708 1070 708 1004 c 0,68,69
 708 944.974789916 708 944.974789916 959.5 917.5 c 0,70,71
 1019 911 1019 911 1093.5 903.5 c 0,72,73
 1354.64136044 877.210601298 1354.64136044 877.210601298 1494.16885834 833.148335185 c 0,74,75
 1786 740.9891435 1786 740.9891435 1786 482 c 0,76,77
 1786 376 1786 376 1742 291.5 c 128,-1,78
 1698 207 1698 207 1627.5 154 c 128,-1,79
 1557 101 1557 101 1461 66 c 0,80,81
 1288.2 3 1288.2 3 1066 3 c 0,82,83
 1006 3 1006 3 995 4 c 1,84,85
 941 4 941 4 941 -79 c 2,86,-1
 941 -103 l 2,87,88
 941 -130 941 -130 954.5 -182.5 c 128,-1,89
 968 -235 968 -235 968 -261 c 0,90,91
 968 -314 968 -314 931 -314 c 0,92,93
 912 -314 912 -314 901.5 -298 c 128,-1,94
 891 -282 891 -282 891 -258 c 128,-1,95
 891 -234 891 -234 903.5 -176.5 c 128,-1,96
 916 -119 916 -119 916 -93 c 128,-1,97
 916 -67 916 -67 915.5 -56.5 c 128,-1,98
 915 -46 915 -46 912.5 -30.5 c 128,-1,99
 910 -15 910 -15 904.5 -8 c 0,100,101
 890.357142857 10 890.357142857 10 855.678571429 10 c 0,102,103
 794 10 794 10 794 -98 c 1,104,-1
 800 -262 l 1,105,106
 800 -328 800 -328 781 -328 c 128,-1,107
 762 -328 762 -328 762 -292 c 1,0,-1
EndSplineSet
EndChar

StartChar: caron
Encoding: 711 711 48
Width: 1007
VWidth: 1658
Flags: HW
LayerCount: 2
Fore
SplineSet
414 1125 m 2,0,1
 351.36 1125 351.36 1125 329 1082 c 1,2,-1
 298 1098 l 1,3,4
 312 1127 312 1127 309 1146 c 128,-1,5
 306 1165 306 1165 288 1193 c 2,6,-1
 117 1453 l 2,7,8
 84 1503 84 1503 32 1531 c 1,9,-1
 41 1548 l 1,10,11
 91 1520 91 1520 154 1520 c 2,12,-1
 333 1520 l 2,13,14
 394 1520 394 1520 423 1563 c 1,15,-1
 450 1544 l 1,16,17
 422 1501 422 1501 443 1445 c 2,18,-1
 479 1351 l 2,19,20
 501 1293 501 1293 501 1235 c 1,21,-1
 516 1235 l 1,22,23
 516 1296 516 1296 537 1351 c 2,24,-1
 574 1445 l 2,25,26
 595 1501 595 1501 567 1544 c 1,27,-1
 594 1563 l 1,28,29
 623 1520 623 1520 684 1520 c 2,30,-1
 863 1520 l 2,31,32
 925 1520 925 1520 975 1548 c 1,33,-1
 985 1531 l 1,34,35
 933 1503 933 1503 900 1453 c 2,36,-1
 729 1193 l 2,37,38
 711 1165 711 1165 708 1146 c 128,-1,39
 705 1127 705 1127 719 1098 c 1,40,-1
 688 1082 l 1,41,42
 665.64 1125 665.64 1125 603 1125 c 2,43,-1
 414 1125 l 2,0,1
EndSplineSet
EndChar

StartChar: T
Encoding: 84 84 49
Width: 1667
VWidth: 1658
Flags: HW
HStem: 999 335<97.9579 582.347 1069.7 1562.45>
VStem: 532 79<-428.927 -193.952> 564 20<-243.771 -143.558> 921 82<-350.965 -95.1363> 928 50<-727.985 -508.078> 957 23<-164.726 -49.9844> 1041 82<-613.951 -122.776> 1068 18<-113.103 -32.2595>
LayerCount: 2
Fore
SplineSet
92 1073 m 1,0,-1
 97 1201 l 1,1,2
 97 1311 97 1311 54 1353 c 1,3,-1
 74 1373 l 1,4,5
 114 1334 114 1334 173 1334 c 2,6,-1
 1486 1334 l 2,7,8
 1547 1334 1547 1334 1586 1373 c 1,9,-1
 1606 1353 l 1,10,11
 1568 1315 1568 1315 1568 1253 c 1,12,-1
 1563 1125 l 1,13,14
 1563 1017 1563 1017 1606 974 c 1,15,-1
 1586 953 l 1,16,17
 1541 999 1541 999 1440 999 c 1,18,-1
 1219 985 l 1,19,20
 1114 985 1114 985 1068 1031 c 1,21,-1
 1047 1011 l 1,22,23
 1086 973 1086 973 1086 911 c 2,24,-1
 1086 81 l 2,25,26
 1086 -23 1086 -23 1104.5 -229 c 128,-1,27
 1123 -435 1123 -435 1123 -499.5 c 0,28,29
 1123 -614 1123 -614 1082 -614 c 128,-1,30
 1041 -614 1041 -614 1041 -533 c 128,-1,31
 1041 -452 1041 -452 1054.5 -313.5 c 128,-1,32
 1068 -175 1068 -175 1068 -105 c 0,33,34
 1068 4 1068 4 1025 4 c 0,35,36
 1004 4 1004 4 992 -21 c 128,-1,37
 980 -46 980 -46 980 -70 c 1,38,-1
 1003 -279 l 1,39,40
 1003 -351 1003 -351 962 -351 c 0,41,42
 941 -351 941 -351 931 -330 c 128,-1,43
 921 -309 921 -309 921 -281 c 128,-1,44
 921 -253 921 -253 939 -189.5 c 128,-1,45
 957 -126 957 -126 957 -86 c 128,-1,46
 957 -46 957 -46 922.5 -25 c 128,-1,47
 888 -4 888 -4 835.5 -4 c 128,-1,48
 783 -4 783 -4 726.5 -25 c 128,-1,49
 670 -46 670 -46 627 -90.5 c 128,-1,50
 584 -135 584 -135 584 -178.5 c 128,-1,51
 584 -222 584 -222 597.5 -284 c 128,-1,52
 611 -346 611 -346 611 -387.5 c 128,-1,53
 611 -429 611 -429 574 -429 c 0,54,55
 532 -429 532 -429 532 -384.5 c 128,-1,56
 532 -340 532 -340 548 -272 c 128,-1,57
 564 -204 564 -204 564 -170 c 2,58,-1
 564 90 l 1,59,60
 566 638 566 638 566 911 c 0,61,62
 566 974 566 974 604 1011 c 1,63,-1
 584 1031 l 1,64,65
 540 986 540 986 438 986 c 1,66,-1
 223 999 l 1,67,68
 120 999 120 999 74 953 c 1,69,-1
 54 974 l 1,70,71
 92 1012 92 1012 92 1073 c 1,0,-1
954 -502 m 1,72,73
 978 -611.714285714 978 -611.714285714 978 -693 c 0,74,75
 978 -728 978 -728 953 -728 c 128,-1,76
 928 -728 928 -728 928 -696 c 0,77,78
 928 -606 928 -606 954 -502 c 1,72,73
EndSplineSet
EndChar

StartChar: U
Encoding: 85 85 50
Width: 1887
VWidth: 1658
Flags: HW
LayerCount: 2
Fore
SplineSet
1732 1130 m 1,0,-1
 1741 619 l 1,1,2
 1741 352.384615385 1741 352.384615385 1675 228 c 0,3,4
 1612.57735503 110.357322943 1612.57735503 110.357322943 1498.5 51 c 0,5,6
 1366.93564862 -17.456247872 1366.93564862 -17.456247872 1150 -37 c 1,7,-1
 1150 -224 l 1,8,-1
 1160 -327 l 1,9,10
 1160 -361 1160 -361 1141 -361 c 128,-1,11
 1122 -361 1122 -361 1122 -295 c 1,12,-1
 1128 -132 l 1,13,14
 1128 -24 1128 -24 1061 -24 c 0,15,16
 1009 -24 1009 -24 1009 -109 c 1,17,18
 1014 -196 l 1,19,20
 1014 -226 1014 -226 1026.5 -283.5 c 128,-1,21
 1039 -341 1039 -341 1039 -365 c 128,-1,22
 1039 -389 1039 -389 1029 -405 c 128,-1,23
 1019 -421 1019 -421 1000 -421 c 128,-1,24
 981 -421 981 -421 971.5 -404.5 c 128,-1,25
 962 -388 962 -388 962 -365 c 128,-1,26
 962 -342 962 -342 975.5 -289.5 c 128,-1,27
 989 -237 989 -237 989 -222 c 128,-1,28
 989 -207 989 -207 989 -191.5 c 128,-1,29
 989 -176 989 -176 988 -160 c 128,-1,30
 987 -144 987 -144 983 -119.5 c 0,31,32
 974.918367347 -70 974.918367347 -70 935 -70 c 0,33,34
 861 -70 861 -70 861 -215.5 c 2,35,-1
 861 -262 l 2,36,37
 861 -299 861 -299 879 -370 c 128,-1,38
 897 -441 897 -441 897 -472.5 c 0,39,40
 897 -549 897 -549 847 -549 c 0,41,42
 822 -549 822 -549 807.5 -528 c 128,-1,43
 793 -507 793 -507 793 -474 c 128,-1,44
 793 -441 793 -441 809.5 -362 c 128,-1,45
 826 -283 826 -283 826 -242 c 2,46,-1
 826 -43 l 1,47,48
 542.348742515 -29.9585628743 542.348742515 -29.9585628743 399.5 39.5 c 0,49,50
 152.392234791 159.653317028 152.392234791 159.653317028 145 496 c 0,51,52
 143 589 143 589 143 773 c 2,53,-1
 145 1235 l 2,54,55
 145 1294 145 1294 106 1334 c 1,56,-1
 127 1354 l 1,57,58
 164 1316 164 1316 226 1316 c 2,59,-1
 580 1316 l 2,60,61
 641 1316 641 1316 679 1354 c 1,62,-1
 700 1334 l 1,63,64
 662 1295 662 1295 662 1235 c 2,65,-1
 664 721 l 2,66,67
 664 572 664 572 672 532 c 128,-1,68
 680 492 680 492 689.5 458.5 c 128,-1,69
 699 425 699 425 712.5 405 c 128,-1,70
 726 385 726 385 747 362.5 c 128,-1,71
 768 340 768 340 795 328 c 0,72,73
 858 300 858 300 918.5 300 c 128,-1,74
 979 300 979 300 1012.5 305.5 c 128,-1,75
 1046 311 1046 311 1071.5 323.5 c 128,-1,76
 1097 336 1097 336 1117.5 350.5 c 128,-1,77
 1138 365 1138 365 1152.5 387.5 c 128,-1,78
 1167 410 1167 410 1178 430.5 c 128,-1,79
 1189 451 1189 451 1195.5 482 c 128,-1,80
 1202 513 1202 513 1206 536.5 c 128,-1,81
 1210 560 1210 560 1212 596.5 c 0,82,83
 1215 651.25 1215 651.25 1215 721 c 2,84,-1
 1217 1235 l 2,85,86
 1217 1296 1217 1296 1180 1334 c 1,87,-1
 1199 1354 l 1,88,89
 1237 1316 1237 1316 1299 1316 c 2,90,-1
 1653 1316 l 2,91,92
 1716 1316 1716 1316 1753 1354 c 1,93,-1
 1773 1334 l 1,94,95
 1732 1292 1732 1292 1732 1130 c 1,0,-1
1141 -602 m 128,-1,97
 1108 -602 1108 -602 1108 -553 c 0,98,99
 1108 -505.0625 1108 -505.0625 1122.5 -471.53125 c 128,-1,100
 1137 -438 1137 -438 1140 -438 c 128,-1,101
 1143 -438 1143 -438 1151 -456 c 0,102,103
 1174 -507.75 1174 -507.75 1174 -554.875 c 128,-1,96
 1174 -602 1174 -602 1141 -602 c 128,-1,97
EndSplineSet
EndChar

StartChar: V
Encoding: 86 86 55
Width: 1760
VWidth: 1658
Flags: HW
LayerCount: 2
Fore
SplineSet
622 -262 m 1,0,1
 622 -295 622 -295 592 -295 c 0,2,3
 577 -295 577 -295 568 -284.5 c 128,-1,4
 559 -274 559 -274 559 -245 c 128,-1,5
 559 -216 559 -216 573 -131.5 c 128,-1,6
 587 -47 587 -47 587 16.5 c 128,-1,7
 587 80 587 80 554 155 c 2,8,-1
 58 1296 l 1,9,10
 36 1350 36 1350 -13 1383 c 1,11,-1
 0 1402 l 1,12,13
 47 1371 47 1371 108 1371 c 2,14,-1
 457 1371 l 2,15,16
 518 1371 518 1371 545 1413 c 1,17,-1
 574 1395 l 1,18,19
 557 1373 557 1373 557 1352.5 c 128,-1,20
 557 1332 557 1332 584.5 1260 c 128,-1,21
 612 1188 612 1188 657 1079.5 c 128,-1,22
 702 971 702 971 741.5 878 c 128,-1,23
 781 785 781 785 825 683 c 128,-1,24
 869 581 869 581 874 569 c 1,25,26
 879 581 879 581 923 683 c 128,-1,27
 967 785 967 785 1006.5 878 c 128,-1,28
 1046 971 1046 971 1091 1079.5 c 0,29,30
 1191 1320.61111111 1191 1320.61111111 1191 1347.80555556 c 128,-1,31
 1191 1375 1191 1375 1175 1395 c 1,32,-1
 1203 1413 l 1,33,34
 1230 1371 1230 1371 1291 1371 c 2,35,-1
 1641 1371 l 2,36,37
 1703 1371 1703 1371 1750 1402 c 1,38,-1
 1762 1383 l 1,39,40
 1713 1350 1713 1350 1691 1296 c 2,41,-1
 1188 106 l 2,42,43
 1175 76 1175 76 1175 -38 c 128,-1,44
 1175 -152 1175 -152 1198.5 -291.5 c 128,-1,45
 1222 -431 1222 -431 1222 -499 c 0,46,47
 1222 -596 1222 -596 1152.5 -596 c 128,-1,48
 1083 -596 1083 -596 1083 -500 c 0,49,50
 1083 -435 1083 -435 1108 -307.5 c 128,-1,51
 1133 -180 1133 -180 1133 -74 c 128,-1,52
 1133 32 1133 32 1107 32 c 2,53,-1
 623 32 l 2,54,55
 607 32 607 32 607 -42 c 1,56,-1
 622 -262 l 1,0,1
EndSplineSet
EndChar

StartChar: W
Encoding: 87 87 56
Width: 2587
VWidth: 1658
Flags: HW
LayerCount: 2
Fore
SplineSet
502 -328 m 0,0,1
 462 -328 462 -328 462 -269 c 128,-1,2
 462 -210 462 -210 476 -110.5 c 128,-1,3
 490 -11 490 -11 490 31 c 128,-1,4
 490 73 490 73 484 95 c 1,5,-1
 78 1276 l 2,6,7
 56 1337 56 1337 12 1367 c 1,8,-1
 26 1387 l 1,9,10
 74 1354 74 1354 133 1354 c 2,11,-1
 500 1354 l 2,12,13
 562 1354 562 1354 592 1396 c 1,14,-1
 618 1376 l 1,15,16
 597 1349 597 1349 597 1305 c 128,-1,17
 597 1261 597 1261 628 1165.5 c 128,-1,18
 659 1070 659 1070 695.5 982.5 c 0,19,20
 794 746.369863014 794 746.369863014 794 607 c 1,21,-1
 807 607 l 1,22,23
 807 739.842696629 807 739.842696629 925.5 983.5 c 128,-1,24
 1044 1227.15730337 1044 1227.15730337 1044 1324 c 0,25,26
 1044 1351 1044 1351 1026 1377 c 1,27,-1
 1052 1397 l 1,28,29
 1082 1354 1082 1354 1143 1354 c 2,30,-1
 1426 1354 l 2,31,32
 1486 1354 1486 1354 1516 1397 c 1,33,-1
 1543 1377 l 1,34,35
 1524 1352 1524 1352 1524 1312 c 128,-1,36
 1524 1272 1524 1272 1560.5 1175.5 c 128,-1,37
 1597 1079 1597 1079 1641 988 c 0,38,39
 1759.12752323 743.690804229 1759.12752323 743.690804229 1761 607 c 1,40,-1
 1774 607 l 1,41,42
 1774 749.743243243 1774 749.743243243 1872 981.5 c 128,-1,43
 1970 1213.25675676 1970 1213.25675676 1970 1318 c 0,44,45
 1970 1351 1970 1351 1951 1376 c 1,46,-1
 1977 1396 l 1,47,48
 2007 1354 2007 1354 2069 1354 c 2,49,-1
 2436 1354 l 2,50,51
 2495 1354 2495 1354 2543 1387 c 1,52,-1
 2556 1367 l 1,53,54
 2512 1337 2512 1337 2491 1276 c 0,55,56
 2484 1255 2484 1255 2430 1105 c 128,-1,57
 2376 955 2376 955 2322 801.5 c 128,-1,58
 2268 648 2268 648 2209.5 478 c 0,59,60
 2077 92.9572649573 2077 92.9572649573 2077 56.9786324786 c 128,-1,61
 2077 21 2077 21 2096 -4 c 1,62,-1
 2069 -24 l 1,63,64
 2039 19 2039 19 1978 19 c 2,65,-1
 1607 20 l 2,66,67
 1545 20 1545 20 1516 -22 c 1,68,-1
 1489 -4 l 1,69,70
 1507 20 1507 20 1507 62.5 c 128,-1,71
 1507 105 1507 105 1473 197.5 c 128,-1,72
 1439 290 1439 290 1398.5 375 c 0,73,74
 1290 602.716049383 1290 602.716049383 1290 733 c 1,75,-1
 1278 733 l 1,76,77
 1278 600.804878049 1278 600.804878049 1169 373.5 c 128,-1,78
 1060 146.195121951 1060 146.195121951 1060 51 c 0,79,80
 1060 19 1060 19 1079 -4 c 1,81,-1
 1052 -22 l 1,82,83
 1023 20 1023 20 961 20 c 2,84,-1
 591 19 l 2,85,86
 532 19 532 19 532 -16 c 1,87,-1
 549 -261 l 1,88,89
 549 -286 549 -286 537 -307 c 128,-1,90
 525 -328 525 -328 502 -328 c 0,0,1
EndSplineSet
EndChar

StartChar: X
Encoding: 88 88 57
Width: 1832
VWidth: 1658
Flags: HW
LayerCount: 2
Fore
SplineSet
657 -30 m 1,0,1
 633.307692308 14 633.307692308 14 573 14 c 2,2,-1
 101 14 l 2,3,4
 41 14 41 14 -13 -11 c 1,5,-1
 -21 4 l 1,6,7
 36 32 36 32 72 77 c 2,8,-1
 555 660 l 2,9,10
 594 706 594 706 648 706 c 1,11,-1
 648 737 l 1,12,13
 595 737 595 737 558 786 c 2,14,-1
 166 1288 l 2,15,16
 129 1336 129 1336 76 1362 c 1,17,-1
 84 1378 l 1,18,19
 136 1352 136 1352 197 1352 c 2,20,-1
 643 1350 l 2,21,22
 704 1350 704 1350 726 1395 c 1,23,-1
 758 1379 l 1,24,25
 748 1356 748 1356 747.5 1337 c 128,-1,26
 747 1318 747 1318 773 1285 c 2,27,-1
 889 1135 l 2,28,29
 925 1089 925 1089 925 1030 c 1,30,-1
 950 1030 l 1,31,32
 950 1088 950 1088 987 1135 c 2,33,-1
 1103 1285 l 2,34,35
 1127 1317 1127 1317 1127 1337.5 c 128,-1,36
 1127 1358 1127 1358 1118 1379 c 1,37,-1
 1150 1395 l 1,38,39
 1172 1350 1172 1350 1233 1350 c 2,40,-1
 1668 1352 l 2,41,42
 1728 1352 1728 1352 1782 1377 c 1,43,-1
 1789 1362 l 1,44,45
 1736 1336 1736 1336 1698 1289 c 2,46,-1
 1287 785 l 2,47,48
 1249 738 1249 738 1195 738 c 1,49,-1
 1195 706 l 1,50,51
 1249 706 1249 706 1286 659 c 2,52,-1
 1745 77 l 2,53,54
 1780 32 1780 32 1836 4 c 1,55,-1
 1828 -12 l 1,56,57
 1776 14 1776 14 1715 14 c 2,58,-1
 1253 14 l 2,59,60
 1209 14 1209 14 1184 -15 c 128,-1,61
 1159 -44 1159 -44 1159 -119.5 c 128,-1,62
 1159 -195 1159 -195 1180 -380 c 128,-1,63
 1201 -565 1201 -565 1201 -626.5 c 128,-1,64
 1201 -688 1201 -688 1177.5 -715 c 128,-1,65
 1154 -742 1154 -742 1123.5 -742 c 128,-1,66
 1093 -742 1093 -742 1071.5 -718.5 c 128,-1,67
 1050 -695 1050 -695 1050 -636.5 c 128,-1,68
 1050 -578 1050 -578 1084.5 -381 c 128,-1,69
 1119 -184 1119 -184 1119 -110 c 2,70,-1
 1120 80 l 1,71,-1
 961 306 l 1,72,73
 925 359 925 359 925 412 c 1,74,-1
 900 412 l 1,75,76
 900 355 900 355 865 306 c 2,77,-1
 702 80 l 2,78,79
 679 47 679 47 679 28 c 128,-1,80
 679 9 679 9 690 -13 c 1,81,-1
 657 -30 l 1,0,1
EndSplineSet
EndChar

StartChar: Y
Encoding: 89 89 58
Width: 1780
VWidth: 1658
Flags: HW
LayerCount: 2
Fore
SplineSet
720 -354 m 1,0,-1
 731 -158 l 1,1,2
 731 10 731 10 689 10 c 128,-1,3
 647 10 647 10 647 -96 c 2,4,-1
 647 -125 l 2,5,6
 647 -168 647 -168 666.5 -253 c 128,-1,7
 686 -338 686 -338 686 -382 c 0,8,9
 686 -450 686 -450 635.5 -450 c 128,-1,10
 585 -450 585 -450 585 -382 c 0,11,12
 585 -336 585 -336 606 -248 c 128,-1,13
 627 -160 627 -160 627 -114 c 2,14,-1
 625 294 l 2,15,16
 625 325 625 325 633.5 342 c 128,-1,17
 642 359 642 359 669 367 c 1,18,-1
 659 405 l 1,19,20
 645 401 645 401 634.5 401 c 128,-1,21
 624 401 624 401 613 408.5 c 0,22,23
 600.219653179 417.213872832 600.219653179 417.213872832 583 444 c 2,24,-1
 76 1270 l 2,25,26
 46 1319 46 1319 -6 1350 c 1,27,-1
 3 1367 l 1,28,29
 53 1339 53 1339 116 1339 c 2,30,-1
 519 1341 l 2,31,32
 579 1341 579 1341 604 1384 c 1,33,-1
 635 1367 l 1,34,35
 622 1343 622 1343 622 1314.5 c 128,-1,36
 622 1286 622 1286 662.5 1217 c 128,-1,37
 703 1148 703 1148 751.5 1083 c 128,-1,38
 800 1018 800 1018 840.5 939 c 128,-1,39
 881 860 881 860 881 802 c 1,40,-1
 902 802 l 1,41,-1
 902 810 l 2,42,43
 902 903.591836735 902 903.591836735 1032 1084 c 128,-1,44
 1162 1264.40816327 1162 1264.40816327 1162 1325 c 0,45,46
 1162 1341 1162 1341 1148 1367 c 1,47,-1
 1179 1384 l 1,48,49
 1204 1341 1204 1341 1265 1341 c 2,50,-1
 1644 1339 l 2,51,52
 1706 1339 1706 1339 1756 1367 c 1,53,-1
 1765 1350 l 1,54,55
 1711 1318 1711 1318 1682 1270 c 2,56,-1
 1170 444 l 2,57,58
 1143.82608696 401 1143.82608696 401 1117 401 c 0,59,60
 1106 401 1106 401 1094 405 c 1,61,-1
 1082 368 l 1,62,63
 1130 353 1130 353 1130 268 c 1,64,-1
 1124 129 l 1,65,66
 1124 33 1124 33 1166 -9 c 1,67,-1
 1145 -29 l 1,68,69
 1106 10 1106 10 1046 10 c 2,70,-1
 812 10 l 2,71,72
 748 10 748 10 748 -171 c 1,73,-1
 763 -357 l 1,74,75
 763 -392 763 -392 741.5 -392 c 128,-1,76
 720 -392 720 -392 720 -354 c 1,0,-1
EndSplineSet
EndChar

StartChar: Z
Encoding: 90 90 60
Width: 1881
VWidth: 1658
Flags: HW
LayerCount: 2
Fore
SplineSet
1735 1096 m 2,0,1
 1735 1036.5 1735 1036.5 1780 1014 c 1,2,-1
 1765 981 l 1,3,4
 1736 992 1736 992 1717.5 988 c 128,-1,5
 1699 984 1699 984 1673 963 c 2,6,-1
 996 395 l 1,7,8
 950 358 950 358 894 337 c 1,9,-1
 899 323 l 1,10,11
 956 344 956 344 1015 344 c 2,12,-1
 1624 344 l 2,13,14
 1686 344 1686 344 1724 382 c 1,15,-1
 1744 362 l 1,16,17
 1706 324 1706 324 1706 263 c 2,18,-1
 1706 81 l 2,19,20
 1706 19 1706 19 1744 -19 c 1,21,-1
 1724 -39 l 1,22,23
 1685 0 1685 0 1624 0 c 2,24,-1
 210 0 l 2,25,26
 149 0 149 0 110 -39 c 1,27,-1
 89 -19 l 1,28,29
 129 21 129 21 129 81 c 2,30,-1
 129 211 l 2,31,32
 129 271.230769231 129 271.230769231 84 292 c 1,33,-1
 99 326 l 1,34,35
 127 314 127 314 146 318.5 c 128,-1,36
 165 323 165 323 190 344 c 2,37,-1
 890 946 l 2,38,39
 938 986 938 986 992 1006 c 1,40,-1
 987 1020 l 1,41,42
 930 999 930 999 870 999 c 2,43,-1
 277 999 l 2,44,45
 218 999 218 999 178 959 c 1,46,-1
 158 980 l 1,47,48
 196 1018 196 1018 196 1080 c 2,49,-1
 196 1251 l 2,50,51
 196 1313 196 1313 158 1351 c 1,52,-1
 178 1372 l 1,53,54
 218 1332 218 1332 277 1332 c 2,55,-1
 1654 1332 l 2,56,57
 1714 1332 1714 1332 1754 1372 c 1,58,-1
 1774 1351 l 1,59,60
 1735 1312 1735 1312 1735 1251 c 2,61,-1
 1735 1096 l 2,0,1
EndSplineSet
EndChar

StartChar: a
Encoding: 97 97 62
Width: 1768
VWidth: 1658
Flags: HW
LayerCount: 2
Fore
SplineSet
81 -64 m 2,0,-1
 84 -223 l 2,1,2
 84 -271 84 -271 69 -295.5 c 128,-1,3
 54 -320 54 -320 33 -320 c 0,4,5
 -9 -320 -9 -320 -9 -239 c 128,-1,6
 -9 -158 -9 -158 11 -59.5 c 128,-1,7
 31 39 31 39 46 76 c 2,8,-1
 526 1257 l 2,9,10
 536 1283 536 1283 536 1308 c 128,-1,11
 536 1333 536 1333 519 1357 c 1,12,-1
 547 1375 l 1,13,14
 576 1332 576 1332 637 1332 c 2,15,-1
 1097 1332 l 2,16,17
 1157 1332 1157 1332 1186 1375 c 1,18,-1
 1215 1357 l 1,19,20
 1198 1333 1198 1333 1198 1311 c 128,-1,21
 1198 1289 1198 1289 1210 1258 c 2,22,-1
 1704 75 l 2,23,24
 1727 19 1727 19 1775 -13 c 1,25,-1
 1763 -32 l 1,26,27
 1714 0 1714 0 1654 0 c 2,28,-1
 1458 0 l 1,29,30
 1460 -22 1460 -22 1460 -31 c 0,31,32
 1460 -64 1460 -64 1433 -64 c 0,33,34
 1421 -64 1421 -64 1411.5 -54.5 c 128,-1,35
 1402 -45 1402 -45 1402 -27.5 c 128,-1,36
 1402 -10 1402 -10 1404 0 c 1,37,-1
 1283 0 l 2,38,39
 1239.09090909 0 1239.09090909 0 1226 -48 c 0,40,41
 1210 -106.666666667 1210 -106.666666667 1210 -183.333333333 c 128,-1,42
 1210 -260 1210 -260 1220 -323 c 128,-1,43
 1230 -386 1230 -386 1230 -409.5 c 128,-1,44
 1230 -433 1230 -433 1218.5 -447.5 c 128,-1,45
 1207 -462 1207 -462 1190 -462 c 128,-1,46
 1173 -462 1173 -462 1161 -448 c 128,-1,47
 1149 -434 1149 -434 1149 -409 c 128,-1,48
 1149 -384 1149 -384 1161.5 -312 c 128,-1,49
 1174 -240 1174 -240 1174 -204 c 2,50,-1
 1174 77 l 1,51,52
 1164 104 1164 104 1164 127 c 128,-1,53
 1164 150 1164 150 1182 176 c 1,54,-1
 1156 195 l 1,55,56
 1126 152 1126 152 1066 152 c 2,57,-1
 655 152 l 2,58,59
 595 152 595 152 565 194 c 1,60,-1
 539 176 l 1,61,62
 558 149 558 149 558 126 c 128,-1,63
 558 103 558 103 551 77 c 1,64,-1
 551 76 l 1,65,66
 542 42 542 42 542 24 c 128,-1,67
 542 6 542 6 562 -23 c 1,68,-1
 536 -42 l 1,69,70
 506 0 506 0 446 0 c 2,71,-1
 84 0 l 1,72,73
 81 -19 81 -19 81 -64 c 2,0,-1
758 429 m 2,74,-1
 949 429 l 2,75,76
 1009 429 1009 429 1057 397 c 1,77,-1
 1070 416 l 1,78,79
 1023 448 1023 448 1002 505 c 1,80,-1
 875 830 l 2,81,82
 853 887 853 887 852 946 c 1,83,-1
 839 946 l 1,84,85
 837 880 837 880 819 830 c 2,86,-1
 704 506 l 2,87,88
 683 448 683 448 637 416 c 1,89,-1
 650 396 l 1,90,91
 697 429 697 429 758 429 c 2,74,-1
1407 -331 m 0,92,93
 1407 -262 1407 -262 1433 -158 c 1,94,95
 1462 -278 1462 -278 1462 -314 c 0,96,97
 1462 -367 1462 -367 1434.5 -367 c 128,-1,98
 1407 -367 1407 -367 1407 -331 c 0,92,93
EndSplineSet
EndChar

StartChar: ampersand
Encoding: 38 38 67
Width: 1862
VWidth: 1658
Flags: HW
LayerCount: 2
Fore
SplineSet
561 805 m 1,0,1
 431 853.225806452 431 853.225806452 431 1022 c 0,2,3
 431 1173.15053763 431 1173.15053763 583.5 1253.5 c 0,4,5
 728.693877551 1330 728.693877551 1330 984 1330 c 0,6,7
 1248.30263158 1330 1248.30263158 1330 1395.5 1217 c 0,8,9
 1505 1132.93939394 1505 1132.93939394 1505 994 c 0,10,11
 1505 893 1505 893 1432 825.5 c 128,-1,12
 1359 758 1359 758 1232 710 c 0,13,14
 1178 689 1178 689 1123 703 c 1,15,-1
 1117 682 l 1,16,17
 1174 668 1174 668 1213 626 c 0,18,19
 1223 615 1223 615 1242 593.5 c 128,-1,20
 1261 572 1261 572 1269 563 c 0,21,22
 1311 520 1311 520 1305 465 c 1,23,-1
 1336 462 l 1,24,25
 1341 516 1341 516 1391 551 c 0,26,27
 1483 615 1483 615 1539 662.5 c 128,-1,28
 1595 710 1595 710 1600 765 c 1,29,-1
 1628 763 l 1,30,31
 1623 710 1623 710 1663 662 c 1,32,-1
 1728 587 l 2,33,34
 1768 541 1768 541 1822 536 c 1,35,-1
 1820 507 l 1,36,37
 1765 512 1765 512 1711.5 466.5 c 128,-1,38
 1658 421 1658 421 1563 349 c 1,39,40
 1514 314 1514 314 1459 319 c 1,41,-1
 1457 292 l 1,42,43
 1511 287 1511 287 1555 243 c 1,44,-1
 1730 58 l 1,45,46
 1775 13 1775 13 1826 -9 c 1,47,-1
 1820 -23 l 1,48,49
 1767 0 1767 0 1705 0 c 2,50,-1
 1305 0 l 2,51,52
 1276 0 1276 0 1260 -9 c 128,-1,53
 1244 -18 1244 -18 1232 -44 c 1,54,-1
 1203 -30 l 1,55,56
 1214 -2 1214 -2 1211 14 c 128,-1,57
 1208 30 1208 30 1183 60 c 128,-1,58
 1158 90 1158 90 1167 141 c 1,59,-1
 1140 147 l 1,60,61
 1130 96 1130 96 1081 72 c 0,62,63
 876 -29 876 -29 594 -29 c 0,64,65
 447.538461538 -29 447.538461538 -29 311 33.5 c 0,66,67
 157.514296906 103.757540149 157.514296906 103.757540149 96 229.5 c 0,68,69
 62 299 62 299 62 382 c 0,70,71
 62 532 62 532 170 635.5 c 128,-1,72
 278 739 278 739 447 787 c 0,73,74
 500 803 500 803 554 783 c 1,75,-1
 561 805 l 1,0,1
674.5 272.5 m 128,-1,77
 729 254 729 254 773 254 c 128,-1,78
 817 254 817 254 888.5 270 c 128,-1,79
 960 286 960 286 1003 273 c 1,80,-1
 1008 295 l 1,81,82
 951 313 951 313 911 358 c 2,83,-1
 735 556 l 2,84,85
 696 599 696 599 704 652 c 1,86,-1
 673 657 l 1,87,88
 666 605 666 605 616 574 c 1,89,90
 543 532 543 532 543 458 c 128,-1,91
 543 384 543 384 581.5 337.5 c 128,-1,76
 620 291 620 291 674.5 272.5 c 128,-1,77
1112.5 1055.5 m 128,-1,93
 1075 1082 1075 1082 1026.5 1082 c 128,-1,94
 978 1082 978 1082 943.5 1056.5 c 128,-1,95
 909 1031 909 1031 909 987 c 0,96,97
 909 972 909 972 940 921.5 c 128,-1,98
 971 871 971 871 956 821 c 1,99,-1
 987 812 l 1,100,101
 1003 865 1003 865 1050.5 886.5 c 0,102,103
 1150 931.536842105 1150 931.536842105 1150 984 c 0,104,92
 1150 1029 1150 1029 1112.5 1055.5 c 128,-1,93
EndSplineSet
EndChar

StartChar: b
Encoding: 98 98 68
Width: 1979
VWidth: 1658
Flags: HW
LayerCount: 2
Fore
SplineSet
305 0 m 1,0,-1
 327 -183 l 1,1,2
 327 -244 327 -244 284.5 -244 c 128,-1,3
 242 -244 242 -244 242 -184 c 0,4,5
 242 -156 242 -156 254 -101 c 128,-1,6
 266 -46 266 -46 266 -4 c 128,-1,7
 266 38 266 38 242 38 c 0,8,9
 223 38 223 38 214 8.5 c 128,-1,10
 205 -21 205 -21 205 -63.5 c 128,-1,11
 205 -106 205 -106 219.5 -226.5 c 128,-1,12
 234 -347 234 -347 234 -406.5 c 128,-1,13
 234 -466 234 -466 189 -466 c 128,-1,14
 144 -466 144 -466 144 -408.5 c 128,-1,15
 144 -351 144 -351 160 -249.5 c 128,-1,16
 176 -148 176 -148 176 -97 c 2,17,-1
 177 1251 l 2,18,19
 177 1313 177 1313 138 1351 c 1,20,-1
 158 1372 l 1,21,22
 200 1332 200 1332 258 1332 c 2,23,-1
 1104 1332 l 2,24,25
 1119 1332 1119 1332 1157 1333 c 128,-1,26
 1195 1334 1195 1334 1247 1332 c 128,-1,27
 1299 1330 1299 1330 1353.5 1328.5 c 128,-1,28
 1408 1327 1408 1327 1462.5 1318 c 128,-1,29
 1517 1309 1517 1309 1567 1296.5 c 128,-1,30
 1617 1284 1617 1284 1660 1260 c 128,-1,31
 1703 1236 1703 1236 1735 1205.5 c 0,32,33
 1804 1139.734375 1804 1139.734375 1804 1037.8671875 c 128,-1,34
 1804 936 1804 936 1757 860.5 c 128,-1,35
 1710 785 1710 785 1625 778 c 1,36,-1
 1627 758 l 1,37,38
 1686 763 1686 763 1737 730.5 c 128,-1,39
 1788 698 1788 698 1819.5 644.5 c 0,40,41
 1887 529.857142857 1887 529.857142857 1887 431.928571429 c 128,-1,42
 1887 334 1887 334 1858.5 267 c 128,-1,43
 1830 200 1830 200 1779 156 c 128,-1,44
 1728 112 1728 112 1666 80 c 128,-1,45
 1604 48 1604 48 1528 31.5 c 0,46,47
 1382.90909091 1.7763568394e-14 1382.90909091 1.7763568394e-14 1240 0 c 2,48,-1
 305 0 l 1,0,-1
652 519 m 1,49,50
 691 480 691 480 691 418 c 128,-1,51
 691 356 691 356 652 317 c 1,52,-1
 672 296 l 1,53,54
 712 336 712 336 772 336 c 2,55,-1
 1165 336 l 2,56,57
 1172 336 1172 336 1195 335.5 c 128,-1,58
 1218 335 1218 335 1227.5 335.5 c 128,-1,59
 1237 336 1237 336 1256.5 338 c 128,-1,60
 1276 340 1276 340 1285.5 345.5 c 128,-1,61
 1295 351 1295 351 1306.5 359.5 c 0,62,63
 1327 374.652173913 1327 374.652173913 1327 417.826086957 c 128,-1,64
 1327 461 1327 461 1292 482 c 128,-1,65
 1257 503 1257 503 1212 503 c 2,66,-1
 772 500 l 2,67,68
 711 500 711 500 672 539 c 1,69,-1
 652 519 l 1,49,50
849 844 m 1,70,-1
 1083 834 l 1,71,72
 1203.23809524 834 1203.23809524 834 1236 877 c 0,73,74
 1252 898 1252 898 1252 925.5 c 128,-1,75
 1252 953 1252 953 1229.5 969 c 0,76,77
 1192.9375 995 1192.9375 995 1133 995 c 2,78,-1
 772 994 l 2,79,80
 717 994 717 994 677 1032 c 1,81,-1
 658 1012 l 1,82,83
 697 973 697 973 697 917 c 128,-1,84
 697 861 697 861 658 820 c 1,85,-1
 677 801 l 1,86,87
 721 844 721 844 849 844 c 1,70,-1
357 -740.5 m 128,-1,89
 362 -769 362 -769 362 -806.5 c 128,-1,90
 362 -844 362 -844 328 -844 c 128,-1,91
 294 -844 294 -844 294 -795 c 0,92,93
 294 -745.25 294 -745.25 309.5 -687.125 c 128,-1,94
 325 -629 325 -629 328 -616 c 1,95,96
 331 -631 331 -631 341.5 -671.5 c 128,-1,88
 352 -712 352 -712 357 -740.5 c 128,-1,89
EndSplineSet
EndChar

StartChar: c
Encoding: 99 99 69
Width: 1951
VWidth: 1658
Flags: HW
LayerCount: 2
Fore
SplineSet
693 -499 m 2,0,-1
 712 -24 l 1,1,2
 407 19 407 19 242.5 196 c 128,-1,3
 78 373 78 373 78 679 c 0,4,5
 78 1004.95555556 78 1004.95555556 291.5 1180.5 c 0,6,7
 528.054054054 1375 528.054054054 1375 993 1375 c 0,8,9
 1738 1375 1738 1375 1826 947 c 0,10,11
 1838 885 1838 885 1879 852 c 1,12,-1
 1862 830 l 1,13,14
 1814 866 1814 866 1758 861 c 1,15,-1
 1373 837 l 2,16,17
 1306 832 1306 832 1286 788 c 1,18,-1
 1253 804 l 1,19,20
 1263 826 1263 826 1263 842 c 0,21,22
 1263 894 1263 894 1228.5 932.5 c 128,-1,23
 1194 971 1194 971 1141 990 c 0,24,25
 1037.78947368 1027 1037.78947368 1027 941 1027 c 0,26,27
 793 1027 793 1027 710.5 926.5 c 128,-1,28
 628 826 628 826 628 665.5 c 128,-1,29
 628 505 628 505 721.5 403.5 c 128,-1,30
 815 302 815 302 984 302 c 0,31,32
 1038 302 1038 302 1104.5 328.5 c 128,-1,33
 1171 355 1171 355 1222.5 405 c 128,-1,34
 1274 455 1274 455 1274 511 c 0,35,36
 1274 527 1274 527 1263 551 c 1,37,-1
 1296 568 l 1,38,39
 1320 523 1320 523 1373.5 519 c 128,-1,40
 1427 515 1427 515 1512 507.5 c 0,41,42
 1699 491 1699 491 1772 491 c 128,-1,43
 1845 491 1845 491 1887 522 c 1,44,-1
 1903 501 l 1,45,46
 1866 473 1866 473 1847.5 397.5 c 128,-1,47
 1829 322 1829 322 1776 252.5 c 128,-1,48
 1723 183 1723 183 1656.5 137.5 c 128,-1,49
 1590 92 1590 92 1502.5 57.5 c 0,50,51
 1351.24135281 -2.13912375096 1351.24135281 -2.13912375096 1171 -27 c 1,52,53
 1171 -119 1171 -119 1195 -300 c 128,-1,54
 1219 -481 1219 -481 1219 -541 c 128,-1,55
 1219 -601 1219 -601 1204.5 -625 c 128,-1,56
 1190 -649 1190 -649 1162 -649 c 128,-1,57
 1134 -649 1134 -649 1119 -625 c 128,-1,58
 1104 -601 1104 -601 1104 -548.5 c 128,-1,59
 1104 -496 1104 -496 1120.5 -345 c 128,-1,60
 1137 -194 1137 -194 1137 -143 c 128,-1,61
 1137 -92 1137 -92 1132 -74 c 128,-1,62
 1127 -56 1127 -56 1120 -46.5 c 128,-1,63
 1113 -37 1113 -37 1096 -32.5 c 0,64,65
 1056.78509532 -22.1195840555 1056.78509532 -22.1195840555 1002.39254766 -26.5597920277 c 0,66,67
 892 -35.5714285714 892 -35.5714285714 892 -64 c 1,68,-1
 916 -336 l 1,69,70
 916 -401 916 -401 878 -401 c 128,-1,71
 840 -401 840 -401 840 -346 c 128,-1,72
 840 -291 840 -291 853.5 -200 c 128,-1,73
 867 -109 867 -109 867 -69.5 c 128,-1,74
 867 -30 867 -30 841 -30 c 0,75,76
 789.571428571 -30 789.571428571 -30 772.285714286 -41 c 128,-1,77
 755 -52 755 -52 755 -61 c 2,78,-1
 766 -494 l 2,79,80
 766 -511 766 -511 755 -524.5 c 128,-1,81
 744 -538 744 -538 728 -538 c 128,-1,82
 712 -538 712 -538 702.5 -526.5 c 128,-1,83
 693 -515 693 -515 693 -499 c 2,0,-1
EndSplineSet
EndChar

StartChar: d
Encoding: 100 100 71
Width: 1982
VWidth: 1658
Flags: HW
LayerCount: 2
Fore
SplineSet
701 -247 m 1,0,-1
 721 -105 l 1,1,2
 721 -81 721 -81 711.5 -40.5 c 128,-1,3
 702 0 702 0 685 0 c 2,4,-1
 265 0 l 2,5,6
 206 0 206 0 166 -39 c 1,7,-1
 146 -19 l 1,8,9
 184 19 184 19 184 81 c 2,10,-1
 184 1251 l 2,11,12
 184 1314 184 1314 146 1351 c 1,13,-1
 166 1372 l 1,14,15
 207 1332 207 1332 265 1332 c 2,16,-1
 1092 1332 l 2,17,18
 1690.27727273 1332 1690.27727273 1332 1833.5 943 c 0,19,20
 1874 833 1874 833 1874 693 c 0,21,22
 1874 297.315216629 1874 297.315216629 1660.02647606 138.726422403 c 0,23,24
 1512.80406898 29.6109412292 1512.80406898 29.6109412292 1219.33219818 7.73540933016 c 0,25,26
 1105.30805782 -0.764003962279 1105.30805782 -0.764003962279 955.998318821 -0.382001981139 c 128,-1,27
 806.688579817 0 806.688579817 0 782 0 c 0,28,29
 765 0 765 0 753 -48 c 128,-1,30
 741 -96 741 -96 741 -120 c 1,31,-1
 758 -248 l 1,32,33
 758 -286 758 -286 729.5 -286 c 128,-1,34
 701 -286 701 -286 701 -247 c 1,0,-1
1320 544.5 m 128,-1,36
 1337 608 1337 608 1337 697.5 c 128,-1,37
 1337 787 1337 787 1307 847 c 128,-1,38
 1277 907 1277 907 1227 935 c 128,-1,39
 1177 963 1177 963 1116 976.5 c 128,-1,40
 1055 990 1055 990 988.5 991.5 c 128,-1,41
 922 993 922 993 863.5 994 c 0,42,43
 721.573913043 996.426086957 721.573913043 996.426086957 682 1036 c 1,44,-1
 662 1016 l 1,45,46
 701 978 701 978 701 916 c 0,47,48
 701 469 701 469 703 342 c 1,49,-1
 930 342 l 2,50,51
 1099.81818182 342 1099.81818182 342 1171.40909091 372 c 128,-1,52
 1243 402 1243 402 1273 441.5 c 128,-1,35
 1303 481 1303 481 1320 544.5 c 128,-1,36
EndSplineSet
EndChar

StartChar: dollar
Encoding: 36 36 72
Width: 1816
VWidth: 1658
Flags: HW
LayerCount: 2
Fore
SplineSet
489 419 m 2,0,1
 563.111111111 419 563.111111111 419 584 466 c 1,2,-1
 625 448 l 1,3,4
 601 393 601 393 657 344 c 1,5,6
 689.567375887 317.539007092 689.567375887 317.539007092 764.5 295.5 c 2,7,-1
 790 288 l 1,8,9
 789 338 789 338 789 367 c 2,10,-1
 789 554 l 1,11,12
 762 558 762 558 710 564.5 c 128,-1,13
 658 571 658 571 622.5 575.5 c 128,-1,14
 587 580 587 580 534.5 589 c 128,-1,15
 482 598 482 598 444.5 607 c 128,-1,16
 407 616 407 616 360.5 631.5 c 128,-1,17
 314 647 314 647 282 664.5 c 128,-1,18
 250 682 250 682 217 707.5 c 128,-1,19
 184 733 184 733 164 763 c 0,20,21
 119 830.5 119 830.5 119 907.75 c 128,-1,22
 119 985 119 985 140.5 1041 c 128,-1,23
 162 1097 162 1097 196.5 1136 c 128,-1,24
 231 1175 231 1175 283 1205.5 c 128,-1,25
 335 1236 335 1236 388 1254.5 c 128,-1,26
 441 1273 441 1273 506.5 1286 c 0,27,28
 609.63016158 1306.46858169 609.63016158 1306.46858169 693.31508079 1310.73429084 c 128,-1,29
 777 1315 777 1315 793 1314 c 1,30,-1
 793 1369 l 2,31,32
 793 1406 793 1406 758 1441 c 1,33,-1
 771 1454 l 1,34,35
 807 1418 807 1418 844 1418 c 2,36,-1
 975 1418 l 2,37,38
 1012 1418 1012 1418 1048 1454 c 1,39,-1
 1060 1440 l 1,40,41
 1025 1405 1025 1405 1025 1367 c 2,42,-1
 1025 1310 l 1,43,-1
 1077 1310 l 1,44,45
 1305.98030365 1288.86335659 1305.98030365 1288.86335659 1429.5 1232.5 c 0,46,47
 1555.25406117 1175.11707888 1555.25406117 1175.11707888 1609.5 1095 c 0,48,49
 1642 1047 1642 1047 1657 987.5 c 128,-1,50
 1672 928 1672 928 1718 893 c 1,51,-1
 1702 872 l 1,52,53
 1657 907 1657 907 1595 907 c 2,54,-1
 1259 907 l 2,55,56
 1227 907 1227 907 1209.5 898 c 128,-1,57
 1192 889 1192 889 1181 862 c 1,58,-1
 1147 878 l 1,59,60
 1172 939 1172 939 1133 986 c 128,-1,61
 1094 1033 1094 1033 1031 1033 c 1,62,-1
 1031 819 l 1,63,64
 1485.37761295 810.637221848 1485.37761295 810.637221848 1650.5 625.5 c 0,65,66
 1738 527.393939394 1738 527.393939394 1738 400 c 0,67,68
 1738 199.669421488 1738 199.669421488 1538.5 92.5 c 0,69,70
 1335.74518659 -16.4178749703 1335.74518659 -16.4178749703 1018 -6 c 1,71,72
 1022 -84 1022 -84 1022 -93 c 2,73,-1
 1022 -94 l 2,74,75
 1022 -153 1022 -153 1060 -191 c 1,76,-1
 1041 -212 l 1,77,78
 1002 -173 1002 -173 943 -173 c 2,79,-1
 867 -173 l 2,80,81
 807 -173 807 -173 768 -212 c 1,82,-1
 748 -191 l 1,83,84
 787 -152 787 -152 787 -94 c 2,85,-1
 787 -93 l 1,86,-1
 785 -39 l 2,87,88
 785 -24 785 -24 787 -6 c 1,89,90
 500 4 500 4 319 97 c 128,-1,91
 138 190 138 190 102 339 c 0,92,93
 86 402 86 402 44 435 c 1,94,-1
 59 454 l 1,95,96
 104 419 104 419 166 419 c 2,97,-1
 489 419 l 2,0,1
1186 417 m 0,98,99
 1186 515 1186 515 1022 532 c 1,100,-1
 1022 361 l 2,101,102
 1022 312 1022 312 1021 291 c 1,103,104
 1048.07692308 289.307692308 1048.07692308 289.307692308 1072.03846154 296.153846154 c 128,-1,105
 1096 303 1096 303 1102 304 c 1,106,107
 1186 333 1186 333 1186 417 c 0,98,99
791 1017 m 1,108,109
 695.414634146 1017 695.414634146 1017 659.5 969.5 c 0,110,111
 644 949 644 949 644 921 c 128,-1,112
 644 893 644 893 660.5 875.5 c 128,-1,113
 677 858 677 858 696 852 c 128,-1,114
 715 846 715 846 746 838.5 c 128,-1,115
 777 831 777 831 791 825 c 1,116,-1
 791 1017 l 1,108,109
EndSplineSet
EndChar

StartChar: dotlessi
Encoding: 305 305 73
Width: 824
VWidth: 1658
Flags: HW
LayerCount: 2
Fore
SplineSet
559 0 m 2,0,-1
 268 0 l 2,1,2
 207 0 207 0 168 -39 c 1,3,-1
 148 -19 l 1,4,5
 187 20 187 20 187 81 c 2,6,-1
 187 1253 l 2,7,8
 187 1314 187 1314 148 1353 c 1,9,-1
 168 1372 l 1,10,11
 206 1334 206 1334 268 1334 c 2,12,-1
 559 1334 l 2,13,14
 621 1334 621 1334 659 1372 c 1,15,-1
 679 1353 l 1,16,17
 640 1314 640 1314 640 1253 c 2,18,-1
 640 81 l 2,19,20
 640 20 640 20 679 -19 c 1,21,-1
 659 -39 l 1,22,23
 620 0 620 0 559 0 c 2,0,-1
EndSplineSet
EndChar

StartChar: e
Encoding: 101 101 74
Width: 1789
VWidth: 1658
Flags: HW
LayerCount: 2
Fore
SplineSet
721 166 m 1,0,-1
 705 290 l 1,1,-1
 705 301 l 1,2,3
 726 338 726 338 762 338 c 2,4,-1
 1578 337 l 2,5,6
 1639 337 1639 337 1677 376 c 1,7,-1
 1697 356 l 1,8,9
 1653 312 1653 312 1653 187.5 c 2,10,11
 1653 130 l 2,12,13
 1653 29 1653 29 1697 -17 c 1,14,-1
 1677 -37 l 1,15,16
 1638 2 1638 2 1578 2 c 2,17,-1
 395 2 l 2,18,19
 305.5 2 305.5 2 264.5 -32 c 0,20,21
 216 -72.2195121951 216 -72.2195121951 216 -258 c 0,22,23
 216 -333 216 -333 239 -479.5 c 128,-1,24
 262 -626 262 -626 262 -700 c 0,25,26
 262 -807 262 -807 186 -807 c 0,27,28
 104 -807 104 -807 104 -697 c 0,29,30
 104 -622 104 -622 137 -475 c 128,-1,31
 170 -328 170 -328 170 -252 c 1,32,-1
 165 83 l 1,33,-1
 165 1249 l 2,34,35
 165 1311 165 1311 127 1348 c 1,36,-1
 147 1369 l 1,37,38
 188 1330 188 1330 247 1330 c 2,39,-1
 1531 1330 l 2,40,41
 1592 1330 1592 1330 1631 1369 c 1,42,-1
 1651 1348 l 1,43,44
 1607 1304 1607 1304 1607 1182.5 c 2,45,-1
 1607 1126 l 2,46,47
 1607 1019 1607 1019 1651 976 c 1,48,-1
 1631 957 l 1,49,50
 1581 1008 1581 1008 1396 1008 c 1,51,-1
 899 985 l 1,52,53
 715 985 715 985 665 1036 c 1,54,-1
 644 1016 l 1,55,56
 683 978 683 978 683 915.5 c 128,-1,57
 683 853 683 853 644 815 c 1,58,-1
 665 796 l 1,59,60
 713 846 713 846 867 846 c 1,61,-1
 1286 823 l 1,62,63
 1441 823 1441 823 1491 873 c 1,64,-1
 1512 853 l 1,65,66
 1468 809 1468 809 1468 684.5 c 2,67,-1
 1468 628 l 2,68,69
 1468 525 1468 525 1512 479 c 1,70,-1
 1491 458 l 1,71,72
 1443 508 1443 508 1288 508 c 1,73,-1
 869 486 l 1,74,75
 715 486 715 486 665 536 c 1,76,-1
 645 516 l 1,77,78
 674.980392157 486.019607843 674.980392157 486.019607843 679.990196078 444.509803922 c 128,-1,79
 685 403 685 403 686 385.5 c 128,-1,80
 687 368 687 368 686 331.5 c 128,-1,81
 685 295 685 295 685 288 c 2,82,-1
 668 168 l 1,83,84
 668 132 668 132 694.5 132 c 128,-1,85
 721 132 721 132 721 166 c 1,0,-1
EndSplineSet
EndChar

StartChar: eight
Encoding: 56 56 79
Width: 1826
VWidth: 1658
Flags: HW
LayerCount: 2
Fore
SplineSet
1051 -52 m 1,0,-1
 1075 -261 l 1,1,2
 1075 -286 1075 -286 1065 -309 c 128,-1,3
 1055 -332 1055 -332 1033.5 -332 c 0,4,5
 993 -332 993 -332 993 -267 c 0,6,7
 993 -234 993 -234 1011 -170.5 c 128,-1,8
 1029 -107 1029 -107 1029 -67 c 128,-1,9
 1029 -27 1029 -27 994.5 -6 c 128,-1,10
 960 15 960 15 908 15 c 128,-1,11
 856 15 856 15 799 -6 c 128,-1,12
 742 -27 742 -27 699 -72 c 128,-1,13
 656 -117 656 -117 656 -160.5 c 128,-1,14
 656 -204 656 -204 669.5 -266 c 128,-1,15
 683 -328 683 -328 683 -369 c 128,-1,16
 683 -410 683 -410 643 -410 c 128,-1,17
 603 -410 603 -410 603 -366 c 128,-1,18
 603 -322 603 -322 619 -254 c 128,-1,19
 635 -186 635 -186 635 -151 c 1,20,-1
 651 -29 l 1,21,22
 246.159090909 22.6818181818 246.159090909 22.6818181818 130.5 254 c 0,23,24
 98 319 98 319 98 389 c 0,25,26
 98 564 98 564 283 669 c 1,27,28
 130 764 130 764 130 936 c 0,29,30
 130 1158.17266187 130 1158.17266187 354.5 1268 c 0,31,32
 573.220588235 1375 573.220588235 1375 967 1375 c 0,33,34
 1383 1375 1383 1375 1571 1187 c 0,35,36
 1677 1081 1677 1081 1677 935 c 128,-1,37
 1677 789 1677 789 1539 688 c 1,38,39
 1742 591 1742 591 1742 398 c 0,40,41
 1742 51.9565217391 1742 51.9565217391 1175 -22 c 1,42,43
 1175 -105 1175 -105 1188.5 -271.5 c 128,-1,44
 1202 -438 1202 -438 1202 -492 c 0,45,46
 1202 -596 1202 -596 1162 -596 c 0,47,48
 1139 -596 1139 -596 1129.5 -565 c 128,-1,49
 1120 -534 1120 -534 1120 -504 c 1,50,-1
 1140 -86 l 1,51,52
 1140 22 1140 22 1097 22 c 0,53,54
 1075 22 1075 22 1063 -3 c 128,-1,55
 1051 -28 1051 -28 1051 -52 c 1,0,-1
1233 417 m 0,56,57
 1233 543 1233 543 972 543 c 0,58,59
 745 543 745 543 573 581 c 1,60,61
 570 565 570 565 570 535 c 0,62,63
 570 306 570 306 901.5 306 c 128,-1,64
 1233 306 1233 306 1233 417 c 0,56,57
925 1028 m 0,65,66
 640 1028 640 1028 640 918 c 0,67,68
 640 852.818181818 640 852.818181818 702 819 c 0,69,70
 735.634615385 800.653846154 735.634615385 800.653846154 775.817307692 796.826923077 c 128,-1,71
 816 793 816 793 826 792 c 0,72,73
 856 789 856 789 885 788 c 128,-1,74
 914 787 914 787 988.5 783 c 0,75,76
 1152.11254019 774.215434084 1152.11254019 774.215434084 1227 761 c 1,77,78
 1229 775 1229 775 1229 819.5 c 128,-1,79
 1229 864 1229 864 1204 909 c 128,-1,80
 1179 954 1179 954 1135.5 979 c 0,81,82
 1050.24 1028 1050.24 1028 925 1028 c 0,65,66
669 -695 m 0,83,84
 669 -730 669 -730 644.5 -730 c 128,-1,85
 620 -730 620 -730 620 -693 c 0,86,87
 620 -626 620 -626 645 -504 c 1,88,89
 669 -624 669 -624 669 -695 c 0,83,84
EndSplineSet
EndChar

StartChar: f
Encoding: 102 102 80
Width: 1765
VWidth: 1658
Flags: HW
HStem: 483 364<693.199 1236.14> 504 322<881.952 1479.75> 991 339<687.225 1620.64>
VStem: 154 65<-292.983 -121.106> 177 1445<1032.25 1328.64> 178 513<21.2999 511.727 817.226 1008.78> 178 13<-141.652 -79.7151> 437 101<-651.326 -268.06> 472 36<-423 -116.327> 681 97<-462.786 -124.404> 716 28<-237.817 -66.4673>
LayerCount: 2
Fore
SplineSet
699 413 m 1,0,-1
 691 209 l 1,1,2
 691 154 691 154 717.5 46.5 c 128,-1,3
 744 -61 744 -61 744 -112.5 c 128,-1,4
 744 -164 744 -164 761 -257 c 128,-1,5
 778 -350 778 -350 778 -406.5 c 128,-1,6
 778 -463 778 -463 729.5 -463 c 128,-1,7
 681 -463 681 -463 681 -407.5 c 128,-1,8
 681 -352 681 -352 698.5 -259.5 c 128,-1,9
 716 -167 716 -167 716 -121 c 128,-1,10
 716 -75 716 -75 684 -37.5 c 128,-1,11
 652 0 652 0 608 0 c 0,12,13
 508 0 508 0 508 -243 c 0,14,15
 508 -300 508 -300 523 -414 c 128,-1,16
 538 -528 538 -528 538 -570 c 0,17,18
 538 -652 538 -652 489 -652 c 0,19,20
 464 -652 464 -652 450.5 -630.5 c 128,-1,21
 437 -609 437 -609 437 -569 c 128,-1,22
 437 -529 437 -529 454.5 -423 c 128,-1,23
 472 -317 472 -317 472 -269 c 128,-1,24
 472 -221 472 -221 466.5 -178.5 c 128,-1,25
 461 -136 461 -136 446.5 -87.5 c 128,-1,26
 432 -39 432 -39 400.5 -9 c 128,-1,27
 369 21 369 21 319.5 21 c 128,-1,28
 270 21 270 21 230.5 -22 c 128,-1,29
 191 -65 191 -65 191 -103.5 c 128,-1,30
 191 -142 191 -142 205 -184 c 128,-1,31
 219 -226 219 -226 219 -249 c 0,32,33
 219 -293 219 -293 186.5 -293 c 128,-1,34
 154 -293 154 -293 154 -249 c 1,35,-1
 178 -89 l 1,36,-1
 177 1184 l 2,37,38
 177 1302 177 1302 105 1381 c 1,39,-1
 125 1401 l 1,40,41
 205 1330 205 1330 322 1330 c 2,42,-1
 1476 1330 l 2,43,44
 1593 1330 1593 1330 1673 1401 c 1,45,-1
 1693 1381 l 1,46,47
 1622 1301 1622 1301 1622 1201 c 128,-1,48
 1622 1101 1622 1101 1635 1046 c 128,-1,49
 1648 991 1648 991 1693 940 c 1,50,-1
 1673 920 l 1,51,52
 1619.75 991 1619.75 991 1541 991 c 2,53,-1
 782 991 l 2,54,55
 726 991 726 991 686 1029 c 1,56,-1
 667 1010 l 1,57,58
 705 970 705 970 705 913 c 128,-1,59
 705 856 705 856 667 816 c 1,60,-1
 686 797 l 1,61,62
 719 829 719 829 765.5 838 c 128,-1,63
 812 847 812 847 876 847 c 1,64,-1
 1256 826 l 1,65,66
 1349 826 1349 826 1420.5 842 c 128,-1,67
 1492 858 1492 858 1543 907 c 1,68,-1
 1563 887 l 1,69,70
 1488 805 1488 805 1488 660 c 128,-1,71
 1488 515 1488 515 1557 443 c 1,72,-1
 1536 423 l 1,73,74
 1445 504 1445 504 1242 504 c 1,75,-1
 868 483 l 1,76,77
 731 483 731 483 681 533 c 1,78,-1
 662 513 l 1,79,80
 699 475 699 475 699 413 c 1,0,-1
EndSplineSet
EndChar

StartChar: five
Encoding: 53 53 81
Width: 1871
VWidth: 1658
Flags: HW
LayerCount: 2
Fore
SplineSet
603 952 m 1,0,1
 665 875 665 875 583 793 c 1,2,-1
 595 781 l 1,3,4
 634 820 634 820 672 827 c 0,5,6
 796 851 796 851 927.5 851 c 128,-1,7
 1059 851 1059 851 1117 848 c 128,-1,8
 1175 845 1175 845 1253 834 c 128,-1,9
 1331 823 1331 823 1397 804.5 c 128,-1,10
 1463 786 1463 786 1530 752.5 c 128,-1,11
 1597 719 1597 719 1643.5 674 c 0,12,13
 1749 571.903225806 1749 571.903225806 1749 411 c 0,14,15
 1749 174.69047619 1749 174.69047619 1545 56.5 c 0,16,17
 1347.36986301 -58 1347.36986301 -58 987 -58 c 0,18,19
 708.5625 -58 708.5625 -58 543.5 -20 c 0,20,21
 366.473011897 20.7544145272 366.473011897 20.7544145272 262.5 98.5 c 0,22,23
 135.743644068 193.281779661 135.743644068 193.281779661 105 347 c 0,24,25
 93 409 93 409 51 445 c 1,26,-1
 68 464 l 1,27,28
 111 426 111 426 172 425 c 1,29,-1
 487 413 l 2,30,31
 528 411 528 411 550.5 420 c 128,-1,32
 573 429 573 429 584 456 c 1,33,-1
 630 438 l 1,34,35
 620 411 620 411 630 389.5 c 128,-1,36
 640 368 640 368 679.5 334.5 c 128,-1,37
 719 301 719 301 794.5 283.5 c 128,-1,38
 870 266 870 266 925.5 268.5 c 128,-1,39
 981 271 981 271 1019 278.5 c 128,-1,40
 1057 286 1057 286 1097 302 c 0,41,42
 1187 338 1187 338 1187 418 c 0,43,44
 1187 557 1187 557 874 557 c 0,45,46
 791 557 791 557 737.5 542.5 c 128,-1,47
 684 528 684 528 668.5 516 c 128,-1,48
 653 504 653 504 656 476 c 1,49,-1
 605 471 l 1,50,51
 602 499 602 499 584 507.5 c 128,-1,52
 566 516 566 516 523 518 c 2,53,-1
 268 527 l 2,54,55
 209 530 209 530 165 494 c 1,56,-1
 148 515 l 1,57,58
 190 551 190 551 198 611 c 2,59,-1
 277 1164 l 2,60,61
 285 1225 285 1225 250 1264 c 1,62,-1
 274 1284 l 1,63,64
 308 1244 308 1244 369 1244 c 2,65,-1
 1583 1243 l 2,66,67
 1643 1243 1643 1243 1682 1282 c 1,68,-1
 1703 1261 l 1,69,70
 1664 1222 1664 1222 1664 1162 c 2,71,-1
 1664 1008 l 2,72,73
 1664 948 1664 948 1703 909 c 1,74,-1
 1682 888 l 1,75,76
 1643 927 1643 927 1583 927 c 2,77,-1
 693 927 l 2,78,79
 652 927 652 927 619 966 c 1,80,-1
 603 952 l 1,0,1
EndSplineSet
EndChar

StartChar: four
Encoding: 52 52 82
Width: 1848
VWidth: 1658
Flags: HW
LayerCount: 2
Fore
SplineSet
828 1305 m 1,0,1
 847.038461538 1260 847.038461538 1260 908 1260 c 2,2,-1
 1427 1260 l 2,3,4
 1486 1260 1486 1260 1526 1300 c 1,5,-1
 1546 1279 l 1,6,7
 1508 1241 1508 1241 1508 1179 c 2,8,-1
 1508 632 l 2,9,10
 1508 572 1508 572 1468 532 c 1,11,-1
 1489 512 l 1,12,13
 1528 551 1528 551 1589 551 c 2,14,-1
 1656 551 l 2,15,16
 1717 551 1717 551 1756 590 c 1,17,-1
 1776 570 l 1,18,19
 1737 531 1737 531 1737 470 c 2,20,-1
 1737 270 l 2,21,22
 1737 209 1737 209 1776 170 c 1,23,-1
 1756 149 l 1,24,25
 1716 189 1716 189 1656 189 c 2,26,-1
 1580 189 l 2,27,28
 1520 189 1520 189 1481 228 c 1,29,-1
 1460 207 l 1,30,31
 1499 168 1499 168 1499 108 c 2,32,-1
 1499 58 l 2,33,34
 1499 -3 1499 -3 1538 -42 c 1,35,-1
 1518 -62 l 1,36,37
 1479 -23 1479 -23 1418 -23 c 2,38,-1
 1112 -23 l 2,39,40
 1052 -23 1052 -23 1013 -62 c 1,41,-1
 992 -42 l 1,42,43
 1031 -3 1031 -3 1031 58 c 2,44,-1
 1031 108 l 2,45,46
 1031 168 1031 168 1070 207 c 1,47,-1
 1050 228 l 1,48,49
 1011 189 1011 189 950 189 c 2,50,-1
 183 191 l 2,51,52
 122 191 122 191 83 152 c 1,53,-1
 63 173 l 1,54,55
 102 212 102 212 102 272 c 2,56,-1
 104 450 l 2,57,58
 104 509.961538462 104 509.961538462 59 529 c 1,59,-1
 73 563 l 1,60,61
 103 553 103 553 119.5 558.5 c 128,-1,62
 136 564 136 564 160 588 c 2,63,-1
 770 1202 l 2,64,65
 793 1225 793 1225 799 1243.5 c 128,-1,66
 805 1262 805 1262 794 1291 c 1,67,-1
 828 1305 l 1,0,1
974 905 m 2,68,-1
 686 609 l 2,69,70
 641 564 641 564 589 543 c 1,71,-1
 595 528 l 1,72,73
 652 551 652 551 710 551 c 2,74,-1
 950 551 l 2,75,76
 1011 551 1011 551 1050 512 c 1,77,-1
 1070 532 l 1,78,79
 1031 571 1031 571 1031 632 c 2,80,-1
 1031 883 l 2,81,82
 1031 941 1031 941 1054 999 c 1,83,-1
 1039 1004 l 1,84,85
 1016 947 1016 947 974 905 c 2,68,-1
EndSplineSet
EndChar

StartChar: g
Encoding: 103 103 83
Width: 1991
VWidth: 1658
Flags: HW
LayerCount: 2
Fore
SplineSet
1350 310 m 1,0,1
 1312 339.739130435 1312 339.739130435 1312 380 c 2,2,-1
 1312 388 l 2,3,4
 1312 428 1312 428 1348 464 c 1,5,-1
 1334 477 l 1,6,7
 1298 441 1298 441 1259 441 c 2,8,-1
 1162 441 l 2,9,10
 1101 441 1101 441 1062 402 c 1,11,-1
 1041 423 l 1,12,13
 1081 463 1081 463 1081 522 c 2,14,-1
 1081 670 l 2,15,16
 1081 730 1081 730 1041 770 c 1,17,-1
 1062 790 l 1,18,19
 1100 752 1100 752 1162 752 c 2,20,-1
 1776 752 l 2,21,22
 1838 752 1838 752 1876 790 c 1,23,-1
 1895 770 l 1,24,25
 1857 732 1857 732 1857 670 c 2,26,-1
 1857 251 l 2,27,28
 1857 220 1857 220 1865.5 201.5 c 128,-1,29
 1874 183 1874 183 1900 169 c 1,30,-1
 1884 140 l 1,31,32
 1866 149 1866 149 1843.5 149 c 128,-1,33
 1821 149 1821 149 1792 130 c 0,34,35
 1560 -25 1560 -25 1132 -44 c 1,36,-1
 1132 -140 l 1,37,-1
 1148 -251 l 1,38,39
 1148 -275 1148 -275 1138 -288 c 128,-1,40
 1128 -301 1128 -301 1115.5 -301 c 128,-1,41
 1103 -301 1103 -301 1093 -289 c 128,-1,42
 1083 -277 1083 -277 1083 -265.5 c 128,-1,43
 1083 -254 1083 -254 1087 -233.5 c 0,44,45
 1099 -172 1099 -172 1099 -108 c 128,-1,46
 1099 -44 1099 -44 1090 -44 c 0,47,48
 894 -44 894 -44 678 -17 c 1,49,50
 669 -14 669 -14 669 -124 c 128,-1,51
 669 -234 669 -234 687.5 -351 c 128,-1,52
 706 -468 706 -468 706 -513.5 c 0,53,54
 706 -607 706 -607 649 -607 c 0,55,56
 622 -607 622 -607 602.5 -586 c 128,-1,57
 583 -565 583 -565 583 -518.5 c 128,-1,58
 583 -472 583 -472 616 -352.5 c 128,-1,59
 649 -233 649 -233 649 -166 c 2,60,-1
 649 -10 l 1,61,62
 78 118.425605536 78 118.425605536 78 679 c 0,63,64
 78 1106.41935484 78 1106.41935484 429.5 1276.5 c 0,65,66
 633.066666667 1375 633.066666667 1375 926 1375 c 0,67,68
 1398.9266055 1375 1398.9266055 1375 1652.5 1189.5 c 0,69,70
 1788.62424764 1089.91917455 1788.62424764 1089.91917455 1827 962 c 0,71,72
 1845 902 1845 902 1891 870 c 1,73,-1
 1876 850 l 1,74,75
 1835 880 1835 880 1768 880 c 1,76,-1
 1346 866 l 1,77,78
 1283.09375 862.1875 1283.09375 862.1875 1261 818 c 1,79,-1
 1228 834 l 1,80,81
 1236 851 1236 851 1236 873 c 128,-1,82
 1236 895 1236 895 1202 940.5 c 128,-1,83
 1168 986 1168 986 1108.5 1009.5 c 128,-1,84
 1049 1033 1049 1033 951.5 1033 c 128,-1,85
 854 1033 854 1033 793 1005 c 128,-1,86
 732 977 732 977 696.5 927.5 c 0,87,88
 626 829.197183099 626 829.197183099 626 666.098591549 c 128,-1,89
 626 503 626 503 730.5 397.5 c 128,-1,90
 835 292 835 292 1004 292 c 128,-1,91
 1173 292 1173 292 1261 314 c 0,92,93
 1277 318 1277 318 1292 318 c 128,-1,94
 1307 318 1307 318 1338 294 c 1,95,-1
 1350 310 l 1,0,1
EndSplineSet
EndChar

StartChar: h
Encoding: 104 104 84
Width: 1960
VWidth: 1658
Flags: HW
LayerCount: 2
Fore
SplineSet
1257 974 m 1,0,-1
 1273 1202 l 1,1,2
 1273 1304 1273 1304 1226 1351 c 1,3,-1
 1246 1372 l 1,4,5
 1287 1332 1287 1332 1346 1332 c 2,6,-1
 1699 1332 l 2,7,8
 1759 1332 1759 1332 1799 1372 c 1,9,-1
 1819 1351 l 1,10,11
 1780 1312 1780 1312 1780 1251 c 2,12,-1
 1780 81 l 2,13,14
 1780 21 1780 21 1819 -19 c 1,15,-1
 1799 -39 l 1,16,17
 1760 0 1760 0 1699 0 c 2,18,-1
 1346 0 l 2,19,20
 1285 0 1285 0 1246 -39 c 1,21,-1
 1226 -19 l 1,22,23
 1264 19 1264 19 1264 81 c 2,24,-1
 1262 417 l 2,25,26
 1262 477 1262 477 1300 516 c 1,27,-1
 1280 536 l 1,28,29
 1242 498 1242 498 1180 498 c 2,30,-1
 770 498 l 2,31,32
 709 498 709 498 670 536 c 1,33,-1
 650 516 l 1,34,35
 652 493 652 493 652 274 c 2,36,-1
 652 -177 l 2,37,38
 652 -268 652 -268 675 -435 c 128,-1,39
 698 -602 698 -602 698 -671 c 128,-1,40
 698 -740 698 -740 681.5 -765 c 128,-1,41
 665 -790 665 -790 642 -790 c 128,-1,42
 619 -790 619 -790 602.5 -765.5 c 128,-1,43
 586 -741 586 -741 586 -715.5 c 128,-1,44
 586 -690 586 -690 596 -597.5 c 0,45,46
 626 -320 626 -320 626 -180 c 0,47,48
 626 -111 626 -111 583.5 -59.5 c 0,49,50
 502.213592233 39 502.213592233 39 359 39 c 0,51,52
 286 39 286 39 236.5 5 c 128,-1,53
 187 -29 187 -29 187 -89.5 c 128,-1,54
 187 -150 187 -150 206.5 -267 c 128,-1,55
 226 -384 226 -384 226 -429 c 0,56,57
 226 -522 226 -522 168 -522 c 0,58,59
 141 -522 141 -522 122 -501.5 c 128,-1,60
 103 -481 103 -481 103 -434.5 c 128,-1,61
 103 -388 103 -388 135.5 -268 c 128,-1,62
 168 -148 168 -148 168 -81 c 2,63,-1
 168 1251 l 2,64,65
 168 1314 168 1314 130 1351 c 1,66,-1
 149 1372 l 1,67,68
 190 1332 190 1332 249 1332 c 2,69,-1
 608 1332 l 2,70,71
 667 1332 667 1332 707 1372 c 1,72,-1
 728 1351 l 1,73,74
 682 1305 682 1305 682 1201 c 1,75,-1
 697 971 l 1,76,77
 697 868 697 868 650 821 c 1,78,-1
 670 800 l 1,79,80
 709 839 709 839 770 839 c 2,81,-1
 1184 839 l 2,82,83
 1245 839 1245 839 1283 800 c 1,84,-1
 1304 821 l 1,85,86
 1257 869 1257 869 1257 974 c 1,0,-1
EndSplineSet
EndChar

StartChar: i
Encoding: 105 105 85
Width: 882
VWidth: 1658
Flags: HW
LayerCount: 2
Fore
SplineSet
638 -539 m 1,0,-1
 649 -273 l 1,1,2
 649 -144.083333333 649 -144.083333333 639.5 -110.041666667 c 128,-1,3
 630 -76 630 -76 620 -50 c 128,-1,4
 610 -24 610 -24 594 -8 c 128,-1,5
 578 8 578 8 556 22.5 c 0,6,7
 514.275862069 50 514.275862069 50 424.137931034 50 c 128,-1,8
 334 50 334 50 272.5 -23 c 128,-1,9
 211 -96 211 -96 211 -198 c 0,10,11
 211 -236 211 -236 226 -311.5 c 128,-1,12
 241 -387 241 -387 241 -425 c 0,13,14
 241 -497 241 -497 190 -497 c 128,-1,15
 139 -497 139 -497 139 -427 c 0,16,17
 139 -388 139 -388 154.5 -310 c 128,-1,18
 170 -232 170 -232 170 -192 c 1,19,-1
 177 76 l 1,20,-1
 177 1251 l 2,21,22
 177 1313 177 1313 138 1351 c 1,23,-1
 158 1372 l 1,24,25
 200 1332 200 1332 258 1332 c 2,26,-1
 620 1332 l 2,27,28
 680 1332 680 1332 720 1372 c 1,29,-1
 740 1351 l 1,30,31
 701 1312 701 1312 701 1251 c 2,32,-1
 701 81 l 2,33,34
 701 29 701 29 690 -98.5 c 128,-1,35
 679 -226 679 -226 683 -295 c 1,36,-1
 682 -295 l 1,37,38
 719 -461 719 -461 719 -548 c 128,-1,39
 719 -635 719 -635 686 -635 c 0,40,41
 638 -635 638 -635 638 -539 c 1,0,-1
EndSplineSet
EndChar

StartChar: j
Encoding: 106 106 90
Width: 1650
VWidth: 1658
Flags: HW
LayerCount: 2
Fore
SplineSet
690 -130 m 1,0,-1
 710 -288 l 1,1,2
 710 -312 710 -312 701.5 -338 c 128,-1,3
 693 -364 693 -364 674 -364 c 0,4,5
 644 -364 644 -364 644 -290 c 0,6,7
 644 -259 644 -259 658 -198.5 c 128,-1,8
 672 -138 672 -138 672 -105.5 c 0,9,10
 672 -43.5294117647 672 -43.5294117647 608 -36 c 1,11,12
 354.42208027 1.64047245993 354.42208027 1.64047245993 233.5 91.5 c 0,13,14
 119.583393156 176.153625269 119.583393156 176.153625269 92 278 c 0,15,16
 64.0870032223 381.063372718 64.0870032223 381.063372718 62.5435016112 442.031686359 c 0,17,18
 59.7280163599 553.243353783 59.7280163599 553.243353783 22 587 c 1,19,-1
 31 597 l 1,20,21
 60 570 60 570 83 570 c 0,22,23
 171.448275862 570 171.448275862 570 302.724137931 593.5 c 128,-1,24
 434 617 434 617 483.5 622.5 c 128,-1,25
 533 628 533 628 569 673 c 1,26,-1
 591 656 l 1,27,28
 559 616 559 616 559 565 c 128,-1,29
 559 514 559 514 569.5 468.5 c 128,-1,30
 580 423 580 423 602.5 383.5 c 0,31,32
 651.772151899 297 651.772151899 297 760.386075949 297 c 128,-1,33
 869 297 869 297 926 360 c 128,-1,34
 983 423 983 423 983 532 c 2,35,-1
 984 1251 l 2,36,37
 984 1314 984 1314 946 1351 c 1,38,-1
 966 1372 l 1,39,40
 1006 1332 1006 1332 1066 1332 c 2,41,-1
 1414 1332 l 2,42,43
 1475 1332 1475 1332 1514 1372 c 1,44,-1
 1534 1351 l 1,45,46
 1495 1313 1495 1313 1495 1251 c 2,47,-1
 1495 473 l 2,48,49
 1495 146 1495 146 1196 22 c 1,50,-1
 1195 22 l 1,51,-1
 1195 -195 l 2,52,53
 1195 -230 1195 -230 1211.5 -298 c 128,-1,54
 1228 -366 1228 -366 1228 -400 c 0,55,56
 1228 -454 1228 -454 1185 -454 c 0,57,58
 1148 -454 1148 -454 1148 -412.5 c 128,-1,59
 1148 -371 1148 -371 1161 -309 c 128,-1,60
 1174 -247 1174 -247 1174 -203 c 128,-1,61
 1174 -159 1174 -159 1132 -114.5 c 0,62,63
 1051.30337079 -29 1051.30337079 -29 922 -29 c 0,64,65
 887 -29 887 -29 868.5 -54.5 c 128,-1,66
 850 -80 850 -80 850 -122 c 128,-1,67
 850 -164 850 -164 868 -254.5 c 128,-1,68
 886 -345 886 -345 886 -379.5 c 0,69,70
 886 -457 886 -457 846 -457 c 0,71,72
 824 -457 824 -457 814 -433.5 c 128,-1,73
 804 -410 804 -410 804 -385 c 1,74,-1
 828 -95 l 1,75,76
 828 -62 828 -62 798 -41.5 c 128,-1,77
 768 -21 768 -21 734 -21 c 0,78,79
 690 -21 690 -21 690 -130 c 1,0,-1
1192 -814 m 128,-1,81
 1167 -814 1167 -814 1167 -778 c 0,82,83
 1167 -694 1167 -694 1192 -587 c 1,84,85
 1217 -692 1217 -692 1217 -777 c 0,86,80
 1217 -814 1217 -814 1192 -814 c 128,-1,81
EndSplineSet
EndChar

StartChar: k
Encoding: 107 107 91
Width: 1978
VWidth: 1658
Flags: HW
LayerCount: 2
Fore
SplineSet
651 376 m 1,0,1
 696 353.5 696 353.5 696 294 c 2,2,-1
 696 81 l 2,3,4
 696 20 696 20 735 -19 c 1,5,-1
 715 -39 l 1,6,7
 676 0 676 0 615 0 c 2,8,-1
 268 0 l 2,9,10
 207 0 207 0 168 -39 c 1,11,-1
 148 -19 l 1,12,13
 187 20 187 20 187 81 c 2,14,-1
 187 1251 l 2,15,16
 187 1312 187 1312 148 1351 c 1,17,-1
 168 1372 l 1,18,19
 208 1332 208 1332 268 1332 c 2,20,-1
 615 1332 l 2,21,22
 675 1332 675 1332 715 1372 c 1,23,-1
 735 1351 l 1,24,25
 696 1312 696 1312 696 1251 c 2,26,-1
 696 940 l 2,27,28
 696 880 696 880 672 825 c 1,29,-1
 687 819 l 1,30,31
 710 873 710 873 754 915 c 2,32,-1
 1131 1276 l 2,33,34
 1154 1298 1154 1298 1159.5 1316 c 128,-1,35
 1165 1334 1165 1334 1156 1364 c 1,36,-1
 1191 1377 l 1,37,38
 1210.03846154 1332 1210.03846154 1332 1270 1332 c 2,39,-1
 1772 1332 l 2,40,41
 1828 1332 1828 1332 1888 1354 c 1,42,-1
 1893 1340 l 1,43,44
 1837 1319 1837 1319 1792 1279 c 2,45,-1
 1386 926 l 1,46,47
 1342 886 1342 886 1287 893 c 1,48,-1
 1283 862 l 1,49,50
 1337 857 1337 857 1371 806 c 1,51,-1
 1889 67 l 2,52,53
 1923 17 1923 17 1975 -11 c 1,54,-1
 1966 -27 l 1,55,56
 1915 0 1915 0 1854 0 c 2,57,-1
 1371 0 l 2,58,59
 1311.23076923 0 1311.23076923 0 1287 -45 c 1,60,-1
 1255 -28 l 1,61,62
 1269 1 1269 1 1266 20.5 c 128,-1,63
 1263 40 1263 40 1245 68 c 2,64,-1
 959 490 l 1,65,66
 926 541 926 541 933 596 c 1,67,-1
 906 599 l 1,68,69
 899 545 899 545 851 506 c 1,70,-1
 759 427 l 1,71,72
 733 406 733 406 714.5 402 c 128,-1,73
 696 398 696 398 667 409 c 1,74,-1
 651 376 l 1,0,1
EndSplineSet
EndChar

StartChar: l
Encoding: 108 108 92
Width: 1672
VWidth: 1658
Flags: HW
HStem: -39 21G<1578.5 1613> 0 357<680.822 1147 1201 1363.13> 0 333<902.87 1147 1201 1567.85>
VStem: 118 123<-694.577 -305.04> 172 519<328.316 1330.76> 172 21<-310.531 -124.094> 1140 68<-484.98 -265.541 -92.9825 0>
LayerCount: 2
Fore
SplineSet
1573 264 m 1,0,-1
 1569 134 l 1,1,2
 1569 25 1569 25 1613 -19 c 1,3,-1
 1592 -39 l 1,4,5
 1554 0 1554 0 1492 0 c 2,6,-1
 1201 0 l 1,7,8
 1202 -14 1202 -14 1202 -37 c 0,9,10
 1202 -93 1202 -93 1174 -93 c 128,-1,11
 1146 -93 1146 -93 1146 -30 c 0,12,13
 1146 -11 1146 -11 1147 0 c 1,14,-1
 252 0 l 2,15,16
 228 0 228 0 210.5 -86.5 c 128,-1,17
 193 -173 193 -173 193 -225 c 128,-1,18
 193 -277 193 -277 217 -411.5 c 128,-1,19
 241 -546 241 -546 241 -621.5 c 128,-1,20
 241 -697 241 -697 182 -697 c 0,21,22
 118 -697 118 -697 118 -619 c 128,-1,23
 118 -541 118 -541 145 -402.5 c 128,-1,24
 172 -264 172 -264 172 -194 c 2,25,-1
 171 1251 l 2,26,27
 171 1312 171 1312 131 1351 c 1,28,-1
 152 1372 l 1,29,30
 193 1332 193 1332 252 1332 c 2,31,-1
 610 1332 l 2,32,33
 671 1332 671 1332 710 1372 c 1,34,-1
 731 1351 l 1,35,36
 691 1312 691 1312 691 1251 c 2,37,-1
 691 426 l 2,38,39
 691 366 691 366 652 327 c 1,40,-1
 673 306 l 1,41,42
 724 357 724 357 896 357 c 1,43,-1
 1370 333 l 1,44,45
 1541 333 1541 333 1592 384 c 1,46,-1
 1613 364 l 1,47,48
 1573 325 1573 325 1573 264 c 1,0,-1
1174 -485 m 128,-1,50
 1140 -485 1140 -485 1140 -436 c 0,51,52
 1140 -392.666666667 1140 -392.666666667 1156.5 -330.333333333 c 128,-1,53
 1173 -268 1173 -268 1174 -263 c 1,54,55
 1176 -273 1176 -273 1184 -304 c 128,-1,56
 1192 -335 1192 -335 1196 -352 c 0,57,58
 1208 -403 1208 -403 1208 -444 c 128,-1,49
 1208 -485 1208 -485 1174 -485 c 128,-1,50
EndSplineSet
EndChar

StartChar: m
Encoding: 109 109 93
Width: 2407
VWidth: 1658
Flags: HW
HStem: -46 1378<209.938 597.55>
VStem: 167 45<-202.995 -47.0094> 173 820<1133.92 1331.05> 567 134<-529.672 -109.376> 599 71<-432.633 -59.875> 987 54<-197.985 -53.6882> 1004 25<-94.2545 -11.4292> 1349 106<-652.977 -238.455> 1377 31<-329.625 -53.2496> 1416 820<1133.5 1330.64> 1711 88<-481.938 -210.327> 1736 34<-322.181 -40.9131> 1739 497<0 977>
LayerCount: 2
Fore
SplineSet
167 -182 m 2,0,-1
 173 -43 l 1,1,-1
 173 1251 l 2,2,3
 173 1313 173 1313 134 1351 c 1,4,-1
 154 1372 l 1,5,6
 196 1332 196 1332 254 1332 c 2,7,-1
 895 1332 l 2,8,9
 956 1332 956 1332 985 1375 c 1,10,-1
 1011 1356 l 1,11,12
 993 1333 993 1333 993 1290 c 128,-1,13
 993 1247 993 1247 1025 1162.5 c 128,-1,14
 1057 1078 1057 1078 1095 1002.5 c 0,15,16
 1198 797.855263158 1198 797.855263158 1198 670 c 1,17,-1
 1212 670 l 1,18,19
 1212 803.324675325 1212 803.324675325 1314.5 1003 c 0,20,21
 1416 1200.72727273 1416 1200.72727273 1416 1301 c 0,22,23
 1416 1331 1416 1331 1397 1356 c 1,24,-1
 1424 1375 l 1,25,26
 1453 1332 1453 1332 1514 1332 c 2,27,-1
 2155 1332 l 2,28,29
 2215 1332 2215 1332 2255 1372 c 1,30,-1
 2275 1351 l 1,31,32
 2236 1312 2236 1312 2236 1251 c 2,33,-1
 2236 81 l 2,34,35
 2236 8 2236 8 2235 -19 c 1,36,-1
 2215 -39 l 1,37,38
 2195 0 2195 0 2155 0 c 2,39,-1
 1820 0 l 2,40,41
 1770 0 1770 0 1770 -207 c 0,42,43
 1770 -243 1770 -243 1784.5 -312.5 c 128,-1,44
 1799 -382 1799 -382 1799 -415 c 128,-1,45
 1799 -448 1799 -448 1786.5 -465 c 128,-1,46
 1774 -482 1774 -482 1756 -482 c 128,-1,47
 1738 -482 1738 -482 1724.5 -464.5 c 128,-1,48
 1711 -447 1711 -447 1711 -416 c 128,-1,49
 1711 -385 1711 -385 1723.5 -316.5 c 128,-1,50
 1736 -248 1736 -248 1736 -216 c 2,51,-1
 1739 81 l 1,52,-1
 1739 856 l 2,53,54
 1739 919 1739 919 1749 976 c 1,55,-1
 1742 977 l 1,56,57
 1722 879 1722 879 1636 670 c 128,-1,58
 1550 461 1550 461 1477 277 c 128,-1,59
 1404 93 1404 93 1404 29 c 1,60,-1
 1408 -198 l 2,61,62
 1409 -258 1409 -258 1432 -378.5 c 128,-1,63
 1455 -499 1455 -499 1455 -551.5 c 128,-1,64
 1455 -604 1455 -604 1438 -629.5 c 128,-1,65
 1421 -655 1421 -655 1399.5 -655 c 128,-1,66
 1378 -655 1378 -655 1363.5 -631.5 c 128,-1,67
 1349 -608 1349 -608 1349 -553 c 128,-1,68
 1349 -498 1349 -498 1363 -372 c 128,-1,69
 1377 -246 1377 -246 1377 -189.5 c 128,-1,70
 1377 -133 1377 -133 1371 -95.5 c 128,-1,71
 1365 -58 1365 -58 1356.5 -33.5 c 128,-1,72
 1348 -9 1348 -9 1332 8.5 c 128,-1,73
 1316 26 1316 26 1302 35 c 128,-1,74
 1288 44 1288 44 1266 49 c 0,75,76
 1151.75354417 74.9651035987 1151.75354417 74.9651035987 1076 25 c 0,77,78
 1029 -6 1029 -6 1029 -52 c 1,79,-1
 1041 -161 l 1,80,81
 1041 -198 1041 -198 1014 -198 c 128,-1,82
 987 -198 987 -198 987 -158 c 1,83,-1
 1004 29 l 1,84,85
 1004 96 1004 96 930.5 277.5 c 128,-1,86
 857 459 857 459 771 666 c 128,-1,87
 685 873 685 873 666 977 c 1,88,-1
 660 976 l 1,89,90
 670 919 670 919 670 856 c 2,91,-1
 670 -132 l 2,92,93
 670 -149 670 -149 685.5 -267 c 128,-1,94
 701 -385 701 -385 701 -434 c 128,-1,95
 701 -483 701 -483 680.5 -509.5 c 128,-1,96
 660 -536 660 -536 633 -536 c 128,-1,97
 606 -536 606 -536 586.5 -511 c 128,-1,98
 567 -486 567 -486 567 -442.5 c 128,-1,99
 567 -399 567 -399 582.5 -289.5 c 128,-1,100
 598 -180 598 -180 598 -138 c 1,101,-1
 599 -109 l 2,102,103
 599 -83 599 -83 586.5 -71 c 0,104,105
 560.458333333 -46 560.458333333 -46 384.729166667 -46 c 128,-1,106
 209 -46 209 -46 209 -48 c 2,107,-1
 212 -180 l 2,108,109
 212 -203 212 -203 189.5 -203 c 128,-1,110
 167 -203 167 -203 167 -182 c 2,0,-1
EndSplineSet
EndChar

StartChar: n
Encoding: 110 110 94
Width: 2009
VWidth: 1658
Flags: HW
LayerCount: 2
Fore
SplineSet
537 -310 m 1,0,-1
 561 -39 l 1,1,2
 561 -7 561 -7 525 13.5 c 0,3,4
 466.170731707 47 466.170731707 47 381 47 c 0,5,6
 266.666666667 47 266.666666667 47 223.5 1.5 c 0,7,8
 205 -18 205 -18 205 -56.5 c 128,-1,9
 205 -95 205 -95 228 -191 c 128,-1,10
 251 -287 251 -287 251 -326.5 c 128,-1,11
 251 -366 251 -366 236.5 -389.5 c 128,-1,12
 222 -413 222 -413 194 -413 c 128,-1,13
 166 -413 166 -413 151 -389.5 c 128,-1,14
 136 -366 136 -366 136 -326 c 128,-1,15
 136 -286 136 -286 160.5 -188 c 128,-1,16
 185 -90 185 -90 185 -40 c 2,17,-1
 184 1186 l 2,18,19
 184 1304 184 1304 112 1383 c 1,20,-1
 133 1404 l 1,21,22
 214 1332 214 1332 330 1332 c 2,23,-1
 629 1332 l 2,24,25
 693 1332 693 1332 737.5 1347.5 c 128,-1,26
 782 1363 782 1363 809 1409 c 1,27,-1
 842 1393 l 1,28,29
 816 1331 816 1331 816 1276 c 0,30,31
 816 1231.33333333 816 1231.33333333 973.5 1050.5 c 0,32,33
 1179.81818182 813.616161616 1179.81818182 813.616161616 1238.90909091 732.808080808 c 128,-1,34
 1298 652 1298 652 1316 602 c 1,35,-1
 1376 602 l 1,36,37
 1327 674 1327 674 1327 805 c 0,38,39
 1327 866 1327 866 1342 987.5 c 128,-1,40
 1357 1109 1357 1109 1357 1170 c 0,41,42
 1357 1334 1357 1334 1253 1383 c 1,43,-1
 1274 1404 l 1,44,45
 1355 1332 1355 1332 1471 1332 c 2,46,-1
 1676 1332 l 2,47,48
 1792 1332 1792 1332 1873 1404 c 1,49,-1
 1893 1383 l 1,50,51
 1822 1303 1822 1303 1822 1186 c 2,52,-1
 1820 -35 l 2,53,54
 1820 -78 1820 -78 1840 -163.5 c 128,-1,55
 1860 -249 1860 -249 1860 -292 c 0,56,57
 1860 -356 1860 -356 1811 -356 c 128,-1,58
 1762 -356 1762 -356 1762 -292 c 0,59,60
 1762 -250 1762 -250 1781 -168.5 c 128,-1,61
 1800 -87 1800 -87 1800 -56.5 c 128,-1,62
 1800 -26 1800 -26 1780 -13 c 128,-1,63
 1760 0 1760 0 1741 0 c 2,64,-1
 1346 0 l 2,65,66
 1262 0 1262 0 1262 -153 c 0,67,68
 1262 -216 1262 -216 1285.5 -335.5 c 128,-1,69
 1309 -455 1309 -455 1309 -516 c 0,70,71
 1309 -603 1309 -603 1244 -603 c 128,-1,72
 1179 -603 1179 -603 1179 -515 c 0,73,74
 1179 -459 1179 -459 1204.5 -352 c 128,-1,75
 1230 -245 1230 -245 1231 -191 c 2,76,-1
 1233 -58 l 1,77,78
 1236 35 1236 35 1214 63 c 2,79,-1
 735 670 l 2,80,81
 716 695 716 695 693 774 c 1,82,-1
 632 772 l 1,83,84
 684 718 684 718 684 652 c 2,85,-1
 684 81 l 1,86,-1
 703 -425 l 2,87,88
 703 -441 703 -441 693.5 -452.5 c 128,-1,89
 684 -464 684 -464 667.5 -464 c 128,-1,90
 651 -464 651 -464 640 -450.5 c 128,-1,91
 629 -437 629 -437 629 -420 c 2,92,-1
 641 -36 l 2,93,94
 641 -24 641 -24 632 -14 c 128,-1,95
 623 -4 623 -4 611 -4 c 0,96,97
 585 -4 585 -4 585 -44 c 128,-1,98
 585 -84 585 -84 598.5 -175 c 128,-1,99
 612 -266 612 -266 612 -300.5 c 0,100,101
 612 -376 612 -376 574.5 -376 c 128,-1,102
 537 -376 537 -376 537 -310 c 1,0,-1
EndSplineSet
EndChar

StartChar: nine
Encoding: 57 57 95
Width: 1948
VWidth: 1658
Flags: HW
LayerCount: 2
Fore
SplineSet
1304 582 m 1,0,1
 888 554 888 554 876 554 c 2,2,-1
 801 554 l 2,3,4
 409.371794872 554 409.371794872 554 224.5 694 c 0,5,6
 115.992795593 776.170504309 115.992795593 776.170504309 110 918 c 1,7,-1
 109 936 l 1,8,9
 109 1158.17266187 109 1158.17266187 333.5 1268 c 0,10,11
 552.220588235 1375 552.220588235 1375 946 1375 c 0,12,13
 1550.10638298 1375 1550.10638298 1375 1761.5 1054.5 c 0,14,15
 1861 903.64516129 1861 903.64516129 1861 679 c 0,16,17
 1861 373 1861 373 1696.5 196 c 128,-1,18
 1532 19 1532 19 1227 -24 c 1,19,-1
 1246 -499 l 2,20,21
 1246 -515 1246 -515 1236.5 -526.5 c 128,-1,22
 1227 -538 1227 -538 1211 -538 c 128,-1,23
 1195 -538 1195 -538 1184 -524.5 c 128,-1,24
 1173 -511 1173 -511 1173 -494 c 2,25,-1
 1184 -61 l 2,26,27
 1184 -30 1184 -30 1098 -30 c 0,28,29
 1072 -30 1072 -30 1072 -69.5 c 128,-1,30
 1072 -109 1072 -109 1085.5 -200 c 128,-1,31
 1099 -291 1099 -291 1099 -346 c 128,-1,32
 1099 -401 1099 -401 1061 -401 c 128,-1,33
 1023 -401 1023 -401 1023 -336 c 1,34,-1
 1047 -64 l 1,35,36
 1047 -43 1047 -43 1003 -35 c 128,-1,37
 959 -27 959 -27 940 -27 c 128,-1,38
 921 -27 921 -27 903.5 -27 c 128,-1,39
 886 -27 886 -27 873 -27.5 c 128,-1,40
 860 -28 860 -28 843 -32.5 c 128,-1,41
 826 -37 826 -37 819 -46.5 c 0,42,43
 802 -69.5714285714 802 -69.5714285714 802 -131.785714286 c 128,-1,44
 802 -194 802 -194 818.5 -345 c 128,-1,45
 835 -496 835 -496 835 -548.5 c 128,-1,46
 835 -601 835 -601 820 -625 c 128,-1,47
 805 -649 805 -649 777 -649 c 128,-1,48
 749 -649 749 -649 734.5 -625 c 128,-1,49
 720 -601 720 -601 720 -541 c 128,-1,50
 720 -481 720 -481 744.5 -300 c 128,-1,51
 769 -119 769 -119 769 -27 c 1,52,53
 449.8621673 10.5456273764 449.8621673 10.5456273764 265.5 143 c 0,54,55
 154.871897518 222.480384307 154.871897518 222.480384307 123 342 c 1,56,57
 109 404 109 404 68 436 c 1,58,-1
 84 457 l 1,59,60
 123 427 123 427 184.5 427 c 128,-1,61
 246 427 246 427 308.5 430.5 c 128,-1,62
 371 434 371 434 466 442.5 c 128,-1,63
 561 451 561 451 591 453.5 c 0,64,65
 654.723472669 458.810289389 654.723472669 458.810289389 676 503 c 1,66,-1
 708 486 l 1,67,68
 697 466 697 466 697 446 c 0,69,70
 697 384 697 384 778 343 c 128,-1,71
 859 302 859 302 989.5 302 c 128,-1,72
 1120 302 1120 302 1201 376.5 c 128,-1,73
 1282 451 1282 451 1304 582 c 1,0,1
676 918 m 0,74,75
 676 791 676 791 888 791 c 0,76,77
 892 791 892 791 1295 809 c 1,78,79
 1234 1028 1234 1028 955 1028 c 128,-1,80
 676 1028 676 1028 676 918 c 0,74,75
EndSplineSet
EndChar

StartChar: o
Encoding: 111 111 97
Width: 1986
VWidth: 1658
Flags: HW
LayerCount: 2
Fore
SplineSet
1011 -162 m 1,0,-1
 1018 -66 l 1,1,2
 1018 -41 1018 -41 994 -27.5 c 128,-1,3
 970 -14 970 -14 942 -14 c 128,-1,4
 914 -14 914 -14 892 -29 c 128,-1,5
 870 -44 870 -44 870 -72 c 2,6,-1
 870 -302 l 2,7,8
 870 -352 870 -352 891 -449 c 128,-1,9
 912 -546 912 -546 912 -587.5 c 128,-1,10
 912 -629 912 -629 894 -656 c 128,-1,11
 876 -683 876 -683 844.5 -683 c 128,-1,12
 813 -683 813 -683 797 -655 c 128,-1,13
 781 -627 781 -627 781 -582 c 128,-1,14
 781 -537 781 -537 804 -426 c 128,-1,15
 827 -315 827 -315 827 -254 c 0,16,17
 827 -7 827 -7 735 -7 c 0,18,19
 611 -7 611 -7 611 3 c 2,20,-1
 611 1 l 2,21,22
 611 -68 611 -68 641.5 -201.5 c 128,-1,23
 672 -335 672 -335 672 -393 c 128,-1,24
 672 -451 672 -451 651 -488.5 c 128,-1,25
 630 -526 630 -526 586.5 -526 c 128,-1,26
 543 -526 543 -526 518.5 -490 c 128,-1,27
 494 -454 494 -454 494 -396.5 c 128,-1,28
 494 -339 494 -339 523 -199.5 c 128,-1,29
 552 -60 552 -60 552 12 c 1,30,31
 315 87 315 87 195.5 257 c 128,-1,32
 76 427 76 427 76 677 c 0,33,34
 76 1194.82608696 76 1194.82608696 598 1331 c 0,35,36
 766.666666667 1375 766.666666667 1375 947.333333333 1375 c 128,-1,37
 1128 1375 1128 1375 1254.5 1355 c 128,-1,38
 1381 1335 1381 1335 1499.5 1284.5 c 128,-1,39
 1618 1234 1618 1234 1701.5 1156.5 c 128,-1,40
 1785 1079 1785 1079 1835 956.5 c 128,-1,41
 1885 834 1885 834 1885 677 c 0,42,43
 1885 357 1885 357 1705 181.5 c 128,-1,44
 1525 6 1525 6 1199 -34 c 1,45,46
 1195 -41 1195 -41 1195 -56 c 1,47,-1
 1200 -111 l 1,48,49
 1200 -162 1200 -162 1172 -162 c 128,-1,50
 1144 -162 1144 -162 1144 -113 c 1,51,-1
 1147 -57 l 1,52,53
 1147 -27 1147 -27 1104 -27 c 1,54,55
 1100 -36 1100 -36 1100 -61 c 1,56,-1
 1105 -158 l 1,57,58
 1105 -188 1105 -188 1094 -216 c 128,-1,59
 1083 -244 1083 -244 1057 -244 c 0,60,61
 1011 -244 1011 -244 1011 -162 c 1,0,-1
633 676 m 0,62,63
 633 310 633 310 981 310 c 128,-1,64
 1329 310 1329 310 1329 676 c 0,65,66
 1329 844 1329 844 1239 933 c 128,-1,67
 1149 1022 1149 1022 981 1022 c 128,-1,68
 813 1022 813 1022 723 933 c 128,-1,69
 633 844 633 844 633 676 c 0,62,63
EndSplineSet
EndChar

StartChar: one
Encoding: 49 49 103
Width: 1009
VWidth: 1658
Flags: HW
LayerCount: 2
Fore
SplineSet
191 1096 m 0,0,1
 326 1152 326 1152 424 1225 c 0,2,3
 452 1245 452 1245 461 1263 c 128,-1,4
 470 1281 470 1281 461 1309 c 1,5,-1
 500 1320 l 1,6,7
 509 1293 509 1293 526.5 1284.5 c 128,-1,8
 544 1276 544 1276 579 1276 c 2,9,-1
 743 1276 l 2,10,11
 804 1276 804 1276 843 1315 c 1,12,-1
 864 1294 l 1,13,14
 824 1254 824 1254 824 1195 c 2,15,-1
 824 81 l 2,16,17
 824 21 824 21 864 -19 c 1,18,-1
 843 -39 l 1,19,20
 804 0 804 0 743 0 c 2,21,-1
 426 0 l 2,22,23
 365 0 365 0 326 -39 c 1,24,-1
 306 -19 l 1,25,26
 345 20 345 20 345 81 c 2,27,-1
 345 765 l 2,28,29
 345 773 345 773 344 795 c 128,-1,30
 343 817 343 817 343.5 828.5 c 0,31,32
 345.01734104 863.398843931 345.01734104 863.398843931 360 884 c 1,33,-1
 378 870 l 1,34,35
 362.64 848.88 362.64 848.88 340.32 841.44 c 128,-1,36
 318 834 318 834 298 828.5 c 128,-1,37
 278 823 278 823 269.5 820.5 c 128,-1,38
 261 818 261 818 237 811.5 c 128,-1,39
 213 805 213 805 204 802.5 c 128,-1,40
 195 800 195 800 176 793 c 128,-1,41
 157 786 157 786 146.5 780 c 0,42,43
 116.75 763 116.75 763 101 742 c 1,44,-1
 80 759 l 1,45,46
 116 803 116 803 116 864 c 2,47,-1
 116 983 l 2,48,49
 116 1044 116 1044 73 1073 c 1,50,-1
 91 1101 l 1,51,52
 134 1073 134 1073 191 1096 c 0,0,1
EndSplineSet
EndChar

StartChar: p
Encoding: 112 112 105
Width: 1901
VWidth: 1658
Flags: HW
LayerCount: 2
Fore
SplineSet
178 -122 m 2,0,-1
 176 81 l 1,1,-1
 176 1255 l 2,2,3
 176 1316 176 1316 138 1354 c 1,4,-1
 158 1374 l 1,5,6
 196 1336 196 1336 257 1336 c 2,7,-1
 1120 1336 l 2,8,9
 1326.57142857 1336 1326.57142857 1336 1400.28571429 1324 c 128,-1,10
 1474 1312 1474 1312 1529 1297.5 c 128,-1,11
 1584 1283 1584 1283 1621 1263 c 128,-1,12
 1658 1243 1658 1243 1697 1212 c 128,-1,13
 1736 1181 1736 1181 1759 1142 c 0,14,15
 1812 1052.13043478 1812 1052.13043478 1812 940.565217391 c 128,-1,16
 1812 829 1812 829 1787.5 750.5 c 128,-1,17
 1763 672 1763 672 1709 609.5 c 0,18,19
 1597.112 480 1597.112 480 1328 480 c 2,20,-1
 777 480 l 2,21,22
 715 480 715 480 677 518 c 1,23,-1
 656 499 l 1,24,25
 696 459 696 459 696 399 c 2,26,-1
 696 81 l 2,27,28
 696 4 696 4 694 -108 c 1,29,-1
 649 -112 l 1,30,31
 636 0 636 0 615 0 c 2,32,-1
 257 0 l 2,33,34
 245.242857143 0 245.242857143 0 237.621428571 -48.5 c 128,-1,35
 230 -97 230 -97 230 -141.5 c 128,-1,36
 230 -186 230 -186 249 -293 c 128,-1,37
 268 -400 268 -400 268 -443 c 0,38,39
 268 -535 268 -535 201 -535 c 128,-1,40
 134 -535 134 -535 134 -441 c 0,41,42
 134 -396 134 -396 156 -282 c 128,-1,43
 178 -168 178 -168 178 -122 c 2,0,-1
696 921 m 2,44,-1
 696 862 l 2,45,46
 696 803 696 803 656 763 c 1,47,-1
 677 742 l 1,48,49
 716 781 716 781 777 781 c 2,50,-1
 1101 781 l 2,51,52
 1202.13333333 781 1202.13333333 781 1222.06666667 792.5 c 128,-1,53
 1242 804 1242 804 1255.5 816 c 0,54,55
 1280 837.777777778 1280 837.777777778 1280 878.888888889 c 128,-1,56
 1280 920 1280 920 1271.5 939.5 c 128,-1,57
 1263 959 1263 959 1247 970 c 128,-1,58
 1231 981 1231 981 1215 988 c 128,-1,59
 1199 995 1199 995 1175.5 998 c 0,60,61
 1144.16666667 1002 1144.16666667 1002 1105 1002 c 2,62,-1
 777 1002 l 2,63,64
 715 1002 715 1002 677 1040 c 1,65,-1
 656 1021 l 1,66,67
 696 981 696 981 696 921 c 2,44,-1
456 -68 m 1,68,-1
 482 -305 l 1,69,70
 482 -366 482 -366 437.5 -366 c 128,-1,71
 393 -366 393 -366 393 -304 c 0,72,73
 393 -268 393 -268 411.5 -178.5 c 128,-1,74
 430 -89 430 -89 430 -61.5 c 128,-1,75
 430 -34 430 -34 429.5 9 c 128,-1,76
 429 52 429 52 429 81 c 1,77,-1
 474 28 l 1,78,79
 467.063829787 28 467.063829787 28 461.531914894 -4.5 c 128,-1,80
 456 -37 456 -37 456 -68 c 1,68,-1
EndSplineSet
EndChar

StartChar: period
Encoding: 46 46 106
Width: 665
VWidth: 1658
Flags: HW
LayerCount: 2
Fore
SplineSet
409 0 m 2,0,-1
 265 0 l 2,1,2
 177 0 177 0 160 7 c 128,-1,3
 143 14 143 14 143 58 c 2,4,-1
 143 292 l 2,5,6
 143 336 143 336 159.5 342.5 c 128,-1,7
 176 349 176 349 265 349 c 2,8,-1
 409 349 l 2,9,10
 498 349 498 349 514.5 342.5 c 128,-1,11
 531 336 531 336 531 292 c 2,12,-1
 531 58 l 2,13,14
 531 14 531 14 514 7 c 128,-1,15
 497 0 497 0 409 0 c 2,0,-1
EndSplineSet
EndChar

StartChar: q
Encoding: 113 113 107
Width: 2019
VWidth: 1658
Flags: HW
LayerCount: 2
Fore
SplineSet
633 706 m 0,0,1
 633 342 633 342 985 342 c 128,-1,2
 1337 342 1337 342 1337 706 c 0,3,4
 1337 880 1337 880 1243 966.5 c 128,-1,5
 1149 1053 1149 1053 986 1053 c 128,-1,6
 823 1053 823 1053 728 966.5 c 128,-1,7
 633 880 633 880 633 706 c 0,0,1
1545 -580 m 1,8,-1
 1560 -350 l 1,9,10
 1560 -183 1560 -183 1470 -121 c 2,11,-1
 1324 -22 l 2,12,13
 1280 8.60869565217 1280 8.60869565217 1280 40 c 0,14,15
 1280 51 1280 51 1282 58 c 1,16,-1
 1245 67 l 1,17,18
 1239 39 1239 39 1222.5 27.5 c 128,-1,19
 1206 16 1206 16 1137.5 6 c 128,-1,20
 1069 -4 1069 -4 982 -4 c 128,-1,21
 895 -4 895 -4 814 3 c 128,-1,22
 733 10 733 10 639 30 c 128,-1,23
 545 50 545 50 467.5 82 c 128,-1,24
 390 114 390 114 316 169 c 128,-1,25
 242 224 242 224 191 295.5 c 0,26,27
 79 452.519607843 79 452.519607843 79 701 c 0,28,29
 79 1132.20524017 79 1132.20524017 441.5 1300 c 0,30,31
 657.537735849 1400 657.537735849 1400 985 1400 c 0,32,33
 1683.78059072 1400 1683.78059072 1400 1844 968.5 c 0,34,35
 1888 850 1888 850 1888 701 c 0,36,37
 1888 425 1888 425 1745 270 c 0,38,39
 1702 224 1702 224 1650 219 c 1,40,-1
 1651 193 l 1,41,42
 1657 194 1657 194 1686.5 194 c 128,-1,43
 1716 194 1716 194 1757 166 c 2,44,-1
 1885 80 l 2,45,46
 1929 50 1929 50 1980 49 c 1,47,-1
 1991 50 l 1,48,-1
 1993 25 l 1,49,50
 1937 21 1937 21 1891 -19 c 2,51,-1
 1706 -177 l 1,52,53
 1706 -208 1706 -208 1718 -269 c 128,-1,54
 1730 -330 1730 -330 1730 -360 c 0,55,56
 1730 -421 1730 -421 1686.5 -421 c 128,-1,57
 1643 -421 1643 -421 1643 -361 c 0,58,59
 1643 -333 1643 -333 1655.5 -278 c 128,-1,60
 1668 -223 1668 -223 1668 -181.5 c 128,-1,61
 1668 -140 1668 -140 1643 -140 c 0,62,63
 1624 -140 1624 -140 1615.5 -168.5 c 128,-1,64
 1607 -197 1607 -197 1607 -240 c 128,-1,65
 1607 -283 1607 -283 1621 -403.5 c 128,-1,66
 1635 -524 1635 -524 1635 -584 c 128,-1,67
 1635 -644 1635 -644 1593 -644 c 0,68,69
 1545 -644 1545 -644 1545 -580 c 1,8,-1
1687 -881 m 128,-1,71
 1653 -881 1653 -881 1653 -832 c 128,-1,72
 1653 -783.1875 1653 -783.1875 1668.5 -724.09375 c 128,-1,73
 1684 -665 1684 -665 1687 -652 c 1,74,75
 1690 -666 1690 -666 1700.5 -707.5 c 0,76,77
 1721 -788.523809524 1721 -788.523809524 1721 -834.761904762 c 128,-1,70
 1721 -881 1721 -881 1687 -881 c 128,-1,71
EndSplineSet
EndChar

StartChar: r
Encoding: 114 114 108
Width: 2066
VWidth: 1658
Flags: HW
LayerCount: 2
Fore
SplineSet
1768 -328 m 1,0,-1
 1790 -121 l 1,1,2
 1790 5.36452762928 1790 5.36452762928 1687.29518291 71.554362938 c 128,-1,3
 1584.59036581 137.744198247 1584.59036581 137.744198247 1471.98174903 130.155239256 c 128,-1,4
 1359.37313225 122.566280265 1359.37313225 122.566280265 1313.70530167 54.4316748532 c 0,5,6
 1291 20.5562586072 1291 20.5562586072 1291 -24 c 2,7,-1
 1286 -292 l 1,8,9
 1286 -347 1286 -347 1303 -455.5 c 128,-1,10
 1320 -564 1320 -564 1320 -619 c 0,11,12
 1320 -716 1320 -716 1265 -716 c 128,-1,13
 1210 -716 1210 -716 1210 -622 c 0,14,15
 1210 -560 1210 -560 1228 -444 c 128,-1,16
 1246 -328 1246 -328 1248.5 -268 c 128,-1,17
 1251 -208 1251 -208 1251 -12 c 0,18,19
 1251 40 1251 40 1219 108 c 128,-1,20
 1187 176 1187 176 1118 295 c 128,-1,21
 1049 414 1049 414 1005 505 c 1,22,-1
 975 522 l 1,23,24
 951 478 951 478 890 478 c 1,25,-1
 806 475 l 1,26,27
 720 475 720 475 677 517 c 1,28,-1
 656 497 l 1,29,30
 659 460 659 460 659 339 c 2,31,-1
 658 94 l 2,32,33
 658 -16 658 -16 662 -68 c 1,34,-1
 681 -215 l 1,35,36
 681 -256 681 -256 653 -256 c 128,-1,37
 625 -256 625 -256 625 -218 c 1,38,-1
 641 -94 l 1,39,40
 641 -49 641 -49 614.5 -22.5 c 128,-1,41
 588 4 588 4 545.5 4 c 128,-1,42
 503 4 503 4 470.5 -33.5 c 128,-1,43
 438 -71 438 -71 438 -131 c 128,-1,44
 438 -191 438 -191 460 -293.5 c 128,-1,45
 482 -396 482 -396 482 -441 c 0,46,47
 482 -535 482 -535 415 -535 c 128,-1,48
 348 -535 348 -535 348 -443 c 0,49,50
 348 -400 348 -400 367.5 -293 c 128,-1,51
 387 -186 387 -186 387 -123 c 128,-1,52
 387 -60 387 -60 358 -19.5 c 128,-1,53
 329 21 329 21 292 21 c 128,-1,54
 255 21 255 21 229 -4.5 c 128,-1,55
 203 -30 203 -30 203 -68 c 1,56,-1
 230 -305 l 1,57,58
 230 -366 230 -366 185 -366 c 128,-1,59
 140 -366 140 -366 140 -304 c 0,60,61
 140 -268 140 -268 159 -178.5 c 128,-1,62
 178 -89 178 -89 177 -39 c 128,-1,63
 176 11 176 11 176 1255 c 0,64,65
 176 1317 176 1317 138 1354 c 1,66,-1
 158 1374 l 1,67,68
 197 1336 197 1336 257 1336 c 2,69,-1
 1153 1336 l 2,70,71
 1363 1336 1363 1336 1435.5 1323.5 c 128,-1,72
 1508 1311 1508 1311 1562.5 1297 c 128,-1,73
 1617 1283 1617 1283 1654.5 1262.5 c 128,-1,74
 1692 1242 1692 1242 1730.5 1211.5 c 128,-1,75
 1769 1181 1769 1181 1792.5 1141.5 c 0,76,77
 1845 1053.25531915 1845 1053.25531915 1845 953.127659574 c 128,-1,78
 1845 853 1845 853 1829.5 789.5 c 128,-1,79
 1814 726 1814 726 1777.5 669.5 c 0,80,81
 1699.65486726 549 1699.65486726 549 1504 549 c 1,82,-1
 1496 526 l 1,83,84
 1559.17647059 500.729411765 1559.17647059 500.729411765 1580 457 c 0,85,86
 1667.99123768 264.519167579 1667.99123768 264.519167579 1709.99561884 213.25958379 c 128,-1,87
 1752 162 1752 162 1788 131 c 128,-1,88
 1824 100 1824 100 1891 68 c 128,-1,89
 1958 36 1958 36 1972 26.5 c 128,-1,90
 1986 17 1986 17 1986 11 c 0,91,92
 1986 -89 1986 -89 2013 -246 c 128,-1,93
 2040 -403 2040 -403 2040 -448 c 128,-1,94
 2040 -493 2040 -493 2036.5 -513 c 128,-1,95
 2033 -533 2033 -533 2021 -552.5 c 128,-1,96
 2009 -572 2009 -572 1986 -572 c 128,-1,97
 1963 -572 1963 -572 1951.5 -539 c 128,-1,98
 1940 -506 1940 -506 1940 -458 c 128,-1,99
 1940 -410 1940 -410 1953 -286.5 c 128,-1,100
 1966 -163 1966 -163 1966 -100 c 0,101,102
 1966 25 1966 25 1885 25 c 0,103,104
 1845 25 1845 25 1825.5 11 c 128,-1,105
 1806 -3 1806 -3 1806 -46.5 c 128,-1,106
 1806 -90 1806 -90 1824 -185 c 128,-1,107
 1842 -280 1842 -280 1842 -328.5 c 128,-1,108
 1842 -377 1842 -377 1805 -377 c 128,-1,109
 1768 -377 1768 -377 1768 -328 c 1,0,-1
1102 1004 m 1,110,-1
 866 997 l 1,111,112
 721 997 721 997 677 1040 c 1,113,-1
 656 1021 l 1,114,115
 696 982 696 982 696 921 c 2,116,-1
 696 854 l 2,117,118
 696 794 696 794 656 754 c 1,119,-1
 677 734 l 1,120,121
 720 778 720 778 855 778 c 1,122,-1
 1108 769 l 1,123,124
 1209 769 1209 769 1264.5 795.5 c 128,-1,125
 1320 822 1320 822 1320 893 c 0,126,127
 1320 938 1320 938 1289 963.5 c 128,-1,128
 1258 989 1258 989 1214 996.5 c 128,-1,129
 1170 1004 1170 1004 1102 1004 c 1,110,-1
EndSplineSet
EndChar

StartChar: s
Encoding: 115 115 109
Width: 1887
VWidth: 1658
Flags: HW
LayerCount: 2
Fore
SplineSet
762 -292 m 1,0,-1
 772 -191 l 1,1,-1
 772 -4 l 1,2,3
 502.6 10.1789473684 502.6 10.1789473684 370 69.5 c 128,-1,4
 237.262259353 128.882673447 237.262259353 128.882673447 173.5 219 c 0,5,6
 136 272 136 272 115.5 337.5 c 128,-1,7
 95 403 95 403 48 436 c 1,8,-1
 63 457 l 1,9,10
 108 427 108 427 160.5 427 c 128,-1,11
 213 427 213 427 295 431 c 128,-1,12
 377 435 377 435 480 440.5 c 128,-1,13
 583 446 583 446 627 448 c 128,-1,14
 671 450 671 450 692 460.5 c 128,-1,15
 713 471 713 471 722 499 c 1,16,-1
 767 484 l 1,17,18
 764 476 764 476 764 463 c 0,19,20
 764 430 764 430 819 388 c 128,-1,21
 874 346 874 346 1018 346 c 0,22,23
 1114.8 346 1114.8 346 1155.5 379 c 0,24,25
 1174 394 1174 394 1174 415 c 0,26,27
 1174 464 1174 464 1120 480 c 128,-1,28
 1066 496 1066 496 989.5 507.5 c 128,-1,29
 913 519 913 519 836.5 526 c 128,-1,30
 760 533 760 533 671 546 c 128,-1,31
 582 559 582 559 503 574.5 c 128,-1,32
 424 590 424 590 349.5 620 c 128,-1,33
 275 650 275 650 222 690.5 c 128,-1,34
 169 731 169 731 136.5 794.5 c 128,-1,35
 104 858 104 858 104 939 c 128,-1,36
 104 1020 104 1020 129.5 1087 c 128,-1,37
 155 1154 155 1154 199 1202 c 128,-1,38
 243 1250 243 1250 305.5 1287 c 128,-1,39
 368 1324 368 1324 436.5 1347 c 128,-1,40
 505 1370 505 1370 585.5 1384.5 c 0,41,42
 727.068965517 1410 727.068965517 1410 852.034482759 1410 c 128,-1,43
 977 1410 977 1410 1042.5 1406.5 c 128,-1,44
 1108 1403 1108 1403 1196.5 1393.5 c 128,-1,45
 1285 1384 1285 1384 1356.5 1362.5 c 128,-1,46
 1428 1341 1428 1341 1498.5 1308 c 0,47,48
 1643.75339367 1240.00904977 1643.75339367 1240.00904977 1703 1097 c 1,49,50
 1727 1046 1727 1046 1769 1002 c 1,51,-1
 1756 979 l 1,52,53
 1714 1008 1714 1008 1659 1008 c 2,54,-1
 1646 1008 l 1,55,56
 1566 1005 1566 1005 1417.5 996.5 c 128,-1,57
 1269 988 1269 988 1226.5 986 c 128,-1,58
 1184 984 1184 984 1165.5 974 c 128,-1,59
 1147 964 1147 964 1139 936 c 1,60,-1
 1095 948 l 1,61,62
 1098 957 1098 957 1098 967 c 0,63,64
 1098 1009 1098 1009 1030 1039.5 c 128,-1,65
 962 1070 962 1070 876 1070 c 0,66,67
 708 1070 708 1070 708 1004 c 0,68,69
 708 944.974789916 708 944.974789916 959.5 917.5 c 0,70,71
 1019 911 1019 911 1093.5 903.5 c 0,72,73
 1354.64136044 877.210601298 1354.64136044 877.210601298 1494.16885834 833.148335185 c 0,74,75
 1786 740.9891435 1786 740.9891435 1786 482 c 0,76,77
 1786 376 1786 376 1742 291.5 c 128,-1,78
 1698 207 1698 207 1627.5 154 c 128,-1,79
 1557 101 1557 101 1461 66 c 0,80,81
 1288.2 3 1288.2 3 1066 3 c 0,82,83
 1006 3 1006 3 995 4 c 1,84,85
 941 4 941 4 941 -79 c 2,86,-1
 941 -103 l 2,87,88
 941 -130 941 -130 954.5 -182.5 c 128,-1,89
 968 -235 968 -235 968 -261 c 0,90,91
 968 -314 968 -314 931 -314 c 0,92,93
 912 -314 912 -314 901.5 -298 c 128,-1,94
 891 -282 891 -282 891 -258 c 128,-1,95
 891 -234 891 -234 903.5 -176.5 c 128,-1,96
 916 -119 916 -119 916 -93 c 128,-1,97
 916 -67 916 -67 915.5 -56.5 c 128,-1,98
 915 -46 915 -46 912.5 -30.5 c 128,-1,99
 910 -15 910 -15 904.5 -8 c 0,100,101
 890.357142857 10 890.357142857 10 855.678571429 10 c 0,102,103
 794 10 794 10 794 -98 c 1,104,-1
 800 -262 l 1,105,106
 800 -328 800 -328 781 -328 c 128,-1,107
 762 -328 762 -328 762 -292 c 1,0,-1
EndSplineSet
EndChar

StartChar: seven
Encoding: 55 55 111
Width: 1315
VWidth: 1658
Flags: HW
LayerCount: 2
Fore
SplineSet
79 1073 m 1,0,-1
 84 1201 l 1,1,2
 84 1310 84 1310 40 1353 c 1,3,-1
 60 1373 l 1,4,5
 100 1334 100 1334 160 1334 c 2,6,-1
 1149 1334 l 2,7,8
 1210 1334 1210 1334 1249 1373 c 1,9,-1
 1268 1353 l 1,10,11
 1230 1315 1230 1315 1230 1253 c 1,12,-1
 1225 1125 l 2,13,14
 1225 1112 1225 1112 1229 1076 c 0,15,16
 1237.36986301 1000.67123288 1237.36986301 1000.67123288 1216 953 c 1,17,-1
 763 81 l 1,18,19
 759 -33 759 -33 772 -242 c 128,-1,20
 785 -451 785 -451 785 -507.5 c 0,21,22
 785 -614 785 -614 745 -614 c 0,23,24
 722 -614 722 -614 712.5 -583 c 128,-1,25
 703 -552 703 -552 703 -502 c 128,-1,26
 703 -452 703 -452 717 -313.5 c 128,-1,27
 731 -175 731 -175 731 -105 c 0,28,29
 731 4 731 4 687 4 c 0,30,31
 666 4 666 4 654 -21 c 128,-1,32
 642 -46 642 -46 642 -70 c 1,33,-1
 665 -279 l 1,34,35
 665 -351 665 -351 624 -351 c 0,36,37
 603 -351 603 -351 593.5 -330 c 128,-1,38
 584 -309 584 -309 584 -281 c 128,-1,39
 584 -253 584 -253 602 -189.5 c 128,-1,40
 620 -126 620 -126 620 -86 c 128,-1,41
 620 -46 620 -46 585 -25 c 128,-1,42
 550 -4 550 -4 484 -4 c 128,-1,43
 418 -4 418 -4 340.5 -56 c 128,-1,44
 263 -108 263 -108 263 -191 c 0,45,46
 263 -222 263 -222 276 -284 c 128,-1,47
 289 -346 289 -346 289 -387.5 c 128,-1,48
 289 -429 289 -429 252 -429 c 0,49,50
 210 -429 210 -429 210 -384.5 c 128,-1,51
 210 -340 210 -340 226 -272 c 128,-1,52
 242 -204 242 -204 242 -170 c 1,53,-1
 261 90 l 1,54,55
 321 210 321 210 461 486.5 c 128,-1,56
 601 763 601 763 675 911 c 1,57,58
 708 973 708 973 765 1011 c 1,59,-1
 756 1031 l 1,60,61
 690 986 690 986 587 986 c 1,62,-1
 209 999 l 1,63,64
 106 999 106 999 60 953 c 1,65,-1
 40 974 l 1,66,67
 79 1013 79 1013 79 1073 c 1,0,-1
616 -502 m 1,68,69
 640 -611.714285714 640 -611.714285714 640 -693 c 0,70,71
 640 -728 640 -728 615 -728 c 1,72,73
 619.085384786 -735.542248836 619.085384786 -735.542248836 617.21399177 -734.979423868 c 0,74,75
 605.038959753 -731.317760104 605.038959753 -731.317760104 591 -692 c 1,76,77
 591 -616.285714286 591 -616.285714286 616 -502 c 1,68,69
EndSplineSet
EndChar

StartChar: six
Encoding: 54 54 112
Width: 1950
VWidth: 1658
Flags: HW
LayerCount: 2
Fore
SplineSet
835 -59 m 2,0,-1
 847 -491 l 2,1,2
 847 -508 847 -508 836 -522 c 128,-1,3
 825 -536 825 -536 809 -536 c 128,-1,4
 793 -536 793 -536 783 -524 c 128,-1,5
 773 -512 773 -512 773 -496 c 0,6,7
 773 -412 773 -412 782.5 -258.5 c 128,-1,8
 792 -105 792 -105 794 -25 c 1,9,10
 405.570194384 20.6976241901 405.570194384 20.6976241901 228 233.5 c 0,11,12
 91 397.682539683 91 397.682539683 91 661 c 0,13,14
 91 1212.30769231 91 1212.30769231 623.5 1327 c 0,15,16
 799.928571429 1365 799.928571429 1365 1027 1365 c 0,17,18
 1406.48717949 1365 1406.48717949 1365 1643.5 1226 c 0,19,20
 1784.99449518 1143.01826598 1784.99449518 1143.01826598 1829 997 c 1,21,22
 1844 934 1844 934 1883 903 c 1,23,-1
 1867 881 l 1,24,25
 1827 912 1827 912 1766.5 912 c 128,-1,26
 1706 912 1706 912 1639.5 908 c 128,-1,27
 1573 904 1573 904 1488.5 896.5 c 128,-1,28
 1404 889 1404 889 1367 886 c 128,-1,29
 1330 883 1330 883 1309.5 872.5 c 128,-1,30
 1289 862 1289 862 1276 836 c 1,31,-1
 1243 853 l 1,32,33
 1254 873 1254 873 1254 893 c 0,34,35
 1254 955 1254 955 1173.5 996 c 128,-1,36
 1093 1037 1093 1037 962.5 1037 c 128,-1,37
 832 1037 832 1037 751 962.5 c 128,-1,38
 670 888 670 888 648 757 c 1,39,40
 1064 785 1064 785 1076 785 c 2,41,-1
 1151 785 l 2,42,43
 1665.17391304 785 1665.17391304 785 1800.5 560 c 0,44,45
 1842 491 1842 491 1842 404 c 128,-1,46
 1842 317 1842 317 1808 248 c 128,-1,47
 1774 179 1774 179 1718.5 133.5 c 128,-1,48
 1663 88 1663 88 1584 55 c 0,49,50
 1444.04152249 -3.46366782007 1444.04152249 -3.46366782007 1251 -24 c 1,51,52
 1251 -116 1251 -116 1275 -298 c 128,-1,53
 1299 -480 1299 -480 1299 -540 c 128,-1,54
 1299 -600 1299 -600 1284.5 -623 c 128,-1,55
 1270 -646 1270 -646 1242 -646 c 128,-1,56
 1214 -646 1214 -646 1199 -623 c 128,-1,57
 1184 -600 1184 -600 1184 -548 c 128,-1,58
 1184 -496 1184 -496 1200.5 -344 c 128,-1,59
 1217 -192 1217 -192 1217 -146.5 c 128,-1,60
 1217 -101 1217 -101 1215 -88.5 c 128,-1,61
 1213 -76 1213 -76 1211.5 -66.5 c 128,-1,62
 1210 -57 1210 -57 1203 -50 c 128,-1,63
 1196 -43 1196 -43 1193.5 -38.5 c 128,-1,64
 1191 -34 1191 -34 1179 -31 c 128,-1,65
 1167 -28 1167 -28 1163.5 -26.5 c 128,-1,66
 1160 -25 1160 -25 1142.5 -24.5 c 128,-1,67
 1125 -24 1125 -24 1121 -24 c 2,68,-1
 1095 -24 l 2,69,70
 1039.78947368 -24 1039.78947368 -24 1005.89473684 -35.5 c 128,-1,71
 972 -47 972 -47 972 -61 c 0,72,73
 972 -107 972 -107 984.5 -197.5 c 128,-1,74
 997 -288 997 -288 997 -343.5 c 128,-1,75
 997 -399 997 -399 958.5 -399 c 128,-1,76
 920 -399 920 -399 920 -344.5 c 128,-1,77
 920 -290 920 -290 934 -198.5 c 128,-1,78
 948 -107 948 -107 948 -67.5 c 128,-1,79
 948 -28 948 -28 922 -28 c 0,80,81
 835 -28 835 -28 835 -59 c 2,0,-1
657 530 m 1,82,83
 718 311 718 311 997 311 c 128,-1,84
 1276 311 1276 311 1276 421 c 0,85,86
 1276 547 1276 547 1063 547 c 0,87,88
 1038 547 1038 547 657 530 c 1,82,83
EndSplineSet
EndChar

StartChar: t
Encoding: 116 116 114
Width: 1667
VWidth: 1658
Flags: HW
HStem: 999 335<97.9579 582.347 1069.7 1562.45>
VStem: 532 79<-428.927 -193.952> 564 20<-243.771 -143.558> 921 82<-350.965 -95.1363> 928 50<-727.985 -508.078> 957 23<-164.726 -49.9844> 1041 82<-613.951 -122.776> 1068 18<-113.103 -32.2595>
LayerCount: 2
Fore
SplineSet
92 1073 m 1,0,-1
 97 1201 l 1,1,2
 97 1311 97 1311 54 1353 c 1,3,-1
 74 1373 l 1,4,5
 114 1334 114 1334 173 1334 c 2,6,-1
 1486 1334 l 2,7,8
 1547 1334 1547 1334 1586 1373 c 1,9,-1
 1606 1353 l 1,10,11
 1568 1315 1568 1315 1568 1253 c 1,12,-1
 1563 1125 l 1,13,14
 1563 1017 1563 1017 1606 974 c 1,15,-1
 1586 953 l 1,16,17
 1541 999 1541 999 1440 999 c 1,18,-1
 1219 985 l 1,19,20
 1114 985 1114 985 1068 1031 c 1,21,-1
 1047 1011 l 1,22,23
 1086 973 1086 973 1086 911 c 2,24,-1
 1086 81 l 2,25,26
 1086 -23 1086 -23 1104.5 -229 c 128,-1,27
 1123 -435 1123 -435 1123 -499.5 c 0,28,29
 1123 -614 1123 -614 1082 -614 c 128,-1,30
 1041 -614 1041 -614 1041 -533 c 128,-1,31
 1041 -452 1041 -452 1054.5 -313.5 c 128,-1,32
 1068 -175 1068 -175 1068 -105 c 0,33,34
 1068 4 1068 4 1025 4 c 0,35,36
 1004 4 1004 4 992 -21 c 128,-1,37
 980 -46 980 -46 980 -70 c 1,38,-1
 1003 -279 l 1,39,40
 1003 -351 1003 -351 962 -351 c 0,41,42
 941 -351 941 -351 931 -330 c 128,-1,43
 921 -309 921 -309 921 -281 c 128,-1,44
 921 -253 921 -253 939 -189.5 c 128,-1,45
 957 -126 957 -126 957 -86 c 128,-1,46
 957 -46 957 -46 922.5 -25 c 128,-1,47
 888 -4 888 -4 835.5 -4 c 128,-1,48
 783 -4 783 -4 726.5 -25 c 128,-1,49
 670 -46 670 -46 627 -90.5 c 128,-1,50
 584 -135 584 -135 584 -178.5 c 128,-1,51
 584 -222 584 -222 597.5 -284 c 128,-1,52
 611 -346 611 -346 611 -387.5 c 128,-1,53
 611 -429 611 -429 574 -429 c 0,54,55
 532 -429 532 -429 532 -384.5 c 128,-1,56
 532 -340 532 -340 548 -272 c 128,-1,57
 564 -204 564 -204 564 -170 c 2,58,-1
 564 90 l 1,59,60
 566 638 566 638 566 911 c 0,61,62
 566 974 566 974 604 1011 c 1,63,-1
 584 1031 l 1,64,65
 540 986 540 986 438 986 c 1,66,-1
 223 999 l 1,67,68
 120 999 120 999 74 953 c 1,69,-1
 54 974 l 1,70,71
 92 1012 92 1012 92 1073 c 1,0,-1
954 -502 m 1,72,73
 978 -611.714285714 978 -611.714285714 978 -693 c 0,74,75
 978 -728 978 -728 953 -728 c 128,-1,76
 928 -728 928 -728 928 -696 c 0,77,78
 928 -606 928 -606 954 -502 c 1,72,73
EndSplineSet
EndChar

StartChar: three
Encoding: 51 51 115
Width: 1855
VWidth: 1658
Flags: HW
LayerCount: 2
Fore
SplineSet
941.058268096 827.969944721 m 0,0,1
 1146 828.264074209 1146 828.264074209 1146 896 c 0,2,3
 1146 966.095238095 1146 966.095238095 989.5 981 c 0,4,5
 958 984 958 984 919.5 984 c 128,-1,6
 881 984 881 984 829.5 973.5 c 128,-1,7
 778 963 778 963 739.5 937 c 128,-1,8
 701 911 701 911 709 876 c 1,9,-1
 650 862 l 1,10,11
 644 890 644 890 622 899.5 c 128,-1,12
 600 909 600 909 551 909 c 2,13,-1
 232 909 l 2,14,15
 170 909 170 909 125 874 c 1,16,-1
 109 894 l 1,17,18
 153 928 153 928 167 986.5 c 128,-1,19
 181 1045 181 1045 214 1090.5 c 128,-1,20
 247 1136 247 1136 291.5 1167.5 c 128,-1,21
 336 1199 336 1199 397 1222 c 128,-1,22
 458 1245 458 1245 519 1258.5 c 128,-1,23
 580 1272 580 1272 656 1280 c 0,24,25
 779.5 1293 779.5 1293 886.75 1293 c 128,-1,26
 994 1293 994 1293 1054 1289.5 c 128,-1,27
 1114 1286 1114 1286 1192.5 1276 c 128,-1,28
 1271 1266 1271 1266 1341 1250 c 128,-1,29
 1411 1234 1411 1234 1480.5 1206.5 c 128,-1,30
 1550 1179 1550 1179 1600.5 1142.5 c 0,31,32
 1713 1061.18811881 1713 1061.18811881 1713 929.094059406 c 128,-1,33
 1713 797 1713 797 1602 719 c 0,34,35
 1563 691 1563 691 1508 690 c 1,36,-1
 1508 672 l 1,37,38
 1562 675 1562 675 1603 649 c 1,39,40
 1747 562 1747 562 1747 382 c 0,41,42
 1747 167.757575758 1747 167.757575758 1533 64 c 0,43,44
 1328.8125 -35 1328.8125 -35 965 -35 c 0,45,46
 664.066666667 -35 664.066666667 -35 519 -1 c 0,47,48
 342.727493917 40.3138686131 342.727493917 40.3138686131 254.5 112.5 c 0,49,50
 138.718707941 207.230148048 138.718707941 207.230148048 112 358 c 0,51,52
 102 417 102 417 57 456 c 1,53,-1
 74 476 l 1,54,55
 118 440 118 440 180 440 c 2,56,-1
 553 440 l 2,57,58
 591 440 591 440 613 449.5 c 128,-1,59
 635 459 635 459 647 486 c 1,60,-1
 685 467 l 1,61,62
 674 438 674 438 681 417 c 128,-1,63
 688 396 688 396 713 368 c 0,64,65
 782 290 782 290 948 290 c 0,66,67
 1012.18181818 290 1012.18181818 290 1071.09090909 306 c 0,68,69
 1182 336.12345679 1182 336.12345679 1182 403 c 0,70,71
 1182 515 1182 515 940 515 c 2,72,-1
 607 515 l 2,73,74
 547 515 547 515 507 475 c 1,75,-1
 487 496 l 1,76,77
 526 535 526 535 526 596 c 2,78,-1
 526 754 l 2,79,80
 526 808 526 808 487 847 c 1,81,-1
 506 866 l 1,82,83
 544 828 544 828 599 828 c 2,84,-1
 933 828 l 2,85,86
 935 828 935 828 941.058268096 827.969944721 c 0,0,1
EndSplineSet
EndChar

StartChar: two
Encoding: 50 50 116
Width: 1914
VWidth: 1658
Flags: HW
LayerCount: 2
Fore
SplineSet
723 775 m 1,0,1
 695.666666667 816 695.666666667 816 651 816 c 2,2,-1
 225 816 l 2,3,4
 164 816 164 816 119 781 c 1,5,-1
 103 801 l 1,6,7
 149 837 149 837 165 907 c 128,-1,8
 181 977 181 977 225 1042 c 128,-1,9
 269 1107 269 1107 332 1150.5 c 128,-1,10
 395 1194 395 1194 468.5 1225.5 c 128,-1,11
 542 1257 542 1257 629.5 1274 c 0,12,13
 794.205882353 1306 794.205882353 1306 921.102941176 1306 c 128,-1,14
 1048 1306 1048 1306 1113 1303 c 128,-1,15
 1178 1300 1178 1300 1262.5 1288.5 c 128,-1,16
 1347 1277 1347 1277 1415 1258.5 c 128,-1,17
 1483 1240 1483 1240 1552.5 1205.5 c 128,-1,18
 1622 1171 1622 1171 1668.5 1125 c 0,19,20
 1774 1020.6344086 1774 1020.6344086 1774 855 c 0,21,22
 1774 733.434782609 1774 733.434782609 1688.5 640.5 c 0,23,24
 1632.17871222 579.281208936 1632.17871222 579.281208936 1480 521 c 0,25,26
 1387.13377193 485.434210526 1387.13377193 485.434210526 1286.56688596 470.717105263 c 0,27,28
 1098.14285714 443.142857143 1098.14285714 443.142857143 959.571428571 424.071428571 c 128,-1,29
 821 405 821 405 726.5 371 c 128,-1,30
 632 337 632 337 580 329 c 1,31,-1
 582 320 l 1,32,33
 651 332 651 332 724 332 c 0,34,35
 1267 332 1267 332 1677 334 c 0,36,37
 1738 334 1738 334 1777 373 c 1,38,-1
 1796 353 l 1,39,40
 1758 315 1758 315 1758 253 c 2,41,-1
 1758 81 l 2,42,43
 1758 19 1758 19 1796 -19 c 1,44,-1
 1777 -39 l 1,45,46
 1738 0 1738 0 1677 0 c 2,47,-1
 200 0 l 2,48,49
 137 0 137 0 99 -37 c 1,50,-1
 80 -17 l 1,51,52
 120 20 120 20 126 81 c 1,53,54
 160.471476302 520.511322856 160.471476302 520.511322856 611.5 681 c 0,55,56
 776.8069019 739.820860799 776.8069019 739.820860799 955.5 768.5 c 0,57,58
 1101.06563162 791.862385321 1101.06563162 791.862385321 1145.03281581 813.431192661 c 128,-1,59
 1189 835 1189 835 1208 855.5 c 128,-1,60
 1227 876 1227 876 1227 901 c 128,-1,61
 1227 926 1227 926 1203.5 944 c 128,-1,62
 1180 962 1180 962 1144.5 971 c 0,63,64
 1081.38888889 987 1081.38888889 987 997.694444444 987 c 128,-1,65
 914 987 914 987 838.5 958 c 128,-1,66
 763 929 763 929 740.5 880 c 128,-1,67
 718 831 718 831 745 790 c 1,68,-1
 723 775 l 1,0,1
EndSplineSet
EndChar

StartChar: u
Encoding: 117 117 117
Width: 1887
VWidth: 1658
Flags: HW
LayerCount: 2
Fore
SplineSet
1732 1130 m 1,0,-1
 1741 619 l 1,1,2
 1741 352.384615385 1741 352.384615385 1675 228 c 0,3,4
 1612.57735503 110.357322943 1612.57735503 110.357322943 1498.5 51 c 0,5,6
 1366.93564862 -17.456247872 1366.93564862 -17.456247872 1150 -37 c 1,7,-1
 1150 -224 l 1,8,-1
 1160 -327 l 1,9,10
 1160 -361 1160 -361 1141 -361 c 128,-1,11
 1122 -361 1122 -361 1122 -295 c 1,12,-1
 1128 -132 l 1,13,14
 1128 -24 1128 -24 1061 -24 c 0,15,16
 1009 -24 1009 -24 1009 -109 c 1,17,18
 1014 -196 l 1,19,20
 1014 -226 1014 -226 1026.5 -283.5 c 128,-1,21
 1039 -341 1039 -341 1039 -365 c 128,-1,22
 1039 -389 1039 -389 1029 -405 c 128,-1,23
 1019 -421 1019 -421 1000 -421 c 128,-1,24
 981 -421 981 -421 971.5 -404.5 c 128,-1,25
 962 -388 962 -388 962 -365 c 128,-1,26
 962 -342 962 -342 975.5 -289.5 c 128,-1,27
 989 -237 989 -237 989 -222 c 128,-1,28
 989 -207 989 -207 989 -191.5 c 128,-1,29
 989 -176 989 -176 988 -160 c 128,-1,30
 987 -144 987 -144 983 -119.5 c 0,31,32
 974.918367347 -70 974.918367347 -70 935 -70 c 0,33,34
 861 -70 861 -70 861 -215.5 c 2,35,-1
 861 -262 l 2,36,37
 861 -299 861 -299 879 -370 c 128,-1,38
 897 -441 897 -441 897 -472.5 c 0,39,40
 897 -549 897 -549 847 -549 c 0,41,42
 822 -549 822 -549 807.5 -528 c 128,-1,43
 793 -507 793 -507 793 -474 c 128,-1,44
 793 -441 793 -441 809.5 -362 c 128,-1,45
 826 -283 826 -283 826 -242 c 2,46,-1
 826 -43 l 1,47,48
 542.348742515 -29.9585628743 542.348742515 -29.9585628743 399.5 39.5 c 0,49,50
 152.392234791 159.653317028 152.392234791 159.653317028 145 496 c 0,51,52
 143 589 143 589 143 773 c 2,53,-1
 145 1235 l 2,54,55
 145 1294 145 1294 106 1334 c 1,56,-1
 127 1354 l 1,57,58
 164 1316 164 1316 226 1316 c 2,59,-1
 580 1316 l 2,60,61
 641 1316 641 1316 679 1354 c 1,62,-1
 700 1334 l 1,63,64
 662 1295 662 1295 662 1235 c 2,65,-1
 664 721 l 2,66,67
 664 572 664 572 672 532 c 128,-1,68
 680 492 680 492 689.5 458.5 c 128,-1,69
 699 425 699 425 712.5 405 c 128,-1,70
 726 385 726 385 747 362.5 c 128,-1,71
 768 340 768 340 795 328 c 0,72,73
 858 300 858 300 918.5 300 c 128,-1,74
 979 300 979 300 1012.5 305.5 c 128,-1,75
 1046 311 1046 311 1071.5 323.5 c 128,-1,76
 1097 336 1097 336 1117.5 350.5 c 128,-1,77
 1138 365 1138 365 1152.5 387.5 c 128,-1,78
 1167 410 1167 410 1178 430.5 c 128,-1,79
 1189 451 1189 451 1195.5 482 c 128,-1,80
 1202 513 1202 513 1206 536.5 c 128,-1,81
 1210 560 1210 560 1212 596.5 c 0,82,83
 1215 651.25 1215 651.25 1215 721 c 2,84,-1
 1217 1235 l 2,85,86
 1217 1296 1217 1296 1180 1334 c 1,87,-1
 1199 1354 l 1,88,89
 1237 1316 1237 1316 1299 1316 c 2,90,-1
 1653 1316 l 2,91,92
 1716 1316 1716 1316 1753 1354 c 1,93,-1
 1773 1334 l 1,94,95
 1732 1292 1732 1292 1732 1130 c 1,0,-1
1141 -602 m 128,-1,97
 1108 -602 1108 -602 1108 -553 c 0,98,99
 1108 -505.0625 1108 -505.0625 1122.5 -471.53125 c 128,-1,100
 1137 -438 1137 -438 1140 -438 c 128,-1,101
 1143 -438 1143 -438 1151 -456 c 0,102,103
 1174 -507.75 1174 -507.75 1174 -554.875 c 128,-1,96
 1174 -602 1174 -602 1141 -602 c 128,-1,97
EndSplineSet
EndChar

StartChar: v
Encoding: 118 118 122
Width: 1760
VWidth: 1658
Flags: HW
LayerCount: 2
Fore
SplineSet
622 -262 m 1,0,1
 622 -295 622 -295 592 -295 c 0,2,3
 577 -295 577 -295 568 -284.5 c 128,-1,4
 559 -274 559 -274 559 -245 c 128,-1,5
 559 -216 559 -216 573 -131.5 c 128,-1,6
 587 -47 587 -47 587 16.5 c 128,-1,7
 587 80 587 80 554 155 c 2,8,-1
 58 1296 l 1,9,10
 36 1350 36 1350 -13 1383 c 1,11,-1
 0 1402 l 1,12,13
 47 1371 47 1371 108 1371 c 2,14,-1
 457 1371 l 2,15,16
 518 1371 518 1371 545 1413 c 1,17,-1
 574 1395 l 1,18,19
 557 1373 557 1373 557 1352.5 c 128,-1,20
 557 1332 557 1332 584.5 1260 c 128,-1,21
 612 1188 612 1188 657 1079.5 c 128,-1,22
 702 971 702 971 741.5 878 c 128,-1,23
 781 785 781 785 825 683 c 128,-1,24
 869 581 869 581 874 569 c 1,25,26
 879 581 879 581 923 683 c 128,-1,27
 967 785 967 785 1006.5 878 c 128,-1,28
 1046 971 1046 971 1091 1079.5 c 0,29,30
 1191 1320.61111111 1191 1320.61111111 1191 1347.80555556 c 128,-1,31
 1191 1375 1191 1375 1175 1395 c 1,32,-1
 1203 1413 l 1,33,34
 1230 1371 1230 1371 1291 1371 c 2,35,-1
 1641 1371 l 2,36,37
 1703 1371 1703 1371 1750 1402 c 1,38,-1
 1762 1383 l 1,39,40
 1713 1350 1713 1350 1691 1296 c 2,41,-1
 1188 106 l 2,42,43
 1175 76 1175 76 1175 -38 c 128,-1,44
 1175 -152 1175 -152 1198.5 -291.5 c 128,-1,45
 1222 -431 1222 -431 1222 -499 c 0,46,47
 1222 -596 1222 -596 1152.5 -596 c 128,-1,48
 1083 -596 1083 -596 1083 -500 c 0,49,50
 1083 -435 1083 -435 1108 -307.5 c 128,-1,51
 1133 -180 1133 -180 1133 -74 c 128,-1,52
 1133 32 1133 32 1107 32 c 2,53,-1
 623 32 l 2,54,55
 607 32 607 32 607 -42 c 1,56,-1
 622 -262 l 1,0,1
EndSplineSet
EndChar

StartChar: w
Encoding: 119 119 123
Width: 2587
VWidth: 1658
Flags: HW
HStem: -22 19G<1041 1079 1489 1527 2058 2096>
VStem: 462 87<-327.723 -19.843> 490 42<-161.424 11.8838> 1044 480<1161.15 1353.63> 1507 570<20.2715 197.787>
LayerCount: 2
Fore
SplineSet
502 -328 m 0,0,1
 462 -328 462 -328 462 -269 c 128,-1,2
 462 -210 462 -210 476 -110.5 c 128,-1,3
 490 -11 490 -11 490 31 c 128,-1,4
 490 73 490 73 484 95 c 1,5,-1
 78 1276 l 2,6,7
 56 1337 56 1337 12 1367 c 1,8,-1
 26 1387 l 1,9,10
 74 1354 74 1354 133 1354 c 2,11,-1
 500 1354 l 2,12,13
 562 1354 562 1354 592 1396 c 1,14,-1
 618 1376 l 1,15,16
 597 1349 597 1349 597 1305 c 128,-1,17
 597 1261 597 1261 628 1165.5 c 128,-1,18
 659 1070 659 1070 695.5 982.5 c 0,19,20
 794 746.369863014 794 746.369863014 794 607 c 1,21,-1
 807 607 l 1,22,23
 807 739.842696629 807 739.842696629 925.5 983.5 c 128,-1,24
 1044 1227.15730337 1044 1227.15730337 1044 1324 c 0,25,26
 1044 1351 1044 1351 1026 1377 c 1,27,-1
 1052 1397 l 1,28,29
 1082 1354 1082 1354 1143 1354 c 2,30,-1
 1426 1354 l 2,31,32
 1486 1354 1486 1354 1516 1397 c 1,33,-1
 1543 1377 l 1,34,35
 1524 1352 1524 1352 1524 1312 c 128,-1,36
 1524 1272 1524 1272 1560.5 1175.5 c 128,-1,37
 1597 1079 1597 1079 1641 988 c 0,38,39
 1759.12752323 743.690804229 1759.12752323 743.690804229 1761 607 c 1,40,-1
 1774 607 l 1,41,42
 1774 749.743243243 1774 749.743243243 1872 981.5 c 128,-1,43
 1970 1213.25675676 1970 1213.25675676 1970 1318 c 0,44,45
 1970 1351 1970 1351 1951 1376 c 1,46,-1
 1977 1396 l 1,47,48
 2007 1354 2007 1354 2069 1354 c 2,49,-1
 2436 1354 l 2,50,51
 2495 1354 2495 1354 2543 1387 c 1,52,-1
 2556 1367 l 1,53,54
 2512 1337 2512 1337 2491 1276 c 0,55,56
 2484 1255 2484 1255 2430 1105 c 128,-1,57
 2376 955 2376 955 2322 801.5 c 128,-1,58
 2268 648 2268 648 2209.5 478 c 0,59,60
 2077 92.9572649573 2077 92.9572649573 2077 56.9786324786 c 128,-1,61
 2077 21 2077 21 2096 -4 c 1,62,-1
 2069 -24 l 1,63,64
 2039 19 2039 19 1978 19 c 2,65,-1
 1607 20 l 2,66,67
 1545 20 1545 20 1516 -22 c 1,68,-1
 1489 -4 l 1,69,70
 1507 20 1507 20 1507 62.5 c 128,-1,71
 1507 105 1507 105 1473 197.5 c 128,-1,72
 1439 290 1439 290 1398.5 375 c 0,73,74
 1290 602.716049383 1290 602.716049383 1290 733 c 1,75,-1
 1278 733 l 1,76,77
 1278 600.804878049 1278 600.804878049 1169 373.5 c 128,-1,78
 1060 146.195121951 1060 146.195121951 1060 51 c 0,79,80
 1060 19 1060 19 1079 -4 c 1,81,-1
 1052 -22 l 1,82,83
 1023 20 1023 20 961 20 c 2,84,-1
 591 19 l 2,85,86
 532 19 532 19 532 -16 c 1,87,-1
 549 -261 l 1,88,89
 549 -286 549 -286 537 -307 c 128,-1,90
 525 -328 525 -328 502 -328 c 0,0,1
EndSplineSet
EndChar

StartChar: x
Encoding: 120 120 124
Width: 1832
VWidth: 1658
Flags: HW
LayerCount: 2
Fore
SplineSet
657 -30 m 1,0,1
 633.307692308 14 633.307692308 14 573 14 c 2,2,-1
 101 14 l 2,3,4
 41 14 41 14 -13 -11 c 1,5,-1
 -21 4 l 1,6,7
 36 32 36 32 72 77 c 2,8,-1
 555 660 l 2,9,10
 594 706 594 706 648 706 c 1,11,-1
 648 737 l 1,12,13
 595 737 595 737 558 786 c 2,14,-1
 166 1288 l 2,15,16
 129 1336 129 1336 76 1362 c 1,17,-1
 84 1378 l 1,18,19
 136 1352 136 1352 197 1352 c 2,20,-1
 643 1350 l 2,21,22
 704 1350 704 1350 726 1395 c 1,23,-1
 758 1379 l 1,24,25
 748 1356 748 1356 747.5 1337 c 128,-1,26
 747 1318 747 1318 773 1285 c 2,27,-1
 889 1135 l 2,28,29
 925 1089 925 1089 925 1030 c 1,30,-1
 950 1030 l 1,31,32
 950 1088 950 1088 987 1135 c 2,33,-1
 1103 1285 l 2,34,35
 1127 1317 1127 1317 1127 1337.5 c 128,-1,36
 1127 1358 1127 1358 1118 1379 c 1,37,-1
 1150 1395 l 1,38,39
 1172 1350 1172 1350 1233 1350 c 2,40,-1
 1668 1352 l 2,41,42
 1728 1352 1728 1352 1782 1377 c 1,43,-1
 1789 1362 l 1,44,45
 1736 1336 1736 1336 1698 1289 c 2,46,-1
 1287 785 l 2,47,48
 1249 738 1249 738 1195 738 c 1,49,-1
 1195 706 l 1,50,51
 1249 706 1249 706 1286 659 c 2,52,-1
 1745 77 l 2,53,54
 1780 32 1780 32 1836 4 c 1,55,-1
 1828 -12 l 1,56,57
 1776 14 1776 14 1715 14 c 2,58,-1
 1253 14 l 2,59,60
 1209 14 1209 14 1184 -15 c 128,-1,61
 1159 -44 1159 -44 1159 -119.5 c 128,-1,62
 1159 -195 1159 -195 1180 -380 c 128,-1,63
 1201 -565 1201 -565 1201 -626.5 c 128,-1,64
 1201 -688 1201 -688 1177.5 -715 c 128,-1,65
 1154 -742 1154 -742 1123.5 -742 c 128,-1,66
 1093 -742 1093 -742 1071.5 -718.5 c 128,-1,67
 1050 -695 1050 -695 1050 -636.5 c 128,-1,68
 1050 -578 1050 -578 1084.5 -381 c 128,-1,69
 1119 -184 1119 -184 1119 -110 c 2,70,-1
 1120 80 l 1,71,-1
 961 306 l 1,72,73
 925 359 925 359 925 412 c 1,74,-1
 900 412 l 1,75,76
 900 355 900 355 865 306 c 2,77,-1
 702 80 l 2,78,79
 679 47 679 47 679 28 c 128,-1,80
 679 9 679 9 690 -13 c 1,81,-1
 657 -30 l 1,0,1
EndSplineSet
EndChar

StartChar: y
Encoding: 121 121 125
Width: 1780
VWidth: 1658
Flags: HW
LayerCount: 2
Fore
SplineSet
720 -354 m 1,0,-1
 731 -158 l 1,1,2
 731 10 731 10 689 10 c 128,-1,3
 647 10 647 10 647 -96 c 2,4,-1
 647 -125 l 2,5,6
 647 -168 647 -168 666.5 -253 c 128,-1,7
 686 -338 686 -338 686 -382 c 0,8,9
 686 -450 686 -450 635.5 -450 c 128,-1,10
 585 -450 585 -450 585 -382 c 0,11,12
 585 -336 585 -336 606 -248 c 128,-1,13
 627 -160 627 -160 627 -114 c 2,14,-1
 625 294 l 2,15,16
 625 325 625 325 633.5 342 c 128,-1,17
 642 359 642 359 669 367 c 1,18,-1
 659 405 l 1,19,20
 645 401 645 401 634.5 401 c 128,-1,21
 624 401 624 401 613 408.5 c 0,22,23
 600.219653179 417.213872832 600.219653179 417.213872832 583 444 c 2,24,-1
 76 1270 l 2,25,26
 46 1319 46 1319 -6 1350 c 1,27,-1
 3 1367 l 1,28,29
 53 1339 53 1339 116 1339 c 2,30,-1
 519 1341 l 2,31,32
 579 1341 579 1341 604 1384 c 1,33,-1
 635 1367 l 1,34,35
 622 1343 622 1343 622 1314.5 c 128,-1,36
 622 1286 622 1286 662.5 1217 c 128,-1,37
 703 1148 703 1148 751.5 1083 c 128,-1,38
 800 1018 800 1018 840.5 939 c 128,-1,39
 881 860 881 860 881 802 c 1,40,-1
 902 802 l 1,41,-1
 902 810 l 2,42,43
 902 903.591836735 902 903.591836735 1032 1084 c 128,-1,44
 1162 1264.40816327 1162 1264.40816327 1162 1325 c 0,45,46
 1162 1341 1162 1341 1148 1367 c 1,47,-1
 1179 1384 l 1,48,49
 1204 1341 1204 1341 1265 1341 c 2,50,-1
 1644 1339 l 2,51,52
 1706 1339 1706 1339 1756 1367 c 1,53,-1
 1765 1350 l 1,54,55
 1711 1318 1711 1318 1682 1270 c 2,56,-1
 1170 444 l 2,57,58
 1143.82608696 401 1143.82608696 401 1117 401 c 0,59,60
 1106 401 1106 401 1094 405 c 1,61,-1
 1082 368 l 1,62,63
 1130 353 1130 353 1130 268 c 1,64,-1
 1124 129 l 1,65,66
 1124 33 1124 33 1166 -9 c 1,67,-1
 1145 -29 l 1,68,69
 1106 10 1106 10 1046 10 c 2,70,-1
 812 10 l 2,71,72
 748 10 748 10 748 -171 c 1,73,-1
 763 -357 l 1,74,75
 763 -392 763 -392 741.5 -392 c 128,-1,76
 720 -392 720 -392 720 -354 c 1,0,-1
EndSplineSet
EndChar

StartChar: z
Encoding: 122 122 128
Width: 1866
VWidth: 1658
Flags: HW
LayerCount: 2
Fore
SplineSet
1616 -586 m 1,0,-1
 1642 -136 l 1,1,2
 1630 -75 1630 -75 1557.5 -27.5 c 128,-1,3
 1485 20 1485 20 1419 20 c 0,4,5
 1311 20 1311 20 1311 -165 c 1,6,-1
 1316 -328 l 1,7,8
 1316 -361 1316 -361 1329 -425.5 c 128,-1,9
 1342 -490 1342 -490 1342 -528 c 0,10,11
 1342 -613 1342 -613 1287.5 -613 c 128,-1,12
 1233 -613 1233 -613 1233 -533 c 0,13,14
 1233 -504 1233 -504 1253.5 -434.5 c 128,-1,15
 1274 -365 1274 -365 1274 -346 c 2,16,-1
 1274 -244.5 l 2,17,18
 1274 0 1274 0 1175 0 c 2,19,-1
 288 0 l 2,20,21
 213 0 213 0 188 -26 c 128,-1,22
 163 -52 163 -52 163 -107 c 1,23,-1
 179 -662 l 1,24,25
 179 -709 179 -709 162.5 -735.5 c 128,-1,26
 146 -762 146 -762 123 -762 c 128,-1,27
 100 -762 100 -762 84.5 -736 c 128,-1,28
 69 -710 69 -710 69 -647.5 c 128,-1,29
 69 -585 69 -585 90.5 -388 c 128,-1,30
 112 -191 112 -191 112 -114 c 2,31,-1
 110 81 l 1,32,-1
 110 211 l 2,33,34
 110 243 110 243 101 261.5 c 128,-1,35
 92 280 92 280 66 292 c 1,36,-1
 81 326 l 1,37,38
 104 317 104 317 122.5 317.5 c 128,-1,39
 141 318 141 318 171 344 c 2,40,-1
 871 946 l 2,41,42
 919 986 919 986 973 1006 c 1,43,-1
 968 1020 l 1,44,45
 911 999 911 999 851 999 c 2,46,-1
 259 999 l 2,47,48
 199 999 199 999 159 959 c 1,49,-1
 139 980 l 1,50,51
 178 1019 178 1019 178 1080 c 2,52,-1
 178 1251 l 2,53,54
 178 1312 178 1312 139 1351 c 1,55,-1
 159 1372 l 1,56,57
 199 1332 199 1332 259 1332 c 2,58,-1
 1636 1332 l 2,59,60
 1695 1332 1695 1332 1735 1372 c 1,61,-1
 1756 1351 l 1,62,63
 1717 1312 1717 1312 1717 1251 c 2,64,-1
 1717 1096 l 2,65,66
 1717 1064 1717 1064 1726 1045.5 c 128,-1,67
 1735 1027 1735 1027 1761 1014 c 1,68,-1
 1746 981 l 1,69,70
 1723 990 1723 990 1705.5 990 c 128,-1,71
 1688 990 1688 990 1654 963 c 1,72,-1
 978 395 l 2,73,74
 935 359 935 359 876 337 c 1,75,-1
 880 323 l 1,76,77
 937 344 937 344 996 344 c 2,78,-1
 1606 344 l 2,79,80
 1668 344 1668 344 1706 382 c 1,81,-1
 1725 362 l 1,82,83
 1687 324 1687 324 1687 263 c 2,84,-1
 1687 -130 l 2,85,86
 1687 -193 1687 -193 1717 -355 c 128,-1,87
 1747 -517 1747 -517 1747 -575.5 c 128,-1,88
 1747 -634 1747 -634 1728.5 -662 c 128,-1,89
 1710 -690 1710 -690 1683.5 -690 c 128,-1,90
 1657 -690 1657 -690 1636.5 -662 c 128,-1,91
 1616 -634 1616 -634 1616 -586 c 1,0,-1
EndSplineSet
EndChar

StartChar: zero
Encoding: 48 48 130
Width: 1893
VWidth: 1658
Flags: HW
LayerCount: 2
Fore
SplineSet
979 -162 m 1,0,-1
 985 -66 l 1,1,2
 985 -41 985 -41 961.5 -27.5 c 128,-1,3
 938 -14 938 -14 910 -14 c 128,-1,4
 882 -14 882 -14 859.5 -29 c 128,-1,5
 837 -44 837 -44 837 -72 c 2,6,-1
 837 -302 l 2,7,8
 837 -352 837 -352 858 -449 c 128,-1,9
 879 -546 879 -546 879 -587.5 c 128,-1,10
 879 -629 879 -629 861 -656 c 128,-1,11
 843 -683 843 -683 811.5 -683 c 128,-1,12
 780 -683 780 -683 764.5 -655 c 128,-1,13
 749 -627 749 -627 749 -582 c 128,-1,14
 749 -537 749 -537 771.5 -426 c 128,-1,15
 794 -315 794 -315 794 -254 c 0,16,17
 794 -7 794 -7 703 -7 c 0,18,19
 520 -7 520 -7 380 82.5 c 128,-1,20
 240 172 240 172 166 326.5 c 128,-1,21
 92 481 92 481 92 657.5 c 128,-1,22
 92 834 92 834 139.5 956.5 c 128,-1,23
 187 1079 187 1079 266 1156.5 c 128,-1,24
 345 1234 345 1234 457 1284.5 c 128,-1,25
 569 1335 569 1335 689 1355 c 128,-1,26
 809 1375 809 1375 948 1375 c 128,-1,27
 1087 1375 1087 1375 1207 1355 c 128,-1,28
 1327 1335 1327 1335 1439 1285 c 128,-1,29
 1551 1235 1551 1235 1630 1157 c 128,-1,30
 1709 1079 1709 1079 1756 956.5 c 128,-1,31
 1803 834 1803 834 1803 677 c 0,32,33
 1803 357 1803 357 1636 181.5 c 128,-1,34
 1469 6 1469 6 1166 -34 c 1,35,36
 1163 -39 1163 -39 1163 -56 c 1,37,-1
 1167 -111 l 1,38,39
 1167 -162 1167 -162 1139 -162 c 128,-1,40
 1111 -162 1111 -162 1111 -113 c 1,41,-1
 1115 -57 l 1,42,43
 1115 -27 1115 -27 1071 -27 c 1,44,45
 1067 -36 1067 -36 1067 -61 c 1,46,-1
 1073 -158 l 1,47,48
 1073 -188 1073 -188 1062 -216 c 128,-1,49
 1051 -244 1051 -244 1025 -244 c 0,50,51
 979 -244 979 -244 979 -162 c 1,0,-1
649 676 m 0,52,53
 649 310 649 310 948.5 310 c 128,-1,54
 1248 310 1248 310 1248 676 c 0,55,56
 1248 844 1248 844 1171 933 c 128,-1,57
 1094 1022 1094 1022 948.5 1022 c 128,-1,58
 803 1022 803 1022 726 933 c 128,-1,59
 649 844 649 844 649 676 c 0,52,53
EndSplineSet
EndChar

StartChar: E_E
Encoding: 65537 -1 131
Width: 3344
VWidth: 1658
Flags: HW
LayerCount: 2
Fore
SplineSet
3209 131.5 m 2,0,1
 3209 27 3209 27 3253 -17 c 1,2,-1
 3233 -37 l 1,3,4
 3192 2 3192 2 3134 2 c 2,5,-1
 2159 2 l 2,6,7
 2131 2 2131 2 2108 -17 c 128,-1,8
 2085 -36 2085 -36 2085 -63 c 2,9,-1
 2085 -292 l 2,10,11
 2085 -342 2085 -342 2106 -439 c 128,-1,12
 2127 -536 2127 -536 2127 -578 c 128,-1,13
 2127 -620 2127 -620 2109 -647 c 128,-1,14
 2091 -674 2091 -674 2059.5 -674 c 128,-1,15
 2028 -674 2028 -674 2012.5 -646 c 128,-1,16
 1997 -618 1997 -618 1997 -572 c 128,-1,17
 1997 -526 1997 -526 2019.5 -414 c 128,-1,18
 2042 -302 2042 -302 2042 -259.5 c 128,-1,19
 2042 -217 2042 -217 2041.5 -202 c 128,-1,20
 2041 -187 2041 -187 2039 -152 c 128,-1,21
 2037 -117 2037 -117 2030.5 -95 c 128,-1,22
 2024 -73 2024 -73 2014 -48 c 0,23,24
 1994 2 1994 2 1945 2 c 2,25,-1
 1870.5 3 l 2,26,27
 1827.5 3 1827.5 3 1813.25 -3 c 128,-1,28
 1799 -9 1799 -9 1785.5 -17 c 128,-1,29
 1772 -25 1772 -25 1766 -37 c 0,30,31
 1751 -67 1751 -67 1751 -109.5 c 128,-1,32
 1751 -152 1751 -152 1764 -235 c 128,-1,33
 1777 -318 1777 -318 1777 -370 c 128,-1,34
 1777 -422 1777 -422 1732 -422 c 128,-1,35
 1687 -422 1687 -422 1687 -369 c 128,-1,36
 1687 -316 1687 -316 1706 -232.5 c 128,-1,37
 1725 -149 1725 -149 1725 -106 c 2,38,-1
 1722 1249 l 2,39,40
 1722 1310 1722 1310 1683 1348 c 1,41,-1
 1703 1369 l 1,42,43
 1744 1330 1744 1330 1803 1330 c 2,44,-1
 3087 1330 l 2,45,46
 3146 1330 3146 1330 3187 1369 c 1,47,-1
 3207 1348 l 1,48,49
 3163 1301.8 3163 1301.8 3163 1165 c 2,50,-1
 3163 1120.5 l 2,51,52
 3163 1020 3163 1020 3207 976 c 1,53,-1
 3187 957 l 1,54,55
 3136 1008 3136 1008 2952 1008 c 1,56,-1
 2455 985 l 1,57,58
 2271 985 2271 985 2220 1036 c 1,59,-1
 2200 1016 l 1,60,61
 2239 978 2239 978 2239 915.5 c 128,-1,62
 2239 853 2239 853 2200 815 c 1,63,-1
 2220 796 l 1,64,65
 2242 819 2242 819 2282 831 c 0,66,67
 2332 846 2332 846 2422 846 c 1,68,-1
 2842 823 l 1,69,70
 2997 823 2997 823 3047 873 c 1,71,-1
 3068 853 l 1,72,73
 3028.35555556 813.355555556 3028.35555556 813.355555556 3025 734.5 c 0,74,75
 3024 711 3024 711 3024 688.5 c 2,76,-1
 3024 628.5 l 2,77,78
 3024 523 3024 523 3068 479 c 1,79,-1
 3047 458 l 1,80,81
 2999.17391304 508 2999.17391304 508 2843 508 c 1,82,-1
 2425 486 l 1,83,84
 2271 486 2271 486 2220 536 c 1,85,-1
 2201 516 l 1,86,87
 2243 486 2243 486 2243 416 c 128,-1,88
 2243 346 2243 346 2201 310 c 1,89,-1
 2220 290 l 1,90,91
 2269 339 2269 339 2425 339 c 2,92,-1
 3134 337 l 2,93,94
 3195 337 3195 337 3233 376 c 1,95,-1
 3253 356 l 1,96,97
 3209 309.8 3209 309.8 3209 171 c 2,98,-1
 3209 131.5 l 2,0,1
721 166 m 1,99,-1
 705 290 l 1,100,-1
 705 301 l 1,101,102
 726 338 726 338 762 338 c 2,103,-1
 1578 337 l 2,104,105
 1639 337 1639 337 1677 376 c 1,106,-1
 1697 356 l 1,107,108
 1641 253 1641 253 1641 -17 c 0,109,110
 1641 -59 1641 -59 1659.5 -179.5 c 128,-1,111
 1678 -300 1678 -300 1678 -339.5 c 128,-1,112
 1678 -379 1678 -379 1665 -398 c 128,-1,113
 1652 -417 1652 -417 1634 -417 c 128,-1,114
 1616 -417 1616 -417 1602.5 -396 c 128,-1,115
 1589 -375 1589 -375 1589 -338 c 1,116,-1
 1605 -117 l 1,117,118
 1605 -29 1605 -29 1574 15.5 c 128,-1,119
 1543 60 1543 60 1490 60 c 0,120,121
 1371 60 1371 60 1371 -119 c 0,122,123
 1371 -188 1371 -188 1391.5 -319 c 128,-1,124
 1412 -450 1412 -450 1412 -483 c 128,-1,125
 1412 -516 1412 -516 1397 -533.5 c 128,-1,126
 1382 -551 1382 -551 1362.5 -551 c 128,-1,127
 1343 -551 1343 -551 1328.5 -534.5 c 128,-1,128
 1314 -518 1314 -518 1314 -490 c 1,129,-1
 1332 -171 l 1,130,131
 1332 4 1332 4 1257 4 c 1,132,-1
 1181 2 l 1,133,-1
 395 2 l 2,134,135
 305.5 2 305.5 2 264.5 -32 c 0,136,137
 216 -72.2195121951 216 -72.2195121951 216 -258 c 0,138,139
 216 -333 216 -333 239 -479.5 c 128,-1,140
 262 -626 262 -626 262 -700 c 0,141,142
 262 -807 262 -807 186 -807 c 0,143,144
 104 -807 104 -807 104 -697 c 0,145,146
 104 -622 104 -622 137 -475 c 128,-1,147
 170 -328 170 -328 170 -252 c 1,148,-1
 165 83 l 1,149,-1
 165 1249 l 2,150,151
 165 1311 165 1311 127 1348 c 1,152,-1
 147 1369 l 1,153,154
 188 1330 188 1330 247 1330 c 2,155,-1
 1531 1330 l 2,156,157
 1592 1330 1592 1330 1631 1369 c 1,158,-1
 1651 1348 l 1,159,160
 1607 1304 1607 1304 1607 1175.5 c 2,161,-1
 1607 1131 l 2,162,163
 1607 1018 1607 1018 1651 976 c 1,164,-1
 1631 957 l 1,165,166
 1581 1008 1581 1008 1396 1008 c 1,167,-1
 899 985 l 1,168,169
 715 985 715 985 665 1036 c 1,170,-1
 644 1016 l 1,171,172
 683 978 683 978 683 915.5 c 128,-1,173
 683 853 683 853 644 815 c 1,174,-1
 665 796 l 1,175,176
 713 846 713 846 867 846 c 1,177,-1
 1286 823 l 1,178,179
 1441 823 1441 823 1491 873 c 1,180,-1
 1512 853 l 1,181,182
 1468 809 1468 809 1468 669 c 2,183,-1
 1468 630.5 l 2,184,185
 1468 523 1468 523 1512 479 c 1,186,-1
 1491 458 l 1,187,188
 1443 508 1443 508 1288 508 c 1,189,-1
 869 486 l 1,190,191
 715 486 715 486 665 536 c 1,192,-1
 645 516 l 1,193,194
 687 473 687 473 687 366 c 1,195,-1
 685 288 l 1,196,-1
 668 168 l 1,197,198
 668 132 668 132 694.5 132 c 128,-1,199
 721 132 721 132 721 166 c 1,99,-1
EndSplineSet
LCarets2: 1 0 
Ligature2: "'liga'" E E
EndChar

StartChar: paragraph
Encoding: 182 182 132
Width: 1891
VWidth: 1658
Flags: HW
LayerCount: 2
Fore
SplineSet
1409 -305 m 1,0,-1
 1435 -68 l 1,1,2
 1435 -19 1435 -19 1430 0 c 1,3,-1
 1277 0 l 2,4,5
 1261.36666667 0 1261.36666667 0 1251.68333333 -41.5 c 128,-1,6
 1242 -83 1242 -83 1242 -124.5 c 128,-1,7
 1242 -166 1242 -166 1264 -275 c 128,-1,8
 1286 -384 1286 -384 1286 -427 c 0,9,10
 1286 -514 1286 -514 1221.5 -514 c 128,-1,11
 1157 -514 1157 -514 1157 -425 c 0,12,13
 1157 -382 1157 -382 1177 -273.5 c 128,-1,14
 1197 -165 1197 -165 1197 -122 c 2,15,-1
 1197 399 l 2,16,17
 1197 461 1197 461 1235 499 c 1,18,-1
 1215 518 l 1,19,20
 1177 480 1177 480 1115 480 c 2,21,-1
 565 480 l 2,22,23
 80 480 80 480 80 931 c 0,24,25
 80 1120.58974359 80 1120.58974359 195 1212 c 0,26,27
 272.572180781 1273.65993857 272.572180781 1273.65993857 345.286090391 1292.82996928 c 128,-1,28
 418 1312 418 1312 461 1319 c 128,-1,29
 504 1326 504 1326 566.5 1330 c 0,30,31
 660.25 1336 660.25 1336 772 1336 c 2,32,-1
 1634 1336 l 2,33,34
 1696 1336 1696 1336 1734 1374 c 1,35,-1
 1755 1354 l 1,36,37
 1715 1314 1715 1314 1715 1255 c 2,38,-1
 1715 81 l 1,39,-1
 1714 -122 l 2,40,41
 1714 -168 1714 -168 1735.5 -282 c 128,-1,42
 1757 -396 1757 -396 1757 -441 c 0,43,44
 1757 -535 1757 -535 1690 -535 c 128,-1,45
 1623 -535 1623 -535 1623 -443 c 0,46,47
 1623 -400 1623 -400 1642.5 -293 c 128,-1,48
 1662 -186 1662 -186 1662 -144 c 0,49,50
 1662 1170 1662 1170 1659 1170 c 2,51,-1
 1461 1170 l 1,52,-1
 1461 -52 l 2,53,54
 1461 -89 1461 -89 1479.5 -178.5 c 128,-1,55
 1498 -268 1498 -268 1498 -304 c 0,56,57
 1498 -366 1498 -366 1453.5 -366 c 128,-1,58
 1409 -366 1409 -366 1409 -305 c 1,0,-1
EndSplineSet
EndChar

StartChar: copyright
Encoding: 169 169 133
Width: 2076
VWidth: 1658
Flags: HW
LayerCount: 2
Fore
SplineSet
1771 487 m 1,0,1
 1740 464 1740 464 1724 398.5 c 128,-1,2
 1708 333 1708 333 1656 271.5 c 128,-1,3
 1604 210 1604 210 1536.5 173 c 128,-1,4
 1469 136 1469 136 1384 112 c 0,5,6
 1235.77802319 70.1490889012 1235.77802319 70.1490889012 1107.3890116 69.0745444506 c 128,-1,7
 979 68 979 68 905.5 73.5 c 128,-1,8
 832 79 832 79 754 95 c 128,-1,9
 676 111 676 111 615 137 c 128,-1,10
 554 163 554 163 498 206 c 128,-1,11
 442 249 442 249 405 306.5 c 0,12,13
 325 430.824324324 325 430.824324324 325 628 c 0,14,15
 325 980.073298429 325 980.073298429 635.5 1108.5 c 0,16,17
 805.949367089 1179 805.949367089 1179 1049 1179 c 0,18,19
 1640 1179 1640 1179 1709 841 c 0,20,21
 1719 790 1719 790 1751 765 c 1,22,-1
 1738 748 l 1,23,24
 1705 772 1705 772 1663 772 c 2,25,-1
 1655 772 l 1,26,-1
 1350 753 l 1,27,28
 1296 748 1296 748 1281 714 c 1,29,-1
 1255 726 l 1,30,31
 1264 749 1264 749 1264 774 c 128,-1,32
 1264 799 1264 799 1237 829.5 c 128,-1,33
 1210 860 1210 860 1167.5 875 c 0,34,35
 1085.33333333 904 1085.33333333 904 1008 904 c 0,36,37
 891 904 891 904 825 824.5 c 128,-1,38
 759 745 759 745 759 617.5 c 128,-1,39
 759 490 759 490 833 409 c 128,-1,40
 907 328 907 328 1041 328 c 0,41,42
 1084 328 1084 328 1137 349 c 128,-1,43
 1190 370 1190 370 1231 410.5 c 128,-1,44
 1272 451 1272 451 1272 495 c 0,45,46
 1272 506 1272 506 1264 526 c 1,47,-1
 1290 539 l 1,48,49
 1306 505 1306 505 1348.5 501.5 c 128,-1,50
 1391 498 1391 498 1460.5 492 c 0,51,52
 1599.5 480 1599.5 480 1663 480 c 128,-1,53
 1726.5 480 1726.5 480 1758 504 c 1,54,-1
 1771 487 l 1,0,1
204 612 m 0,55,56
 204 441 204 441 270 286.5 c 128,-1,57
 336 132 336 132 448 20 c 128,-1,58
 560 -92 560 -92 715 -158 c 128,-1,59
 870 -224 870 -224 1040.5 -224 c 128,-1,60
 1211 -224 1211 -224 1366 -158 c 128,-1,61
 1521 -92 1521 -92 1633 20 c 128,-1,62
 1745 132 1745 132 1811.5 286.5 c 128,-1,63
 1878 441 1878 441 1878 611.5 c 128,-1,64
 1878 782 1878 782 1811.5 937 c 128,-1,65
 1745 1092 1745 1092 1633 1204.5 c 128,-1,66
 1521 1317 1521 1317 1366 1383.5 c 128,-1,67
 1211 1450 1211 1450 1040 1450 c 0,68,69
 813 1450 813 1450 620.5 1337.5 c 128,-1,70
 428 1225 428 1225 316 1032 c 128,-1,71
 204 839 204 839 204 612 c 0,55,56
793 -765 m 2,72,-1
 812 -291 l 1,73,74
 769.552238806 -284.711442786 769.552238806 -284.711442786 712.276119403 -264.855721393 c 128,-1,75
 655 -245 655 -245 643 -241 c 1,76,77
 395 -127 395 -127 243.5 101.5 c 128,-1,78
 92 330 92 330 92 612 c 0,79,80
 92 928.182857143 92 928.182857143 275.5 1172.5 c 0,81,82
 460.83041166 1419.25420524 460.83041166 1419.25420524 741 1512 c 0,83,84
 886 1560 886 1560 1040 1560 c 128,-1,85
 1194 1560 1194 1560 1339 1512 c 128,-1,86
 1484 1464 1484 1464 1600.5 1376.5 c 128,-1,87
 1717 1289 1717 1289 1804.5 1172.5 c 0,88,89
 1988 928.182857143 1988 928.182857143 1988 631.091428571 c 128,-1,90
 1988 334 1988 334 1840.5 103.5 c 128,-1,91
 1693 -127 1693 -127 1450 -243 c 1,92,93
 1429 -248 1429 -248 1366 -268 c 128,-1,94
 1303 -288 1303 -288 1271 -293 c 1,95,96
 1271 -385 1271 -385 1295 -566.5 c 128,-1,97
 1319 -748 1319 -748 1319 -808 c 128,-1,98
 1319 -868 1319 -868 1304.5 -891.5 c 128,-1,99
 1290 -915 1290 -915 1262 -915 c 128,-1,100
 1234 -915 1234 -915 1219 -891.5 c 128,-1,101
 1204 -868 1204 -868 1204 -816 c 128,-1,102
 1204 -764 1204 -764 1220.5 -612.5 c 128,-1,103
 1237 -461 1237 -461 1237 -409.5 c 128,-1,104
 1237 -358 1237 -358 1232 -340 c 128,-1,105
 1227 -322 1227 -322 1220 -312.5 c 128,-1,106
 1213 -303 1213 -303 1196 -298.5 c 0,107,108
 1175.22222222 -293 1175.22222222 -293 1136.11111111 -293 c 128,-1,109
 1097 -293 1097 -293 1072.5 -295 c 128,-1,110
 1048 -297 1048 -297 1020 -306.5 c 128,-1,111
 992 -316 992 -316 992 -330 c 1,112,-1
 1016 -602 l 1,113,114
 1016 -668 1016 -668 978 -668 c 128,-1,115
 940 -668 940 -668 940 -613 c 128,-1,116
 940 -558 940 -558 953.5 -466.5 c 128,-1,117
 967 -375 967 -375 967 -335.5 c 128,-1,118
 967 -296 967 -296 942 -296 c 128,-1,119
 917 -296 917 -296 886 -303.5 c 128,-1,120
 855 -311 855 -311 855 -328 c 2,121,-1
 866 -760 l 2,122,123
 866 -777 866 -777 855 -791 c 128,-1,124
 844 -805 844 -805 828 -805 c 128,-1,125
 812 -805 812 -805 802.5 -793 c 128,-1,126
 793 -781 793 -781 793 -765 c 2,72,-1
EndSplineSet
EndChar

StartChar: bracketleft
Encoding: 91 91 134
Width: 1128
VWidth: 1658
Flags: HW
LayerCount: 2
Fore
SplineSet
1050 -98 m 1,0,-1
 1055 -226 l 1,1,2
 1055 -287 1055 -287 1094 -326 c 1,3,-1
 1074 -346 l 1,4,5
 1035 -307 1035 -307 974 -307 c 2,6,-1
 257 -307 l 2,7,8
 198 -307 198 -307 158 -346 c 1,9,-1
 138 -326 l 1,10,11
 181 -284 181 -284 181 -174 c 2,12,-1
 181 1418 l 2,13,14
 181 1528 181 1528 138 1570 c 1,15,-1
 158 1590 l 1,16,17
 197 1552 197 1552 257 1552 c 2,18,-1
 974 1552 l 2,19,20
 1036 1552 1036 1552 1074 1590 c 1,21,-1
 1094 1570 l 1,22,23
 1055 1531 1055 1531 1055 1471 c 1,24,-1
 1050 1342 l 1,25,26
 1050 1235 1050 1235 1094 1191 c 1,27,-1
 1074 1170 l 1,28,29
 1029 1216 1029 1216 927 1216 c 1,30,-1
 836 1202 l 1,31,32
 731 1202 731 1202 685 1248 c 1,33,-1
 665 1228 l 1,34,35
 704 1190 704 1190 704 1129 c 2,36,-1
 704 116 l 2,37,38
 704 54 704 54 665 16 c 1,39,-1
 685 -4 l 1,40,41
 731 42 731 42 836 42 c 1,42,-1
 927 29 l 1,43,44
 1030 29 1030 29 1074 74 c 1,45,-1
 1094 53 l 1,46,47
 1050 9 1050 9 1050 -98 c 1,0,-1
EndSplineSet
EndChar

StartChar: bracketright
Encoding: 93 93 135
Width: 1131
VWidth: 1658
Flags: HW
LayerCount: 2
Fore
SplineSet
83 1342 m 1,0,-1
 78 1471 l 1,1,2
 78 1531 78 1531 39 1570 c 1,3,-1
 59 1590 l 1,4,5
 97 1552 97 1552 159 1552 c 2,6,-1
 875 1552 l 2,7,8
 936 1552 936 1552 975 1590 c 1,9,-1
 995 1570 l 1,10,11
 952 1528 952 1528 952 1418 c 2,12,-1
 952 -174 l 2,13,14
 952 -284 952 -284 995 -326 c 1,15,-1
 975 -346 l 1,16,17
 935 -307 935 -307 875 -307 c 2,18,-1
 159 -307 l 2,19,20
 98 -307 98 -307 59 -346 c 1,21,-1
 39 -326 l 1,22,23
 78 -287 78 -287 78 -226 c 1,24,-1
 83 -98 l 1,25,26
 83 9 83 9 39 53 c 1,27,-1
 59 74 l 1,28,29
 103 29 103 29 206 29 c 1,30,-1
 297 42 l 1,31,32
 402 42 402 42 448 -4 c 1,33,-1
 469 16 l 1,34,35
 429 55 429 55 429 116 c 2,36,-1
 429 1129 l 2,37,38
 429 1189 429 1189 469 1228 c 1,39,-1
 448 1248 l 1,40,41
 402 1202 402 1202 297 1202 c 1,42,-1
 206 1216 l 1,43,44
 104 1216 104 1216 59 1170 c 1,45,-1
 39 1191 l 1,46,47
 83 1235 83 1235 83 1342 c 1,0,-1
EndSplineSet
EndChar

StartChar: comma
Encoding: 44 44 137
Width: 725
VWidth: 1658
Flags: HW
LayerCount: 2
Fore
SplineSet
591.026367188 271 m 2,0,-1
 590.026367188 81 l 2,1,2
 590.026367188 -97.6 590.026367188 -97.6 444.026367188 -302 c 1,3,-1
 293.026367188 -290 l 1,4,5
 351.693033855 -170 351.693033855 -170 372.943033855 -42.5 c 2,6,-1
 380.026367188 0 l 1,7,-1
 219.026367188 0 l 2,8,9
 158.276367188 0 158.276367188 0 148.151367188 10.125 c 128,-1,10
 138.026367188 20.25 138.026367188 20.25 138.026367188 81 c 2,11,-1
 138.026367188 203 l 2,12,13
 138.026367188 208.381126731 138.026367188 208.381126731 137.967392464 250.65813461 c 128,-1,14
 137.908417741 292.935142489 137.908417741 292.935142489 145.418895839 308.967571245 c 128,-1,15
 152.929373938 325 152.929373938 325 193.026367188 325 c 2,16,-1
 469.026367188 325 l 2,17,18
 476.07390759 325 476.07390759 325 518.167038482 325.104003567 c 128,-1,19
 560.260169375 325.208007133 560.260169375 325.208007133 575.643268281 317.826798173 c 128,-1,20
 591.026367188 310.445589212 591.026367188 310.445589212 591.026367188 271 c 2,0,-1
EndSplineSet
EndChar

StartChar: semicolon
Encoding: 59 59 138
Width: 779
VWidth: 1658
Flags: HW
LayerCount: 2
Fore
SplineSet
614.026367188 81 m 2,0,1
 614.026367188 -94.8 614.026367188 -94.8 466.026367188 -302 c 1,2,-1
 316.026367188 -290 l 1,3,4
 374.693033855 -170 374.693033855 -170 395.943033855 -42.5 c 2,5,-1
 403.026367188 0 l 1,6,-1
 242.026367188 0 l 2,7,8
 181.276367188 0 181.276367188 0 171.151367188 10.125 c 128,-1,9
 161.026367188 20.25 161.026367188 20.25 161.026367188 81 c 2,10,-1
 161.026367188 203 l 2,11,12
 161.026367188 208.381126731 161.026367188 208.381126731 160.967392464 250.65813461 c 128,-1,13
 160.908417741 292.935142489 160.908417741 292.935142489 168.418895839 308.967571245 c 128,-1,14
 175.929373938 325 175.929373938 325 216.026367188 325 c 2,15,-1
 492.026367188 325 l 2,16,17
 499.069867991 325 499.069867991 325 541.320928417 325.104265955 c 128,-1,18
 583.571988844 325.20853191 583.571988844 325.20853191 599.299178016 317.786224612 c 128,-1,19
 615.026367188 310.363917314 615.026367188 310.363917314 615.026367188 271 c 2,20,-1
 614.026367188 81 l 2,0,1
493.026367188 677 m 2,21,-1
 284.026367188 677 l 2,22,23
 277.236738245 677 277.236738245 677 234.897068248 676.901230121 c 128,-1,24
 192.557398252 676.802460242 192.557398252 676.802460242 177.29188272 684.542777046 c 128,-1,25
 162.026367188 692.283093851 162.026367188 692.283093851 162.026367188 734 c 2,26,-1
 162.026367188 968 l 2,27,28
 162.026367188 1010.37415555 162.026367188 1010.37415555 177.914045416 1018.24305459 c 128,-1,29
 193.801723644 1026.11195363 193.801723644 1026.11195363 236.324454204 1026.05597682 c 128,-1,30
 278.847184764 1026 278.847184764 1026 284.026367188 1026 c 2,31,-1
 493.026367188 1026 l 2,32,33
 498.20339527 1026 498.20339527 1026 540.874926343 1026.05612369 c 128,-1,34
 583.546457417 1026.11224738 583.546457417 1026.11224738 599.786412302 1018.1980463 c 128,-1,35
 616.026367188 1010.28384523 616.026367188 1010.28384523 616.026367188 968 c 2,36,-1
 616.026367188 734 l 2,37,38
 616.026367188 692.371789112 616.026367188 692.371789112 600.415422041 684.58687452 c 128,-1,39
 584.804476895 676.801959928 584.804476895 676.801959928 542.308391676 676.900979964 c 128,-1,40
 499.812306457 677 499.812306457 677 493.026367188 677 c 2,21,-1
EndSplineSet
EndChar

StartChar: cent
Encoding: 162 162 139
Width: 1958
VWidth: 1658
Flags: HW
LayerCount: 2
Fore
SplineSet
886 982 m 1,0,1
 765 965 765 965 698 879.5 c 128,-1,2
 631 794 631 794 631 669.5 c 128,-1,3
 631 545 631 545 697 458.5 c 128,-1,4
 763 372 763 372 886 345 c 1,5,-1
 886 982 l 1,0,1
886 -275 m 1,6,-1
 886 -4 l 1,7,8
 508 -4 508 -4 295 168.5 c 128,-1,9
 82 341 82 341 82 679 c 0,10,11
 82 961.931034483 82 961.931034483 265 1126 c 0,12,13
 470.093953893 1309.87733797 470.093953893 1309.87733797 886 1332 c 1,14,-1
 885 1557 l 1,15,16
 932 1538 932 1538 980 1538 c 128,-1,17
 1028 1538 1028 1538 1075 1557 c 1,18,-1
 1076 1333 l 1,19,20
 1747 1311 1747 1311 1829 971 c 1,21,22
 1841 911 1841 911 1883 877 c 1,23,-1
 1866 855 l 1,24,25
 1823 886 1823 886 1762 886 c 1,26,-1
 1377 861 l 1,27,28
 1310 854 1310 854 1290 812 c 1,29,-1
 1257 828 l 1,30,31
 1268 852 1268 852 1268 867 c 0,32,33
 1268 941 1268 941 1076 971 c 1,34,-1
 1076 350 l 1,35,36
 1154 366 1154 366 1216 405 c 128,-1,37
 1278 444 1278 444 1278 487 c 0,38,39
 1278 504 1278 504 1268 526 c 1,40,-1
 1300 544 l 1,41,42
 1324 498 1324 498 1376.5 494 c 128,-1,43
 1429 490 1429 490 1515.5 482.5 c 0,44,45
 1694.26666667 467 1694.26666667 467 1799 467 c 0,46,47
 1848 467 1848 467 1891 499 c 1,48,-1
 1908 477 l 1,49,50
 1872 451 1872 451 1850 370.5 c 128,-1,51
 1828 290 1828 290 1751 218 c 128,-1,52
 1674 146 1674 146 1564 102 c 0,53,54
 1344.41841004 14.1673640167 1344.41841004 14.1673640167 1076 4 c 1,55,-1
 1076 -275 l 1,56,57
 1029 -256 1029 -256 981 -256 c 128,-1,58
 933 -256 933 -256 886 -275 c 1,6,-1
EndSplineSet
EndChar

StartChar: Euro
Encoding: 8364 8364 140
Width: 2121
VWidth: 1658
Flags: HW
LayerCount: 2
Fore
SplineSet
852 -499 m 2,0,-1
 872 -24 l 1,1,2
 364.408562149 45.3096742447 364.408562149 45.3096742447 262 469 c 1,3,-1
 198 469 l 2,4,5
 122 469 122 469 69 463 c 1,6,-1
 69 615 l 1,7,8
 121 602 121 602 240 602 c 2,9,-1
 241 602 l 1,10,11
 239 627 239 627 239 672.5 c 128,-1,12
 239 718 239 718 240 738 c 1,13,-1
 198 738 l 2,14,15
 122 738 122 738 69 732 c 1,16,-1
 69 884 l 1,17,18
 121 871 121 871 240 871 c 2,19,-1
 261 871 l 1,20,21
 381.424778761 1375 381.424778761 1375 1139.71238938 1375 c 128,-1,22
 1898 1375 1898 1375 1986 947 c 0,23,24
 1998 886 1998 886 2040 852 c 1,25,-1
 2022 830 l 1,26,27
 1979 861 1979 861 1918 861 c 1,28,-1
 1533 837 l 2,29,30
 1466 832 1466 832 1446 788 c 1,31,-1
 1413 804 l 1,32,33
 1424 828 1424 828 1424 842 c 0,34,35
 1424 894 1424 894 1389.5 932.5 c 128,-1,36
 1355 971 1355 971 1302 990 c 0,37,38
 1198.78947368 1027 1198.78947368 1027 1103.89473684 1027 c 0,39,40
 916.342465753 1027 916.342465753 1027 833 871 c 1,41,-1
 939 871 l 2,42,43
 1052 871 1052 871 1104 884 c 1,44,-1
 1104 732 l 1,45,46
 1052 738 1052 738 981 738 c 2,47,-1
 792 738 l 1,48,49
 788 718 788 718 788 674.5 c 128,-1,50
 788 631 788 631 793 602 c 1,51,-1
 939 602 l 2,52,53
 1052 602 1052 602 1104 615 c 1,54,-1
 1104 463 l 1,55,56
 1052 469 1052 469 981 469 c 2,57,-1
 834 469 l 1,58,59
 924 302 924 302 1144 302 c 0,60,61
 1198 302 1198 302 1264.5 328.5 c 128,-1,62
 1331 355 1331 355 1383 405 c 128,-1,63
 1435 455 1435 455 1435 511 c 0,64,65
 1435 527 1435 527 1424 551 c 1,66,-1
 1456 568 l 1,67,68
 1480 523 1480 523 1534 519 c 128,-1,69
 1588 515 1588 515 1673 507.5 c 0,70,71
 1860 491 1860 491 1933 491 c 128,-1,72
 2006 491 2006 491 2048 522 c 1,73,-1
 2064 501 l 1,74,75
 2024.85434174 474.380952381 2024.85434174 474.380952381 2006.92717087 398.19047619 c 128,-1,76
 1989 322 1989 322 1935.5 252.5 c 128,-1,77
 1882 183 1882 183 1815 137.5 c 128,-1,78
 1748 92 1748 92 1660.5 57 c 0,79,80
 1514.51785714 -1.39285714286 1514.51785714 -1.39285714286 1331 -27 c 1,81,82
 1331 -119 1331 -119 1355.5 -300 c 128,-1,83
 1380 -481 1380 -481 1380 -541 c 128,-1,84
 1380 -601 1380 -601 1365 -625 c 128,-1,85
 1350 -649 1350 -649 1322 -649 c 128,-1,86
 1294 -649 1294 -649 1279.5 -625 c 128,-1,87
 1265 -601 1265 -601 1265 -548.5 c 128,-1,88
 1265 -496 1265 -496 1281.5 -345 c 128,-1,89
 1298 -194 1298 -194 1298 -143 c 128,-1,90
 1298 -92 1298 -92 1293 -74 c 128,-1,91
 1288 -56 1288 -56 1281 -46.5 c 128,-1,92
 1274 -37 1274 -37 1257 -32.5 c 0,93,94
 1197.70855019 -16.805204461 1197.70855019 -16.805204461 1096.5 -35 c 0,95,96
 1052 -43 1052 -43 1052 -64 c 1,97,-1
 1076 -336 l 1,98,99
 1076 -401 1076 -401 1039 -401 c 0,100,101
 1019 -401 1019 -401 1009.5 -380.5 c 128,-1,102
 1000 -360 1000 -360 1000 -325.5 c 128,-1,103
 1000 -291 1000 -291 1014 -200 c 128,-1,104
 1028 -109 1028 -109 1028 -69.5 c 128,-1,105
 1028 -30 1028 -30 1002 -30 c 0,106,107
 915 -30 915 -30 915 -61 c 2,108,-1
 926 -494 l 2,109,110
 926 -511 926 -511 915 -524.5 c 128,-1,111
 904 -538 904 -538 888 -538 c 128,-1,112
 872 -538 872 -538 862 -526.5 c 128,-1,113
 852 -515 852 -515 852 -499 c 2,0,-1
EndSplineSet
EndChar

StartChar: hyphen
Encoding: 45 45 141
Width: 1127
VWidth: 1658
Flags: HW
LayerCount: 2
Fore
SplineSet
858 559 m 2,0,-1
 290 559 l 2,1,2
 214 559 214 559 161 553 c 1,3,-1
 161 884 l 1,4,5
 213 871 213 871 332 871 c 2,6,-1
 815 871 l 2,7,8
 929 871 929 871 981 884 c 1,9,-1
 981 553 l 1,10,11
 929 559 929 559 858 559 c 2,0,-1
EndSplineSet
EndChar

StartChar: minus
Encoding: 8722 8722 142
Width: 1127
VWidth: 1658
Flags: HW
LayerCount: 2
Fore
SplineSet
858 559 m 2,0,-1
 290 559 l 2,1,2
 214 559 214 559 161 553 c 1,3,-1
 161 884 l 1,4,5
 213 871 213 871 332 871 c 2,6,-1
 815 871 l 2,7,8
 929 871 929 871 981 884 c 1,9,-1
 981 553 l 1,10,11
 929 559 929 559 858 559 c 2,0,-1
EndSplineSet
EndChar

StartChar: AE
Encoding: 198 198 143
Width: 2820
VWidth: 1658
Flags: HW
LayerCount: 2
Fore
SplineSet
2136 557 m 2,0,-1
 1713 556 l 1,1,-1
 1713 338 l 1,2,-1
 2607 337 l 2,3,4
 2668 337 2668 337 2706 376 c 1,5,-1
 2727 356 l 1,6,7
 2670 251 2670 251 2670 -17 c 0,8,9
 2670 -59 2670 -59 2689 -179.5 c 128,-1,10
 2708 -300 2708 -300 2708 -339.5 c 128,-1,11
 2708 -379 2708 -379 2695 -398 c 128,-1,12
 2682 -417 2682 -417 2664 -417 c 128,-1,13
 2646 -417 2646 -417 2632.5 -396 c 128,-1,14
 2619 -375 2619 -375 2619 -338 c 1,15,-1
 2634 -117 l 1,16,17
 2634 -29 2634 -29 2603 15.5 c 128,-1,18
 2572 60 2572 60 2519 60 c 0,19,20
 2401 60 2401 60 2401 -119 c 0,21,22
 2401 -188 2401 -188 2421.5 -319 c 128,-1,23
 2442 -450 2442 -450 2442 -483 c 128,-1,24
 2442 -516 2442 -516 2426.5 -533.5 c 128,-1,25
 2411 -551 2411 -551 2391.5 -551 c 128,-1,26
 2372 -551 2372 -551 2357.5 -534.5 c 128,-1,27
 2343 -518 2343 -518 2343 -490 c 1,28,-1
 2361 -171 l 1,29,30
 2361 4 2361 4 2287 4 c 1,31,-1
 2210 2 l 1,32,-1
 1442 2 l 1,33,-1
 1437 0 l 1,34,-1
 1437 -29 l 2,35,36
 1437 -58 1437 -58 1410 -58 c 128,-1,37
 1383 -58 1383 -58 1383 -29 c 2,38,-1
 1383 0 l 1,39,40
 1297 -9 1297 -9 1271 -63.5 c 128,-1,41
 1245 -118 1245 -118 1245 -225.5 c 128,-1,42
 1245 -333 1245 -333 1268 -479.5 c 128,-1,43
 1291 -626 1291 -626 1291 -700 c 0,44,45
 1291 -807 1291 -807 1215 -807 c 0,46,47
 1134 -807 1134 -807 1134 -697 c 0,48,49
 1134 -622 1134 -622 1167 -475 c 128,-1,50
 1200 -328 1200 -328 1200 -252 c 1,51,-1
 1195 83 l 1,52,-1
 1195 153 l 1,53,54
 1166 152 1166 152 1109 152 c 2,55,-1
 697 152 l 2,56,57
 638 152 638 152 625 194 c 1,58,-1
 591 176 l 1,59,60
 595 167 595 167 595 144.5 c 128,-1,61
 595 122 595 122 562 77 c 1,62,-1
 560 76 l 1,63,64
 527 32 527 32 527 9 c 128,-1,65
 527 -14 527 -14 531 -23 c 1,66,-1
 498 -42 l 1,67,68
 485 0 485 0 426 0 c 2,69,-1
 64 0 l 1,70,-1
 56 -64 l 1,71,72
 58 -166 58 -166 58 -214.5 c 128,-1,73
 58 -263 58 -263 42.5 -286.5 c 128,-1,74
 27 -310 27 -310 8 -310 c 128,-1,75
 -11 -310 -11 -310 -24.5 -289.5 c 128,-1,76
 -38 -269 -38 -269 -38 -210 c 128,-1,77
 -38 -151 -38 -151 -22 -77 c 128,-1,78
 -6 -3 -6 -3 14 21 c 2,79,-1
 1034 1257 l 1,80,81
 1073 1306 1073 1306 1073 1327 c 128,-1,82
 1073 1348 1073 1348 1070 1357 c 1,83,-1
 1106 1375 l 1,84,85
 1118.54166667 1332 1118.54166667 1332 1178 1332 c 2,86,-1
 1638 1332 l 1,87,-1
 2560 1330 l 2,88,89
 2621 1330 2621 1330 2660 1369 c 1,90,-1
 2680 1348 l 1,91,92
 2637 1305 2637 1305 2637 1196 c 2,93,-1
 2637 1131 l 2,94,95
 2637 1016 2637 1016 2680 976 c 1,96,-1
 2660 957 l 1,97,98
 2610 1008 2610 1008 2425 1008 c 1,99,-1
 1928 985 l 1,100,101
 1744 985 1744 985 1694 1036 c 1,102,-1
 1674 1016 l 1,103,104
 1713 978 1713 978 1713 917 c 2,105,-1
 1713 822 l 1,106,-1
 1714 822 l 1,107,-1
 2134 823 l 2,108,109
 2290 823 2290 823 2340 873 c 1,110,-1
 2360 853 l 1,111,112
 2316 813 2316 813 2316 693 c 2,113,-1
 2316 659 l 2,114,115
 2316 564.714285714 2316 564.714285714 2360 527 c 1,116,-1
 2340 507 l 1,117,118
 2292 557 2292 557 2136 557 c 2,0,-1
917 429 m 2,119,-1
 1109 429 l 2,120,121
 1173 429 1173 429 1195 428 c 1,122,-1
 1195 903 l 1,123,124
 1169 856 1169 856 1148 830 c 2,125,-1
 895 506 l 2,126,127
 891 501 891 501 882 489.5 c 128,-1,128
 873 478 873 478 868.5 473 c 0,129,130
 853.714285714 456.571428571 853.714285714 456.571428571 840 448 c 1,131,-1
 844 428 l 1,132,133
 869 429 869 429 917 429 c 2,119,-1
33 -598 m 1,134,135
 30.9375 -631 30.9375 -631 6 -631 c 0,136,137
 -5 -631 -5 -631 -14 -621.5 c 128,-1,138
 -23 -612 -23 -612 -23 -575.5 c 128,-1,139
 -23 -539 -23 -539 6 -423 c 1,140,141
 33 -544 33 -544 33 -598 c 1,134,135
EndSplineSet
EndChar

StartChar: ring
Encoding: 730 730 145
Width: 920
VWidth: 1658
Flags: HW
LayerCount: 2
Fore
SplineSet
272 1734 m 128,-1,1
 272 1648 272 1648 322.5 1584.5 c 128,-1,2
 373 1521 373 1521 464 1521 c 128,-1,3
 555 1521 555 1521 605 1584.5 c 128,-1,4
 655 1648 655 1648 655 1734 c 128,-1,5
 655 1820 655 1820 605 1883.5 c 128,-1,6
 555 1947 555 1947 464 1947 c 128,-1,7
 373 1947 373 1947 322.5 1883.5 c 128,-1,0
 272 1820 272 1820 272 1734 c 128,-1,1
93 1734 m 132,-1,9
 93 1805 93 1805 116.5 1869.5 c 128,-1,10
 140 1934 140 1934 184.5 1987 c 128,-1,11
 229 2040 229 2040 301.5 2071.5 c 128,-1,12
 374 2103 374 2103 464 2103 c 128,-1,13
 554 2103 554 2103 626.5 2071.5 c 128,-1,14
 699 2040 699 2040 743 1987 c 128,-1,15
 787 1934 787 1934 810.5 1869.5 c 128,-1,16
 834 1805 834 1805 834 1734 c 128,-1,17
 834 1663 834 1663 810.5 1598 c 128,-1,18
 787 1533 787 1533 743 1480 c 128,-1,19
 699 1427 699 1427 626.5 1395.5 c 128,-1,20
 554 1364 554 1364 464 1364 c 128,-1,21
 374 1364 374 1364 301.5 1395.5 c 128,-1,22
 229 1427 229 1427 184.5 1480 c 128,-1,23
 140 1533 140 1533 116.5 1598 c 128,-1,8
 93 1663 93 1663 93 1734 c 132,-1,9
EndSplineSet
EndChar

